<svg width="462" height="478" viewBox="0 0 462 478" fill="none" xmlns="http://www.w3.org/2000/svg">
<path d="M303.16 184.556C251.148 108.975 176.921 -54.2959 57.6378 49.6142C-60.7597 152.876 28.0246 335.848 103.377 397.709C179.541 460.088 424.841 516.654 459.012 358.993C482.592 250.546 360.633 268.044 303.16 184.556Z" fill="#F0F7F7"/>
<path d="M98.6848 464.517C101.527 465.434 182.371 464.382 185.422 462.388C186.647 461.654 187.125 449.885 187.357 435.644C187.357 435.498 187.357 435.338 187.357 435.192C187.357 432.255 187.443 429.234 187.456 426.175C187.456 425.747 187.456 425.331 187.456 424.952C187.566 404.398 187.247 383.074 187.247 383.074L133.164 383.613L134.793 425.098L134.855 426.738L135.173 435.302V436.183C135.173 436.183 104.468 450.386 101.344 452.931C98.2192 455.476 95.8545 463.612 98.6848 464.517Z" fill="#FFC4C0"/>
<path d="M187.443 429.588C187.443 431.496 187.443 433.368 187.37 435.216C187.37 435.362 187.37 435.521 187.37 435.668C187.137 449.909 186.61 461.678 185.434 462.412C182.383 464.406 101.54 465.458 98.697 464.541C95.8544 463.623 98.2559 455.5 101.356 452.967C104.456 450.435 135.247 436.194 135.247 436.194V435.313L134.965 430.089L187.443 429.588Z" fill="#EBEBEB"/>
<path d="M122.98 441.687C123.189 441.626 123.299 441.565 123.311 441.504L122.98 441.687Z" fill="#00AB78"/>
<path d="M98.3526 464.651C101.195 465.568 182.443 464.651 185.518 462.632C186.743 461.873 187.246 450.055 187.503 435.717L135.123 436.182C135.123 436.182 104.173 450.434 101.036 452.979C97.8993 455.524 95.4977 463.745 98.3526 464.651Z" fill="#C7C7C7"/>
<path d="M187.505 435.705C187.247 450.007 186.696 461.825 185.52 462.62C184.343 463.415 169.505 464.088 152.438 464.504L181.758 435.791L187.505 435.705Z" fill="#A6A6A6"/>
<path d="M99.4331 461.398C113.046 460.908 168.048 460.174 181.526 460.749C181.636 460.749 181.636 460.823 181.526 460.823C168.048 461.618 113.083 461.875 99.4331 461.618C99.2003 461.618 99.1881 461.398 99.4331 461.398Z" fill="#263238"/>
<path d="M129.854 437.626C135.307 437.491 141.641 439.339 145.084 443.743C145.219 443.914 144.974 444.11 144.815 444.024C140.024 441.578 134.976 439.657 129.768 438.299C129.585 438.25 129.474 438.066 129.523 437.883C129.572 437.736 129.707 437.638 129.854 437.626Z" fill="#263238"/>
<path d="M125.665 439.374C131.117 439.239 137.452 441.087 140.895 445.491C141.03 445.662 140.785 445.858 140.625 445.772C135.834 443.326 130.786 441.405 125.579 440.047C125.395 439.998 125.285 439.814 125.334 439.631C125.383 439.484 125.518 439.386 125.665 439.374Z" fill="#263238"/>
<path d="M121.487 441.003C126.939 440.868 133.286 442.716 136.717 447.12C136.852 447.291 136.607 447.475 136.448 447.401C131.657 444.955 126.609 443.034 121.401 441.676C121.217 441.627 121.107 441.443 121.156 441.26C121.205 441.113 121.34 441.015 121.487 441.003Z" fill="#263238"/>
<path d="M117.284 442.69C122.736 442.556 129.083 444.403 132.514 448.807C132.649 448.979 132.404 449.162 132.244 449.089C127.454 446.642 122.405 444.721 117.198 443.363C117.014 443.314 116.904 443.131 116.953 442.947C117.002 442.801 117.137 442.703 117.284 442.69Z" fill="#263238"/>
<path d="M203.861 150.504C203.861 150.504 191.719 286.915 189.746 297.314C189.281 299.687 188.999 312.582 188.815 329.122C188.398 365.274 188.643 430.482 188.643 430.482H131.656C131.656 430.482 133.347 317.5 135.871 296.702C138.395 275.904 154.569 150.504 154.569 150.504H203.861Z" fill="#00AB78"/>
<path d="M134.229 420.609C143.124 420.426 140.563 420.353 149.459 420.267C153.808 420.267 182.418 419.973 186.474 420.646C186.523 420.671 186.547 420.72 186.535 420.768C186.523 420.793 186.498 420.817 186.474 420.83C182.418 421.503 153.808 421.258 149.459 421.209C140.563 421.123 143.124 421.05 134.229 420.866C134.155 420.866 134.094 420.817 134.094 420.744C134.094 420.671 134.155 420.609 134.229 420.609Z" fill="#263238"/>
<path d="M177.85 356.011C177.911 347.765 177.972 339.52 178.033 331.262C178.033 323.26 178.033 315.259 178.462 307.27C179.234 291.109 182.518 275.205 184.858 259.215C187.198 243.225 189.147 227.174 190.911 211.098C192.896 193.077 194.587 175.019 196.498 156.986C196.498 156.864 196.694 156.864 196.694 156.986C193.999 189.199 191.009 221.399 186.537 253.416C185.434 261.38 184.209 269.332 182.861 277.272C181.538 285.298 180.214 293.336 179.577 301.447C178.94 309.558 178.854 317.351 178.769 325.353C178.683 333.598 178.609 341.844 178.524 350.09C178.352 368.441 178.168 396.58 177.997 414.931C177.96 415.078 177.813 415.176 177.666 415.151C177.556 415.127 177.47 415.041 177.445 414.931C177.568 398.574 177.69 372.356 177.85 356.011Z" fill="#263238"/>
<path opacity="0.1" d="M215.832 150.504C215.832 150.504 191.682 286.915 189.71 297.314C189.244 299.687 188.962 312.582 188.778 329.122L161.639 150.504H215.832Z" fill="black"/>
<path d="M164.86 469.325C167.764 470.034 248.325 463.281 251.229 461.079C252.344 460.259 252.038 448.478 251.229 434.249C251.229 434.103 251.229 433.956 251.229 433.809C251.07 430.873 250.898 427.863 250.678 424.805L250.604 423.581C249.269 403.065 247.431 381.826 247.431 381.826L193.519 386.182L198.089 427.447L198.261 429.087L199.204 437.651L199.29 438.531C199.29 438.531 169.614 454.888 166.673 457.653C163.733 460.418 161.919 468.627 164.86 469.325Z" fill="#FFC4C0"/>
<path d="M251.232 461.078C248.328 463.28 167.766 470.033 164.862 469.324C161.959 468.614 163.784 460.332 166.688 457.591C169.592 454.851 199.305 438.469 199.305 438.469L199.219 437.588L198.643 432.426L250.913 428.07C251.036 430.003 251.146 431.924 251.244 433.808C251.244 433.955 251.244 434.102 251.244 434.249C252.04 448.477 252.347 460.258 251.232 461.078Z" fill="#EBEBEB"/>
<path d="M186.254 444.832C186.438 444.759 186.536 444.697 186.548 444.648L186.254 444.832Z" fill="#00AB78"/>
<path d="M164.628 469.397C167.532 470.107 248.51 463.537 251.45 461.335C252.565 460.515 252.296 448.685 251.561 434.42L199.34 438.506C199.34 438.506 169.455 454.863 166.502 457.616C163.55 460.369 161.724 468.737 164.628 469.397Z" fill="#C7C7C7"/>
<path d="M165.522 466.057C179.074 464.626 233.855 460.124 247.358 459.732C247.468 459.732 247.468 459.806 247.358 459.818C233.966 461.531 179.147 465.593 165.547 466.29C165.253 466.29 165.24 466.094 165.522 466.057Z" fill="#263238"/>
<path d="M194.182 440.256C199.61 439.73 206.067 441.137 209.804 445.308C209.939 445.467 209.706 445.663 209.547 445.602C204.597 443.498 199.426 441.932 194.145 440.929C193.961 440.88 193.851 440.696 193.888 440.513C193.925 440.378 194.047 440.28 194.182 440.256Z" fill="#263238"/>
<path d="M190.1 442.226C195.528 441.712 201.985 443.119 205.722 447.279C205.869 447.438 205.637 447.646 205.465 447.573C200.527 445.468 195.369 443.902 190.1 442.899C189.917 442.862 189.794 442.679 189.831 442.495C189.855 442.361 189.966 442.263 190.1 442.226Z" fill="#263238"/>
<path d="M186.059 444.195C191.487 443.681 197.944 445.088 201.681 449.248C201.816 449.407 201.583 449.615 201.424 449.541C196.474 447.449 191.303 445.871 186.022 444.868C185.838 444.819 185.728 444.635 185.765 444.452C185.802 444.317 185.924 444.219 186.059 444.195Z" fill="#263238"/>
<path d="M181.99 446.166C187.418 445.652 193.875 447.059 197.612 451.218C197.759 451.377 197.526 451.585 197.355 451.512C192.404 449.408 187.234 447.842 181.953 446.851C181.769 446.79 181.659 446.594 181.72 446.41C181.769 446.288 181.867 446.19 181.99 446.166Z" fill="#263238"/>
<path d="M196.657 432.596L253.583 428.669C253.583 428.669 238.279 306.438 237.997 298.767C237.568 287.365 232.091 240.325 227.497 202.24C227.497 202.24 236.208 181.613 219.9 150.465H154.471C154.471 150.465 158.857 180.108 166.356 198.9C171.404 200.662 176.268 202.888 180.912 205.531C180.912 205.531 187.418 290.46 187.663 301.055C188.141 321.987 196.657 432.596 196.657 432.596Z" fill="#00AB78"/>
<path d="M198.201 422.248C207.06 421.44 204.511 421.55 213.37 420.841C217.708 420.498 246.232 418.26 250.324 418.639C250.422 418.639 250.435 418.81 250.324 418.822C246.318 419.777 217.769 421.526 213.431 421.783C204.548 422.321 207.097 422.064 198.214 422.505C198.14 422.48 198.103 422.407 198.116 422.346C198.128 422.297 198.165 422.272 198.201 422.248Z" fill="#263238"/>
<path d="M163.881 197.617C169.775 199.745 175.485 202.4 180.913 205.532C181.011 205.593 181.035 205.703 180.986 205.801C180.937 205.875 180.851 205.911 180.753 205.887C175.019 203.44 169.162 201.067 163.6 198.302C163.428 198.179 163.379 197.947 163.502 197.776C163.587 197.653 163.734 197.592 163.881 197.617Z" fill="#263238"/>
<path d="M234.835 360.734C233.046 343.35 231.282 325.953 229.53 308.568C227.777 291.183 226.074 273.872 224.408 256.646C223.55 248.034 222.705 239.421 221.859 230.796C221.038 222.452 220.009 214.096 220.291 205.691C220.757 191.194 224.151 175.84 219.066 161.783C218.478 160.156 217.767 158.578 216.958 157.048C216.885 156.914 216.701 157.048 216.762 157.171C223.661 170.91 220.72 186.851 219.789 201.519C219.409 209.606 219.666 217.705 220.585 225.755L223.036 251.337C224.665 268.575 226.344 285.8 228.059 303.014C229.775 320.227 231.527 337.453 233.303 354.679C235.092 371.904 236.979 389.118 239.074 406.307C239.344 408.411 239.601 410.515 239.871 412.632C239.871 412.742 240.079 412.742 240.067 412.632C238.376 395.333 236.661 378.021 234.835 360.734Z" fill="#263238"/>
<path d="M187.321 280.332C186.341 264.525 185.238 248.719 183.902 232.936C183.143 224.018 182.212 214.585 181.011 205.703C181.011 205.618 180.668 205.422 180.68 205.508C181.525 221.314 183.131 237.83 184.282 253.612C185.434 269.394 186.279 285.225 187.186 301.13C187.701 310.048 188.289 318.967 188.877 327.898C188.877 328.057 189.122 328.045 189.122 327.898C188.951 311.993 188.301 296.236 187.321 280.332Z" fill="#263238"/>
<path d="M170.24 183.584C169.922 180.905 169.566 178.25 169.272 175.571C168.684 170.273 168.169 164.964 167.643 159.666C167.348 156.632 167.152 153.549 166.944 150.552C166.92 150.491 166.858 150.454 166.785 150.478C166.748 150.491 166.724 150.515 166.711 150.552C166.405 161.281 167.152 171.998 168.954 182.581C169.382 185.627 170.032 188.637 170.926 191.585C170.926 191.634 170.975 191.683 171.024 191.683C171.073 191.683 171.122 191.634 171.122 191.585C171.049 188.881 170.497 186.227 170.24 183.584Z" fill="#263238"/>
<path d="M176.844 175.118C176.366 169.686 175.778 164.279 175.263 158.859C174.981 155.739 174.749 152.62 174.442 149.512C174.442 149.439 174.332 149.439 174.332 149.512C174.332 154.944 174.675 160.388 174.981 165.808C175.288 171.228 175.717 176.66 176.452 182.055C176.868 185.162 177.334 188.27 177.812 191.365C177.812 191.5 178.057 191.512 178.045 191.365C177.64 185.896 177.322 180.477 176.844 175.118Z" fill="#263238"/>
<path opacity="0.1" d="M228.612 174.738L216.788 173.588L211.887 173.111L204.535 172.389L201.925 172.145L196.693 171.643H196.191L195.419 171.57H194.978L167.25 168.89L166.025 168.768L164.371 168.511L158.563 167.948L157.656 167.863L156.823 167.777L155.745 167.667L152.363 167.337C153.589 158.014 154.36 151.787 154.495 150.686C154.495 150.551 154.495 150.49 154.495 150.49H219.925C224.005 158.1 226.933 166.272 228.612 174.738Z" fill="black"/>
<path d="M178.254 91.1428C174.578 101.542 107.139 188.257 98.0355 189.676C70.2219 208.896 63.8995 201.654 65.1125 171.888C65.4189 149.328 123.239 112.1 155.317 88.9896C174.492 75.1283 181.881 80.9517 178.254 91.1428Z" fill="#FFC4C0"/>
<path d="M167.764 126.549L124.598 110.755C124.598 110.755 154.47 84.8306 172.689 79.7534C183.558 76.7316 182.577 76.6704 178.62 92.7094C176.353 102.069 171.146 117.545 167.764 126.549Z" fill="#00AB78"/>
<path d="M170.804 113.568C167.949 111.77 165.033 110.045 162.092 108.393C160.634 107.585 159.188 106.741 157.73 105.946C156.272 105.151 154.63 104.429 153.123 103.609C153.013 103.609 152.915 103.707 153.013 103.768C154.447 104.613 155.831 105.555 157.265 106.399C158.698 107.243 160.242 108.087 161.737 108.931C164.69 110.583 167.692 112.173 170.718 113.678C170.804 113.739 170.89 113.617 170.804 113.568Z" fill="#263238"/>
<path d="M152.609 159.887C152.609 159.887 202.662 162.052 223.834 159.544C223.834 159.544 209.352 98.4714 193.913 82.0165C186.892 74.517 180.031 75.667 174.211 80.4872C172.765 81.7107 154.778 104.491 153.247 112.431C151.899 119.465 157.621 127.258 157.621 127.258L152.609 159.887Z" fill="#00AB78"/>
<path d="M157.192 102.838C158.27 101.211 159.385 99.5961 160.525 98.0179C160.721 97.4551 160.941 96.9168 161.162 96.3663C161.517 95.5711 161.922 94.8003 162.387 94.054C162.154 94.886 161.873 95.7056 161.529 96.5009C161.419 96.7211 161.321 96.9413 161.235 97.1615C162.375 95.6078 163.551 94.0785 164.789 92.5859C162.534 96.1828 160.084 99.645 157.817 103.217C156.641 104.967 155.587 106.79 154.656 108.674C154.362 109.286 154.104 109.909 153.884 110.546C152.928 113.812 153.1 117.299 154.349 120.455C154.84 122.156 155.477 123.82 156.249 125.422C156.298 125.459 156.298 125.532 156.261 125.581C156.224 125.63 156.151 125.63 156.102 125.594C156.089 125.581 156.077 125.557 156.065 125.532C155.219 123.905 154.447 122.229 153.786 120.516C153.149 118.84 152.781 117.066 152.695 115.268C152.328 110.154 154.913 106.765 157.192 102.838Z" fill="#263238"/>
<path opacity="0.1" d="M195.053 104.27H180.031V107.145H195.053V104.27Z" fill="black"/>
<path d="M191.72 90.2003C196.498 96.7578 221.016 123.795 221.91 126.315C222.805 128.836 217.144 134.366 217.242 135.405C217.622 139.626 226.775 167.789 230.438 164.926C235.254 161.171 255.691 134.17 252.799 122.486C249.908 110.803 202.184 82.7497 194.624 80.3151C187.064 77.8805 187.002 83.7407 191.72 90.2003Z" fill="#FFC4C0"/>
<path d="M210.931 114.841L224.85 95.2661C224.85 95.2661 209.277 85.075 198.887 80.683C188.496 76.2909 183.338 78.7622 192.871 92.2075C198.421 100.111 204.462 107.671 210.931 114.841Z" fill="#00AB78"/>
<path d="M220.734 94.0546C218.528 96.5993 216.384 99.2174 214.301 101.872C213.284 103.181 212.23 104.478 211.238 105.812C210.246 107.145 209.265 108.638 208.236 110.008C208.163 110.106 208.236 110.228 208.371 110.142C209.425 108.846 210.564 107.696 211.618 106.338C212.672 104.98 213.738 103.646 214.791 102.3C216.874 99.6334 218.896 96.9174 220.856 94.1524C220.942 94.0668 220.844 93.9689 220.734 94.0546Z" fill="#263238"/>
<path d="M211.003 114.937C208.859 112.111 206.347 109.591 204.044 106.899C201.74 104.208 199.449 101.467 197.256 98.6779C197.231 98.6534 197.195 98.6412 197.17 98.6657C197.146 98.6901 197.133 98.7269 197.158 98.7513C198.175 100.195 199.167 101.675 200.233 103.082C200.772 103.78 201.324 104.465 201.875 105.15C201.606 104.93 201.348 104.697 201.066 104.489C200.233 103.853 199.339 103.266 198.444 102.715C198.444 102.715 198.359 102.715 198.444 102.789C199.229 103.51 200.037 104.196 200.895 104.832C201.52 105.284 202.12 105.713 202.782 106.141L203.762 107.364C205.906 110.154 208.32 112.747 210.942 115.096C210.93 115.17 211.065 115.023 211.003 114.937Z" fill="#263238"/>
<path d="M218.441 175.62C215.17 173.406 219.667 170.824 219.667 170.824C219.667 170.824 212.315 172.99 209.864 169.405C207.414 165.821 213.001 163.007 213.393 162.799C213.013 162.909 206.201 164.732 204.069 160.866C201.937 157 207.904 154.859 208.296 154.749C207.892 154.749 202.599 154.504 201.643 151.213C200.001 145.536 215.243 144.888 218.527 141.426C218.527 141.426 217.057 133.951 216.946 133.73C217.927 135.407 219.458 136.703 221.272 137.401C224.568 138.331 227.533 138.869 228.881 140.447C230.155 141.866 230.363 143.946 229.371 145.585C229.371 145.585 233.537 145.096 235.301 148.032C236.208 149.574 234.566 152.388 234.566 152.388C236.502 152.265 238.327 153.232 239.32 154.896C240.459 157.085 238.621 159.569 238.621 159.569C238.621 159.569 241.954 160.792 242.383 163.447C243.204 168.757 225.462 180.355 218.441 175.62Z" fill="#FFC4C0"/>
<path d="M238.415 160.118C233.33 165.587 226.714 169.367 219.423 170.982C219.19 170.982 219.019 170.676 219.264 170.578C226.101 168.009 232.534 164.461 238.341 160.045L238.415 160.118Z" fill="#263238"/>
<path d="M234.614 152.398C234.614 152.398 234.761 152.398 234.7 152.521C229.039 158.491 221.43 162.247 213.246 163.091C212.964 163.091 212.682 162.846 213.013 162.785C218.539 161.953 229.223 156.619 234.614 152.398Z" fill="#263238"/>
<path d="M207.635 154.577C215.636 153.671 222.522 150.295 229.114 145.805C229.2 145.805 229.273 145.878 229.212 145.939C226.59 149.01 222.093 151.432 218.442 153.023C215.072 154.552 211.36 155.188 207.672 154.858C207.525 154.846 207.464 154.589 207.635 154.577Z" fill="#263238"/>
<path d="M238.781 159.592C240.141 158.222 240.619 156.203 240.007 154.38C239.639 153.536 238.977 152.863 238.144 152.472C237.14 152.129 236.074 152.031 235.02 152.19C236.221 150.514 236.245 148.263 235.106 146.55C234.481 145.816 233.611 145.351 232.655 145.254C231.565 145.156 230.474 145.205 229.396 145.388C230.303 144.324 230.658 142.892 230.339 141.534C229.935 140.054 228.844 138.855 227.399 138.317C225.732 137.705 224.005 137.301 222.24 137.093C221.334 136.959 220.451 136.714 219.606 136.372C218.699 135.943 217.94 135.258 217.413 134.414C217.315 134.255 217.327 134.414 217.413 134.549C217.768 135.124 218.197 135.65 218.712 136.09C219.251 136.555 219.851 136.934 220.488 137.24C222.081 137.84 223.723 138.317 225.389 138.684C226.847 139.063 228.146 139.932 229.065 141.131C229.91 142.428 229.972 144.079 229.2 145.425C229.2 145.425 229.2 145.596 229.31 145.584C230.29 145.572 231.258 145.682 232.214 145.914C232.998 146.11 233.709 146.538 234.248 147.138C235.265 148.716 235.363 150.71 234.505 152.374C235.559 152.46 236.588 152.729 237.556 153.157C238.181 153.536 238.671 154.099 238.99 154.76C239.749 156.301 239.553 158.136 238.512 159.494C238.512 159.519 238.512 159.531 238.512 159.555C238.512 159.555 239.578 159.996 239.627 159.996C239.676 159.996 239.627 159.996 239.627 159.996C239.357 159.849 239.075 159.714 238.781 159.592Z" fill="#263238"/>
<path d="M134.23 144.974C132.588 146.222 131.02 147.58 129.562 149.036L128.459 150.259L127.981 150.565C127.307 151.018 126.658 151.495 126.033 152.009C124.832 153.012 123.693 154.089 122.627 155.226C122.59 155.263 122.59 155.324 122.627 155.361C122.664 155.398 122.725 155.398 122.762 155.349C123.913 154.248 125.139 153.244 126.437 152.327L126.952 151.972C126.339 152.669 125.727 153.379 125.188 154.113C123.705 156.071 122.345 158.114 121.108 160.23C121.046 160.328 121.206 160.414 121.255 160.316C123.534 156.572 133.507 146.516 134.586 145.317C135.664 144.118 135.063 144.289 134.23 144.974Z" fill="#263238"/>
<path d="M189.723 80.2908C189.392 81.5999 182.971 90.0782 176.955 89.6989C174.983 89.5643 175.179 78.8472 175.179 78.8472L175.019 78.052L172.691 66.9189L185.863 58.7465L187.762 57.6699C187.762 57.6699 188.191 60.7529 188.693 64.6067C188.693 64.778 188.718 64.9615 188.767 65.1572C188.767 65.3652 188.84 65.5732 188.865 65.7812C188.951 66.3562 189.024 67.0046 189.098 67.5184C189.171 68.0322 189.208 68.3993 189.245 68.8764L189.392 70.2711C189.723 73.5988 189.833 76.9509 189.723 80.2908Z" fill="#FFC4C0"/>
<path d="M188.693 64.6081C186.341 70.8842 181.342 75.8024 175.019 78.0657L172.691 66.9326L185.863 58.7602L187.762 57.6836C187.762 57.6836 188.191 60.7544 188.693 64.6081Z" fill="#263238"/>
<path d="M159.618 45.4356C155.366 64.9368 166.578 69.6836 170.78 70.5889C174.603 71.4209 187.726 73.7576 193.975 54.8069C200.223 35.8562 192.553 27.745 183.854 25.3838C175.154 23.0226 163.882 25.971 159.618 45.4356Z" fill="#FFC4C0"/>
<path d="M165.596 42.6345C166.062 42.6345 166.503 42.6345 166.968 42.6345C167.459 42.6957 167.949 42.5856 168.378 42.3409C168.61 42.1329 168.684 41.7781 168.537 41.4967C168.169 40.9707 167.544 40.6893 166.907 40.7505C166.27 40.726 165.645 40.934 165.143 41.3377C164.849 41.6435 164.861 42.1329 165.167 42.4265C165.29 42.5489 165.437 42.6223 165.596 42.6345Z" fill="#263238"/>
<path d="M179.184 45.3504C178.731 45.2036 178.351 44.9956 177.959 44.8121C177.481 44.6898 177.052 44.4084 176.734 44.0169C176.587 43.7233 176.66 43.3685 176.905 43.1605C177.444 42.818 178.13 42.7813 178.694 43.0871C179.294 43.3073 179.797 43.7478 180.103 44.3105C180.275 44.6898 180.115 45.1424 179.736 45.3137C179.564 45.3994 179.368 45.4116 179.184 45.3504Z" fill="#263238"/>
<path d="M175.141 49.5469C175.141 49.5469 175.227 49.6325 175.215 49.6815C174.884 51.0027 174.725 52.5687 175.827 53.2661C175.827 53.2661 175.827 53.3639 175.827 53.3395C174.381 52.7767 174.614 50.7458 175.141 49.5469Z" fill="#263238"/>
<path d="M176.624 48.4212C178.793 48.727 178.021 53.0457 176.011 52.7643C174.002 52.4829 174.811 48.1643 176.624 48.4212Z" fill="#263238"/>
<path d="M177.444 48.8007C177.774 49.1066 178.068 49.6082 178.51 49.7305C178.951 49.8529 179.502 49.4981 179.931 49.131C179.931 49.131 180.004 49.131 179.992 49.131C179.857 49.963 179.392 50.746 178.473 50.7092C177.554 50.6725 177.248 49.8406 177.137 48.972C177.125 48.8741 177.309 48.6784 177.444 48.8007Z" fill="#263238"/>
<path d="M167.374 47.7363C167.374 47.7363 167.264 47.7363 167.251 47.8342C167.067 49.18 166.626 50.697 165.34 50.9294V51.0151C166.822 51.0518 167.423 49.1066 167.374 47.7363Z" fill="#263238"/>
<path d="M166.416 46.1345C164.284 45.6085 163.378 49.8904 165.35 50.392C167.323 50.8936 168.205 46.5872 166.416 46.1345Z" fill="#263238"/>
<path d="M165.461 46.2315C165.068 46.3905 164.652 46.7331 164.235 46.6719C163.819 46.6107 163.512 46.0602 163.304 45.5586C163.304 45.5586 163.304 45.5586 163.231 45.5586C163.034 46.3783 163.12 47.2836 163.88 47.6139C164.64 47.9442 165.252 47.3203 165.62 46.5373C165.681 46.4272 165.595 46.1703 165.461 46.2315Z" fill="#263238"/>
<path d="M172.299 60.5211C171.931 60.7902 171.551 61.1817 171.074 61.1695C170.571 61.0838 170.093 60.9003 169.665 60.6312C169.665 60.6312 169.579 60.6312 169.591 60.6312C169.91 61.2307 170.534 61.5977 171.208 61.5854C171.784 61.5243 172.274 61.1083 172.434 60.5455C172.421 60.5088 172.385 60.4844 172.348 60.4844C172.323 60.4966 172.311 60.5088 172.299 60.5211Z" fill="#263238"/>
<path d="M167.543 57.3641C167.911 58.2327 168.511 59.0034 169.258 59.5785C169.687 59.8721 170.19 60.0434 170.704 60.0434C171.844 60.0434 172.113 59.0646 172.138 58.1838C172.138 57.7189 172.089 57.2417 171.991 56.7891C170.606 57.4497 169.05 57.6577 167.543 57.3641Z" fill="#263238"/>
<path d="M169.273 59.5795C169.702 59.8731 170.205 60.0444 170.719 60.0444C171.859 60.0444 172.128 59.0657 172.153 58.1848C170.989 57.9402 169.8 58.5152 169.273 59.5795Z" fill="#FF9CBD"/>
<path d="M167.631 54.6353C167.3 55.5774 167.031 56.5439 166.798 57.5103C166.798 57.596 166.994 57.6816 167.313 57.7673C168.905 58.379 170.707 58.0487 171.981 56.9231C172.067 56.8375 171.981 56.7274 171.871 56.7641C170.511 57.3513 169.003 57.4859 167.558 57.1556C167.558 56.8864 168.783 53.8646 168.648 53.8279C167.901 53.7545 167.153 53.7789 166.418 53.9013C167.643 49.8273 169.567 45.9736 170.743 41.8996C170.78 41.8262 170.756 41.7528 170.682 41.7161C170.609 41.6794 170.535 41.7038 170.498 41.7773C168.342 45.839 166.59 50.1087 165.279 54.513C165.156 55.0513 167.227 54.721 167.631 54.6353Z" fill="#263238"/>
<path d="M192.05 55.2241C188.864 54.8449 189.465 48.1039 189.465 48.1039C189.465 48.1039 183.069 46.8804 182.799 37.2399C182.432 40.0293 182.885 42.8676 184.11 45.4001C184.11 45.4001 173.083 41.9501 170.216 31.5755C170.216 31.5755 171.147 36.7628 172.581 38.8181C169.897 37.3745 167.778 35.0623 166.577 32.2606C166.577 32.2606 163.514 37.3011 161.676 38.5001C161.676 38.5001 163.354 12.1722 186.843 25.5319C186.843 25.5319 197.221 27.5505 199.512 37.4112C201.803 47.2719 192.05 55.2241 192.05 55.2241Z" fill="#263238"/>
<path d="M192.442 62.0262C192.135 62.1118 191.817 62.1485 191.498 62.1485C191.18 62.1608 190.861 62.1241 190.555 62.0507C190.163 61.965 189.783 61.7815 189.464 61.5368C189.207 61.3411 188.986 61.1209 188.79 60.864C188.521 60.4969 188.313 60.081 188.178 59.6405L189.954 54.49C189.954 54.49 195.088 48.8745 197.686 50.8197C200.283 52.765 195.897 61.231 192.442 62.0262Z" fill="#FFC4C0"/>
<path d="M196.375 53.2055C196.375 53.2055 196.375 53.2789 196.375 53.2911C193.924 53.9273 192.454 55.9092 191.314 58.0257C191.939 57.206 193.103 57.0592 193.924 57.6831C193.998 57.7443 194.071 57.8055 194.145 57.8789C194.145 57.8789 194.145 58.0135 194.071 57.989C193.275 57.6097 192.319 57.781 191.706 58.4172C191.204 58.931 190.763 59.4938 190.383 60.1055C190.248 60.3013 189.893 60.1055 190.003 59.9098C190.346 56.9124 193.165 53.0953 196.375 53.2055Z" fill="#263238"/>
<path d="M192.271 61.1565C192.124 61.6336 191.621 61.915 191.143 61.7682C191.107 61.756 191.082 61.7437 191.045 61.7315C190.555 61.5725 190.286 61.0586 190.433 60.5693C190.433 60.5448 190.445 60.5326 190.457 60.5081C190.629 60.0187 191.168 59.7496 191.658 59.9208C191.67 59.9208 191.67 59.9331 191.682 59.9331C192.173 60.0799 192.442 60.5937 192.295 61.0709C192.295 61.1076 192.283 61.132 192.271 61.1565Z" fill="white"/>
<path d="M194.341 60.0193C194.206 60.3496 193.838 60.5209 193.495 60.3863C193.177 60.264 193.005 59.9092 193.115 59.5911C193.226 59.2486 193.593 59.0651 193.924 59.1629C194.267 59.273 194.451 59.6401 194.353 59.9704C194.353 59.9949 194.353 60.0071 194.341 60.0193Z" fill="white"/>
<path d="M192.258 28.9806C190.151 26.1668 191.4 17.6763 195.934 14.5444C202.158 10.2257 212.34 18.2146 208.579 25.8609C204.817 33.5073 193.888 31.1583 192.258 28.9806Z" fill="#263238"/>
<path d="M206.754 16.4411C204.941 14.7405 202.748 13.5049 200.346 12.8565C199.219 12.5751 198.03 12.624 196.928 13.0155C195.849 13.4315 194.918 14.1533 194.232 15.0953C193.509 16.0618 192.921 17.1262 192.48 18.2395C192.002 19.365 191.647 20.5395 191.438 21.7385C190.985 24.1853 191.267 26.7055 192.259 28.9811C190.801 26.8279 190.164 24.222 190.483 21.6406C190.617 20.3438 190.936 19.0714 191.402 17.848C191.855 16.6124 192.492 15.4501 193.276 14.3858C194.097 13.2602 195.237 12.4161 196.548 11.9389C197.859 11.523 199.268 11.523 200.579 11.9389C203.054 12.7708 205.21 14.349 206.754 16.4411Z" fill="#263238"/>
<path d="M74.9614 107.4C75.7088 107.351 76.3704 108.513 76.4562 109.981C76.542 111.462 76.0029 112.697 75.2554 112.746C74.508 112.795 73.8464 111.633 73.7606 110.165C73.6871 108.685 74.2262 107.449 74.9614 107.4Z" fill="#EBEBE9"/>
<path d="M64.5234 106.336L75.1098 107.4L75.4038 112.747L65.0013 115.193L64.5234 106.336Z" fill="#EBEBE9"/>
<path d="M64.6956 115.235C66.0879 115.168 67.1207 113.133 67.0024 110.69C66.8841 108.247 65.6594 106.321 64.2671 106.388C62.8748 106.455 61.842 108.49 61.9603 110.933C62.0786 113.376 63.3033 115.302 64.6956 115.235Z" fill="white"/>
<path d="M75.2429 116.796C75.9903 116.747 76.652 117.91 76.7378 119.378C76.8235 120.858 76.2844 122.094 75.537 122.143C74.7896 122.192 74.1279 121.029 74.0422 119.561C73.9564 118.081 74.4955 116.845 75.2429 116.796Z" fill="#EBEBE9"/>
<path d="M64.791 115.732L75.3896 116.797L75.6714 122.143L65.2689 124.578L64.791 115.732Z" fill="#EBEBE9"/>
<path d="M64.5215 115.768C65.906 115.683 67.1435 117.591 67.2783 120.026C67.4131 122.473 66.3961 124.528 64.9993 124.614C63.6025 124.699 62.3772 122.791 62.2425 120.356C62.1077 117.922 63.1247 115.866 64.5215 115.768Z" fill="white"/>
<path d="M70.3308 42.2046C71.0782 42.1557 71.7399 43.3179 71.8257 44.786C71.9114 46.2664 71.3723 47.502 70.6249 47.5509C69.8775 47.5999 69.2158 46.4376 69.1301 44.9695C69.0443 43.4892 69.5834 42.2536 70.3308 42.2046Z" fill="#EBEBE9"/>
<path d="M59.8789 41.1406L70.4775 42.205L70.7715 47.5513L60.3568 49.9981L59.8789 41.1406Z" fill="#EBEBE9"/>
<path d="M59.6093 41.1903C60.9939 41.1046 62.2314 43.0132 62.3662 45.4478C62.5009 47.8946 61.484 49.9499 60.0872 50.0356C58.7026 50.1212 57.4651 48.2127 57.3303 45.7781C57.2078 43.3312 58.2248 41.2759 59.6093 41.1903Z" fill="white"/>
<path d="M71.0535 51.6988C71.8009 51.6498 72.4625 52.8121 72.5483 54.2802C72.6341 55.7605 72.095 56.9961 71.3475 57.0451C70.6001 57.094 69.9385 55.9318 69.8527 54.4637C69.7669 52.9833 70.3061 51.7477 71.0535 51.6988Z" fill="#EBEBE9"/>
<path d="M60.6016 50.6348L71.2001 51.6991L71.4942 57.0455L61.0794 59.48L60.6016 50.6348Z" fill="#EBEBE9"/>
<path d="M60.332 50.6707C61.7165 50.5851 62.954 52.4936 63.0888 54.9282C63.2236 57.3751 62.2066 59.4304 60.8098 59.516C59.4253 59.6017 58.1878 57.6931 58.053 55.2585C57.9304 52.8239 58.9474 50.7686 60.332 50.6707Z" fill="white"/>
<path d="M71.6899 60.9976C72.4373 60.9486 73.099 62.1109 73.1847 63.579C73.2705 65.0593 72.7314 66.295 71.984 66.3439C71.2365 66.3928 70.5749 65.2306 70.4891 63.7625C70.4156 62.2822 70.9547 61.0465 71.6899 60.9976Z" fill="#EBEBE9"/>
<path d="M61.25 59.9336L71.8363 60.998L72.1304 66.3443L61.7279 68.7911L61.25 59.9336Z" fill="#EBEBE9"/>
<path d="M60.9687 59.9832C62.3532 59.8976 63.5908 61.8061 63.7255 64.2407C63.8603 66.6875 62.8433 68.7429 61.4465 68.8285C60.062 68.9142 58.8245 67.0056 58.6897 64.571C58.5672 62.1242 59.5841 60.0689 60.9687 59.9832Z" fill="white"/>
<path d="M72.448 70.0484C73.1954 69.9994 73.8571 71.1617 73.9428 72.6298C74.0286 74.1101 73.4895 75.3458 72.7421 75.3947C71.9947 75.4436 71.333 74.2814 71.2472 72.8133C71.1615 71.333 71.7006 70.0973 72.448 70.0484Z" fill="#EBEBE9"/>
<path d="M61.998 68.9844L72.5966 70.0487L72.8907 75.3951L62.4759 77.8297L61.998 68.9844Z" fill="#EBEBE9"/>
<path d="M61.7284 69.0223C63.1129 68.9367 64.3504 70.8452 64.4852 73.2798C64.62 75.7266 63.603 77.782 62.2062 77.8676C60.8217 77.9532 59.5841 76.0447 59.4494 73.6101C59.3146 71.1755 60.3438 69.1202 61.7284 69.0223Z" fill="white"/>
<path d="M73.0512 79.4195C73.7986 79.3705 74.4603 80.5328 74.5461 82.0009C74.6318 83.4812 74.0927 84.7168 73.3453 84.7658C72.5979 84.8147 71.9362 83.6525 71.8505 82.1844C71.7769 80.704 72.3161 79.4684 73.0512 79.4195Z" fill="#EBEBE9"/>
<path d="M62.6113 78.3555L73.1976 79.4198L73.4917 84.7662L63.0892 87.2008L62.6113 78.3555Z" fill="#EBEBE9"/>
<path d="M62.3299 78.3934C63.7145 78.3078 64.952 80.2163 65.0868 82.6509C65.2216 85.0855 64.2046 87.153 62.8078 87.2387C61.4232 87.3243 60.1857 85.4158 60.0509 82.9812C59.9161 80.5466 60.9454 78.4913 62.3299 78.3934Z" fill="white"/>
<path d="M73.8582 88.5835C74.6056 88.5346 75.2672 89.6968 75.353 91.1649C75.4265 92.6452 74.8996 93.8809 74.1522 93.9298C73.4048 93.9788 72.7432 92.8165 72.6574 91.3484C72.5716 89.8681 73.1108 88.6325 73.8582 88.5835Z" fill="#EBEBE9"/>
<path d="M63.4082 87.5195L74.0068 88.5839L74.3008 93.9302L63.8861 96.3648L63.4082 87.5195Z" fill="#EBEBE9"/>
<path d="M63.1385 87.5575C64.5231 87.4718 65.7606 89.3804 65.8954 91.8149C66.0302 94.2618 65.0132 96.3171 63.6164 96.4027C62.2318 96.4884 60.9943 94.5799 60.8595 92.1453C60.7247 89.7107 61.754 87.6553 63.1385 87.5575Z" fill="white"/>
<path d="M74.325 98.1031C75.0724 98.0541 75.734 99.2164 75.8198 100.684C75.9056 102.165 75.3664 103.4 74.619 103.449C73.8716 103.498 73.21 102.336 73.1242 100.868C73.0384 99.3876 73.5775 98.152 74.325 98.1031Z" fill="#EBEBE9"/>
<path d="M63.873 97.0391L74.4716 98.1034L74.7657 103.45L64.3509 105.884L63.873 97.0391Z" fill="#EBEBE9"/>
<path d="M63.6035 97.0887C64.988 97.0031 66.2255 98.9116 66.3603 101.346C66.4951 103.793 65.4781 105.848 64.0813 105.934C62.6968 106.02 61.4592 104.111 61.3245 101.677C61.2019 99.2297 62.2189 97.1743 63.6035 97.0887Z" fill="white"/>
<path d="M96.3188 32.9817L75.5505 34.3397C70.1961 34.6945 66.1527 40.5424 66.5325 47.418L70.2696 116.749C70.6372 123.624 75.2809 128.91 80.6354 128.555C81.395 128.506 82.0689 129.264 82.1179 130.243L103.756 451.353L122.981 441.7L101.747 128.848C101.673 127.943 102.139 127.136 102.837 126.952C107.469 125.753 110.777 120.358 110.434 114.106L106.697 44.7754C106.317 37.9121 101.673 32.6269 96.3188 32.9817Z" fill="#37474F"/>
<path d="M79.9734 108.601C80.7208 108.552 81.3825 109.714 81.4682 111.183C81.554 112.663 81.0149 113.898 80.2675 113.947C79.5201 113.996 78.8584 112.834 78.7726 111.366C78.6869 109.886 79.226 108.65 79.9734 108.601Z" fill="#EBEBE9"/>
<path d="M69.5215 107.537L80.1201 108.601L80.4019 113.948L69.9993 116.395L69.5215 107.537Z" fill="#EBEBE9"/>
<path d="M69.2519 107.585C70.6365 107.499 71.874 109.408 72.0088 111.842C72.1436 114.289 71.1266 116.344 69.7298 116.43C68.333 116.516 67.1077 114.607 66.9729 112.173C66.8381 109.738 67.8551 107.67 69.2519 107.585Z" fill="white"/>
<path d="M80.241 117.998C80.9884 117.949 81.65 119.111 81.7358 120.579C81.8093 122.059 81.2825 123.295 80.535 123.344C79.7876 123.393 79.126 122.231 79.0402 120.762C78.9544 119.282 79.4936 118.047 80.241 117.998Z" fill="#EBEBE9"/>
<path d="M69.791 116.934L80.3896 117.998L80.6837 123.344L70.2689 125.779L69.791 116.934Z" fill="#EBEBE9"/>
<path d="M69.5213 116.972C70.9059 116.886 72.1434 118.794 72.2782 121.229C72.413 123.676 71.396 125.731 69.9992 125.817C68.6146 125.902 67.3771 123.994 67.2423 121.559C67.1076 119.125 68.1368 117.069 69.5213 116.972Z" fill="white"/>
<path d="M75.3305 43.4058C76.0779 43.3569 76.7396 44.5191 76.8253 45.9872C76.9111 47.4675 76.372 48.7032 75.6246 48.7521C74.8772 48.801 74.2155 47.6388 74.1298 46.1707C74.0562 44.6904 74.5954 43.4547 75.3305 43.4058Z" fill="#EBEBE9"/>
<path d="M64.8906 42.3418L75.4892 43.4062L75.771 48.7525L65.3685 51.1993L64.8906 42.3418Z" fill="#EBEBE9"/>
<path d="M64.6093 42.3895C65.9939 42.3039 67.2314 44.2124 67.3662 46.647C67.5009 49.0938 66.484 51.1491 65.0872 51.2348C63.7026 51.3204 62.4651 49.4119 62.3303 46.9773C62.2078 44.5305 63.2248 42.4751 64.6093 42.3895Z" fill="white"/>
<path d="M76.0532 52.8999C76.8006 52.851 77.4622 54.0132 77.548 55.4813C77.6338 56.9617 77.0947 58.1973 76.3472 58.2462C75.5998 58.2952 74.9382 57.1329 74.8524 55.6648C74.7789 54.1845 75.318 52.9489 76.0532 52.8999Z" fill="#EBEBE9"/>
<path d="M65.6133 51.8359L76.1996 52.9003L76.4937 58.2466L66.0911 60.6812L65.6133 51.8359Z" fill="#EBEBE9"/>
<path d="M65.332 51.8739C66.7165 51.7882 67.954 53.6968 68.0888 56.1313C68.2236 58.5782 67.2066 60.6335 65.8098 60.7191C64.4253 60.8048 63.1878 58.8963 63.053 56.4617C62.9304 54.0271 63.9474 51.9717 65.332 51.8739Z" fill="white"/>
<path d="M76.7039 62.1988C77.4513 62.1498 78.1129 63.3121 78.1987 64.7802C78.2845 66.2605 77.7453 67.4961 76.9979 67.5451C76.2505 67.594 75.5889 66.4318 75.5031 64.9637C75.4173 63.4833 75.9565 62.2477 76.7039 62.1988Z" fill="#EBEBE9"/>
<path d="M66.252 61.1328L76.8505 62.1972L77.1323 67.5435L66.7298 69.9903L66.252 61.1328Z" fill="#EBEBE9"/>
<path d="M66.4261 70.022C67.8184 69.9548 68.8512 67.9199 68.7328 65.4769C68.6145 63.0339 67.3899 61.1079 65.9976 61.1751C64.6053 61.2424 63.5725 63.2773 63.6908 65.7203C63.8091 68.1633 65.0337 70.0893 66.4261 70.022Z" fill="white"/>
<path d="M77.4519 71.2515C78.1993 71.2026 78.861 72.3648 78.9467 73.8329C79.0325 75.3132 78.4934 76.5489 77.746 76.5978C76.9986 76.6468 76.3369 75.4845 76.2512 74.0164C76.1654 72.5361 76.7045 71.3004 77.4519 71.2515Z" fill="#EBEBE9"/>
<path d="M67.0117 70.1758L77.598 71.2524L77.8921 76.5987L67.4896 79.0333L67.0117 70.1758Z" fill="#EBEBE9"/>
<path d="M66.7304 70.2254C68.115 70.1398 69.3525 72.0483 69.4873 74.4829C69.622 76.9297 68.6051 78.9851 67.2083 79.0707C65.8237 79.1563 64.5862 77.2478 64.4514 74.8132C64.3289 72.3664 65.3459 70.3111 66.7304 70.2254Z" fill="white"/>
<path d="M78.0633 80.6226C78.8107 80.5736 79.4723 81.7359 79.5581 83.204C79.6438 84.6843 79.1047 85.92 78.3573 85.9689C77.6099 86.0178 76.9483 84.8556 76.8625 83.3875C76.7767 81.9072 77.3158 80.6593 78.0633 80.6226Z" fill="#EBEBE9"/>
<path d="M67.6113 79.5469L78.2099 80.6235L78.4917 85.9576L68.0892 88.4044L67.6113 79.5469Z" fill="#EBEBE9"/>
<path d="M67.3418 79.5965C68.7263 79.5109 69.9638 81.4194 70.0986 83.854C70.2334 86.3008 69.2164 88.3562 67.8196 88.4418C66.4351 88.5274 65.1975 86.6189 65.0628 84.1843C64.928 81.7375 65.945 79.6822 67.3418 79.5965Z" fill="white"/>
<path d="M78.8598 89.7847C79.6072 89.7358 80.2689 90.898 80.3546 92.3661C80.4404 93.8464 79.9013 95.0821 79.1539 95.131C78.4065 95.18 77.7448 94.0177 77.6591 92.5496C77.5855 91.0693 78.1247 89.8336 78.8598 89.7847Z" fill="#EBEBE9"/>
<path d="M68.4219 88.7207L79.0082 89.7851L79.3023 95.1314L68.8997 97.566L68.4219 88.7207Z" fill="#EBEBE9"/>
<path d="M68.594 97.608C69.9863 97.5407 71.0191 95.5058 70.9008 93.0628C70.7825 90.6198 69.5579 88.6939 68.1656 88.7611C66.7732 88.8283 65.7404 90.8632 65.8588 93.3063C65.9771 95.7493 67.2017 97.6752 68.594 97.608Z" fill="white"/>
<path d="M79.3247 99.3023C80.0721 99.2533 80.7337 100.416 80.8195 101.884C80.9053 103.364 80.3661 104.6 79.6187 104.649C78.8713 104.698 78.2097 103.535 78.1239 102.067C78.0504 100.587 78.5895 99.3512 79.3247 99.3023Z" fill="#EBEBE9"/>
<path d="M68.8867 98.2383L79.4853 99.3026L79.7671 104.649L69.3646 107.084L68.8867 98.2383Z" fill="#EBEBE9"/>
<path d="M68.6035 98.2762C69.988 98.1906 71.2255 100.099 71.3603 102.534C71.4951 104.968 70.4781 107.036 69.0813 107.121C67.6968 107.207 66.4592 105.299 66.3245 102.864C66.2019 100.429 67.2189 98.3741 68.6035 98.2762Z" fill="white"/>
<path d="M84.1528 105.212C84.9002 105.163 85.5618 106.326 85.6476 107.794C85.7334 109.274 85.1943 110.51 84.4469 110.559C83.6994 110.608 83.0378 109.445 82.952 107.977C82.8785 106.497 83.4176 105.261 84.1528 105.212Z" fill="#EBEBE9"/>
<path d="M73.7129 104.148L84.2992 105.213L84.5933 110.559L74.1907 113.006L73.7129 104.148Z" fill="#EBEBE9"/>
<path d="M73.4315 104.198C74.816 104.112 76.0536 106.021 76.1883 108.456C76.3231 110.902 75.3062 112.958 73.9093 113.043C72.5248 113.129 71.2873 111.22 71.1525 108.786C71.0177 106.351 72.0469 104.284 73.4315 104.198Z" fill="white"/>
<path d="M84.4223 114.609C85.1697 114.56 85.8314 115.722 85.9171 117.19C86.0029 118.671 85.4638 119.906 84.7164 119.955C83.969 120.004 83.3073 118.842 83.2216 117.374C83.148 115.893 83.6872 114.658 84.4223 114.609Z" fill="#EBEBE9"/>
<path d="M73.9824 113.545L84.581 114.609L84.8628 119.956L74.4603 122.39L73.9824 113.545Z" fill="#EBEBE9"/>
<path d="M73.7129 113.581C75.0974 113.495 76.3349 115.404 76.4697 117.838C76.6045 120.285 75.5875 122.341 74.1907 122.426C72.8062 122.512 71.5686 120.603 71.4339 118.169C71.2991 115.734 72.3161 113.679 73.7129 113.581Z" fill="white"/>
<path d="M79.5203 40.0171C80.2677 39.9682 80.9293 41.1304 81.0151 42.5985C81.1009 44.0788 80.5618 45.3145 79.8143 45.3634C79.0669 45.4124 78.4053 44.2501 78.3195 42.782C78.2337 41.3017 78.7729 40.0661 79.5203 40.0171Z" fill="#EBEBE9"/>
<path d="M69.0684 38.9531L79.6669 40.0175L79.961 45.3638L69.5462 47.7984L69.0684 38.9531Z" fill="#EBEBE9"/>
<path d="M68.7988 39.0028C70.1833 38.9171 71.4208 40.8257 71.5556 43.2603C71.6904 45.7071 70.6734 47.7624 69.2766 47.8481C67.8798 47.9337 66.6545 46.0252 66.5198 43.5906C66.3972 41.1437 67.4142 39.0884 68.7988 39.0028Z" fill="white"/>
<path d="M80.2429 49.5113C80.9903 49.4623 81.652 50.6246 81.7378 52.0927C81.8235 53.573 81.2844 54.8086 80.537 54.8576C79.7896 54.9065 79.1279 53.7443 79.0422 52.2762C78.9564 50.7958 79.4955 49.5602 80.2429 49.5113Z" fill="#EBEBE9"/>
<path d="M69.791 48.4473L80.3896 49.5116L80.6837 54.858L70.2689 57.2926L69.791 48.4473Z" fill="#EBEBE9"/>
<path d="M69.5214 48.4832C70.906 48.3976 72.1435 50.3061 72.2783 52.7407C72.4131 55.1753 71.3961 57.2429 69.9993 57.3285C68.6025 57.4142 67.3772 55.5056 67.2424 53.071C67.1199 50.6365 68.1369 48.5811 69.5214 48.4832Z" fill="white"/>
<path d="M80.8814 58.8101C81.6288 58.7611 82.2905 59.9234 82.3763 61.3915C82.462 62.8718 81.9229 64.1075 81.1755 64.1564C80.4281 64.2053 79.7664 63.0431 79.6807 61.575C79.6072 60.0947 80.134 58.859 80.8814 58.8101Z" fill="#EBEBE9"/>
<path d="M70.4414 57.7461L81.0277 58.8105L81.3218 64.1568L70.9193 66.5914L70.4414 57.7461Z" fill="#EBEBE9"/>
<path d="M70.1601 57.7957C71.5447 57.7101 72.7822 59.6186 72.917 62.0532C73.0517 64.5001 72.0348 66.5554 70.638 66.641C69.2411 66.7267 68.0159 64.8181 67.8811 62.3835C67.7586 59.9367 68.7755 57.8814 70.1601 57.7957Z" fill="white"/>
<path d="M81.6394 67.8609C82.3868 67.8119 83.0485 68.9742 83.1342 70.4423C83.2078 71.9226 82.6809 73.1583 81.9335 73.2072C81.1861 73.2561 80.5244 72.0939 80.4387 70.6258C80.3529 69.1454 80.892 67.9098 81.6394 67.8609Z" fill="#EBEBE9"/>
<path d="M71.1895 66.7852L81.788 67.8618L82.0698 73.2081L71.6673 75.6427L71.1895 66.7852Z" fill="#EBEBE9"/>
<path d="M70.9198 66.8348C72.3043 66.7492 73.5418 68.6577 73.6766 71.0923C73.8114 73.5269 72.7944 75.5944 71.3976 75.6801C70.0008 75.7657 68.7756 73.8572 68.6408 71.4226C68.506 68.9758 69.5352 66.9204 70.9198 66.8348Z" fill="white"/>
<path d="M82.2408 77.2202C82.9882 77.1713 83.6499 78.3336 83.7356 79.8017C83.8214 81.282 83.2823 82.5176 82.5349 82.5666C81.7875 82.6155 81.1258 81.4533 81.04 79.9852C80.9665 78.5048 81.4934 77.2692 82.2408 77.2202Z" fill="#EBEBE9"/>
<path d="M71.8008 76.1562L82.3871 77.2206L82.6812 82.5669L72.2786 85.0138L71.8008 76.1562Z" fill="#EBEBE9"/>
<path d="M71.5195 76.2059C72.904 76.1203 74.1415 78.0288 74.2763 80.4634C74.4111 82.9102 73.3941 84.9655 71.9973 85.0512C70.6128 85.1368 69.3753 83.2283 69.2405 80.7937C69.1179 78.3469 70.1349 76.2915 71.5195 76.2059Z" fill="white"/>
<path d="M83.0496 86.396C83.797 86.3471 84.4586 87.5093 84.5444 88.9774C84.6302 90.4578 84.0911 91.6934 83.3436 91.7423C82.5962 91.7913 81.9346 90.629 81.8488 89.1609C81.763 87.6806 82.3022 86.445 83.0496 86.396Z" fill="#EBEBE9"/>
<path d="M72.5977 85.3203L83.1962 86.3969L83.4903 91.7432L73.0755 94.1778L72.5977 85.3203Z" fill="#EBEBE9"/>
<path d="M72.3281 85.37C73.7126 85.2843 74.9501 87.1929 75.0849 89.6274C75.2197 92.0743 74.2027 94.1296 72.8059 94.2153C71.4214 94.3009 70.1838 92.3924 70.0491 89.9578C69.9265 87.5109 70.9435 85.4556 72.3281 85.37Z" fill="white"/>
<path d="M83.5144 95.9156C84.2618 95.8666 84.9235 97.0289 85.0092 98.497C85.0828 99.9773 84.5559 101.213 83.8085 101.262C83.0611 101.311 82.3994 100.149 82.3137 98.6805C82.2279 97.2001 82.767 95.9645 83.5144 95.9156Z" fill="#EBEBE9"/>
<path d="M73.0625 94.8516L83.6611 95.9159L83.9551 101.262L73.5404 103.697L73.0625 94.8516Z" fill="#EBEBE9"/>
<path d="M72.7928 94.8895C74.1774 94.8039 75.4149 96.7124 75.5497 99.147C75.6845 101.594 74.6675 103.649 73.2707 103.735C71.8861 103.82 70.6486 101.912 70.5138 99.4773C70.379 97.0427 71.4083 94.9874 72.7928 94.8895Z" fill="white"/>
<path d="M90.0086 107.72C90.756 107.671 91.4176 108.834 91.5034 110.302C91.5769 111.782 91.05 113.018 90.3026 113.067C89.5552 113.115 88.8936 111.953 88.8078 110.485C88.722 109.005 89.2611 107.769 90.0086 107.72Z" fill="#EBEBE9"/>
<path d="M79.5566 106.656L90.1552 107.721L90.437 113.067L80.0345 115.514L79.5566 106.656Z" fill="#EBEBE9"/>
<path d="M79.2871 106.706C80.6716 106.62 81.9092 108.529 82.0439 110.963C82.1787 113.41 81.1617 115.466 79.7649 115.551C78.3804 115.637 77.1429 113.728 77.0081 111.294C76.8733 108.847 77.8903 106.792 79.2871 106.706Z" fill="white"/>
<path d="M90.2761 117.117C91.0235 117.068 91.6852 118.23 91.771 119.698C91.8567 121.178 91.3176 122.414 90.5702 122.463C89.8228 122.512 89.1611 121.35 89.0754 119.882C88.9896 118.401 89.5287 117.166 90.2761 117.117Z" fill="#EBEBE9"/>
<path d="M79.8262 116.053L90.4247 117.117L90.7066 122.463L80.304 124.898L79.8262 116.053Z" fill="#EBEBE9"/>
<path d="M79.5565 116.089C80.941 116.003 82.1786 117.912 82.3133 120.346C82.4481 122.793 81.4312 124.848 80.0343 124.934C78.6498 125.02 77.4123 123.111 77.2775 120.677C77.1427 118.242 78.1719 116.187 79.5565 116.089Z" fill="white"/>
<path d="M85.3657 42.5249C86.1131 42.476 86.7747 43.6382 86.8605 45.1063C86.9463 46.5867 86.4071 47.8223 85.6597 47.8712C84.9123 47.9202 84.2507 46.7579 84.1649 45.2898C84.0914 43.8095 84.6305 42.5739 85.3657 42.5249Z" fill="#EBEBE9"/>
<path d="M74.9258 41.4609L85.5121 42.5253L85.8062 47.8716L75.4036 50.3062L74.9258 41.4609Z" fill="#EBEBE9"/>
<path d="M74.6445 41.5106C76.029 41.4249 77.2665 43.3335 77.4013 45.7681C77.5361 48.2149 76.5191 50.2702 75.1223 50.3559C73.7378 50.4415 72.5003 48.533 72.3655 46.0984C72.2429 43.6516 73.2599 41.5962 74.6445 41.5106Z" fill="white"/>
<path d="M86.0883 52.0191C86.8357 51.9701 87.4974 53.1324 87.5832 54.6005C87.6567 56.0808 87.1298 57.3164 86.3824 57.3654C85.635 57.4143 84.9733 56.2521 84.8876 54.784C84.8141 53.3037 85.3532 52.068 86.0883 52.0191Z" fill="#EBEBE9"/>
<path d="M75.6484 50.9551L86.2348 52.0194L86.5288 57.3658L76.1263 59.8004L75.6484 50.9551Z" fill="#EBEBE9"/>
<path d="M75.367 50.9911C76.7516 50.9054 77.9891 52.8139 78.1239 55.2485C78.2587 57.6954 77.2417 59.7507 75.8449 59.8363C74.4603 59.922 73.2228 58.0135 73.088 55.5789C72.9533 53.1443 73.9825 51.0889 75.367 50.9911Z" fill="white"/>
<path d="M86.727 61.3179C87.4744 61.269 88.1361 62.4312 88.2218 63.8993C88.2953 65.3796 87.7685 66.6153 87.0211 66.6642C86.2737 66.7132 85.612 65.5509 85.5262 64.0828C85.4527 62.6025 85.9918 61.3668 86.727 61.3179Z" fill="#EBEBE9"/>
<path d="M76.2871 60.2539L86.8857 61.3183L87.1675 66.6646L76.765 69.0992L76.2871 60.2539Z" fill="#EBEBE9"/>
<path d="M76.0175 60.3036C77.4021 60.2179 78.6396 62.1264 78.7744 64.561C78.9092 67.0079 77.8922 69.0632 76.4954 69.1488C75.0986 69.2345 73.8733 67.3259 73.7386 64.8914C73.6038 62.4568 74.6207 60.3892 76.0175 60.3036Z" fill="white"/>
<path d="M87.4871 70.3687C88.2345 70.3197 88.8961 71.482 88.9819 72.9501C89.0677 74.4304 88.5286 75.6661 87.7811 75.715C87.0337 75.7639 86.3721 74.6017 86.2863 73.1336C86.2005 71.6533 86.7397 70.4176 87.4871 70.3687Z" fill="#EBEBE9"/>
<path d="M77.0352 69.293L87.6337 70.3696L87.9278 75.7159L77.513 78.1505L77.0352 69.293Z" fill="#EBEBE9"/>
<path d="M76.7656 69.3426C78.1501 69.257 79.3876 71.1655 79.5224 73.6001C79.6572 76.0347 78.6402 78.1023 77.2434 78.1879C75.8589 78.2735 74.6213 76.365 74.4866 73.9304C74.364 71.4836 75.381 69.4283 76.7656 69.3426Z" fill="white"/>
<path d="M88.0864 79.7281C88.8338 79.6791 89.4954 80.8414 89.5812 82.3095C89.667 83.7898 89.1279 85.0254 88.3804 85.0744C87.633 85.1233 86.9714 83.9611 86.8856 82.493C86.8121 81.0126 87.3512 79.777 88.0864 79.7281Z" fill="#EBEBE9"/>
<path d="M77.6465 78.6641L88.2451 79.7284L88.5269 85.0747L78.1243 87.5216L77.6465 78.6641Z" fill="#EBEBE9"/>
<path d="M77.3769 78.7137C78.7615 78.6281 79.999 80.5366 80.1338 82.9712C80.2686 85.418 79.2516 87.4734 77.8548 87.559C76.458 87.6446 75.2327 85.7361 75.0979 83.3015C74.9631 80.8547 75.9801 78.7993 77.3769 78.7137Z" fill="white"/>
<path d="M88.893 88.9038C89.6404 88.8549 90.3021 90.0171 90.3878 91.4852C90.4736 92.9656 89.9345 94.2012 89.1871 94.2502C88.4397 94.2991 87.778 93.1368 87.6923 91.6688C87.6187 90.1884 88.1579 88.9528 88.893 88.9038Z" fill="#EBEBE9"/>
<path d="M78.4531 87.8281L89.0394 88.9047L89.3335 94.2511L78.931 96.6856L78.4531 87.8281Z" fill="#EBEBE9"/>
<path d="M78.1718 87.8778C79.5564 87.7921 80.7939 89.7007 80.9287 92.1352C81.0634 94.5821 80.0465 96.6374 78.6497 96.723C77.2651 96.8087 76.0276 94.9002 75.8928 92.4656C75.7703 90.0187 76.7873 87.9634 78.1718 87.8778Z" fill="white"/>
<path d="M89.3598 98.4234C90.1072 98.3744 90.7689 99.5367 90.8546 101.005C90.9404 102.485 90.4013 103.721 89.6539 103.77C88.9065 103.819 88.2448 102.656 88.1591 101.188C88.0855 99.708 88.6247 98.4723 89.3598 98.4234Z" fill="#EBEBE9"/>
<path d="M78.9219 97.3594L89.5082 98.4237L89.8023 103.77L79.3997 106.205L78.9219 97.3594Z" fill="#EBEBE9"/>
<path d="M78.6386 97.3973C80.0232 97.3117 81.2607 99.2202 81.3955 101.655C81.5302 104.102 80.5133 106.157 79.1165 106.243C77.7319 106.328 76.4944 104.42 76.3596 101.985C76.2371 99.5505 77.2541 97.4952 78.6386 97.3973Z" fill="white"/>
<path d="M94.1863 104.33C94.9337 104.281 95.5953 105.443 95.6811 106.911C95.7669 108.391 95.2278 109.627 94.4804 109.676C93.7329 109.725 93.0713 108.563 92.9855 107.095C92.8998 105.614 93.4389 104.379 94.1863 104.33Z" fill="#EBEBE9"/>
<path d="M83.7461 103.266L94.3324 104.33L94.6265 109.676L84.2239 112.123L83.7461 103.266Z" fill="#EBEBE9"/>
<path d="M83.4648 103.315C84.8493 103.23 86.0869 105.138 86.2216 107.573C86.3564 110.02 85.3394 112.075 83.9426 112.161C82.5581 112.246 81.3206 110.338 81.1858 107.903C81.0633 105.456 82.0802 103.401 83.4648 103.315Z" fill="white"/>
<path d="M94.4555 113.724C95.2029 113.675 95.8646 114.837 95.9503 116.306C96.0361 117.786 95.497 119.022 94.7496 119.07C94.0022 119.119 93.3405 117.957 93.2548 116.489C93.1812 115.009 93.7204 113.773 94.4555 113.724Z" fill="#EBEBE9"/>
<path d="M84.0156 112.648L94.6142 113.725L94.896 119.071L84.4935 121.506L84.0156 112.648Z" fill="#EBEBE9"/>
<path d="M83.7343 112.698C85.1189 112.612 86.3564 114.521 86.4912 116.956C86.6259 119.402 85.609 121.458 84.2122 121.543C82.8276 121.629 81.5901 119.72 81.4553 117.286C81.3328 114.839 82.3498 112.784 83.7343 112.698Z" fill="white"/>
<path d="M89.5554 39.1343C90.3028 39.0854 90.9645 40.2476 91.0503 41.7157C91.1238 43.196 90.5969 44.4317 89.8495 44.4806C89.1021 44.5296 88.4404 43.3673 88.3547 41.8992C88.2689 40.4189 88.808 39.1832 89.5554 39.1343Z" fill="#EBEBE9"/>
<path d="M79.1035 38.0703L89.7021 39.1347L89.9961 44.481L79.5814 46.9156L79.1035 38.0703Z" fill="#EBEBE9"/>
<path d="M78.8339 38.12C80.2185 38.0343 81.456 39.9428 81.5908 42.3774C81.7256 44.8243 80.7086 46.8796 79.3118 46.9652C77.9272 47.0509 76.6897 45.1424 76.5549 42.7078C76.4324 40.2609 77.4494 38.2056 78.8339 38.12Z" fill="white"/>
<path d="M90.2781 48.6284C91.0255 48.5795 91.6871 49.7418 91.7729 51.2098C91.8587 52.6902 91.3196 53.9258 90.5722 53.9748C89.8247 54.0237 89.1631 52.8615 89.0773 51.3934C88.9916 49.913 89.5307 48.6774 90.2781 48.6284Z" fill="#EBEBE9"/>
<path d="M79.8262 47.5645L90.4247 48.6288L90.7188 53.9751L80.304 56.4097L79.8262 47.5645Z" fill="#EBEBE9"/>
<path d="M79.5566 47.6004C80.9411 47.5148 82.1787 49.4233 82.3134 51.8579C82.4482 54.3047 81.4312 56.3601 80.0344 56.4457C78.6499 56.5313 77.4124 54.6228 77.2776 52.1882C77.1551 49.7536 78.172 47.6983 79.5566 47.6004Z" fill="white"/>
<path d="M90.9168 57.9273C91.6642 57.8783 92.3258 59.0406 92.4116 60.5087C92.4974 61.989 91.9582 63.2247 91.2108 63.2736C90.4634 63.3225 89.8018 62.1603 89.716 60.6922C89.6302 59.2119 90.1693 57.9762 90.9168 57.9273Z" fill="#EBEBE9"/>
<path d="M80.4766 56.8633L91.0629 57.9276L91.3569 63.274L80.9544 65.7086L80.4766 56.8633Z" fill="#EBEBE9"/>
<path d="M80.1953 56.9129C81.5798 56.8273 82.8173 58.7358 82.9521 61.1704C83.0869 63.6172 82.0699 65.6726 80.6731 65.7582C79.2886 65.8438 78.051 63.9353 77.9163 61.5007C77.7937 59.0539 78.8107 56.9986 80.1953 56.9129Z" fill="white"/>
<path d="M91.6765 66.9781C92.4239 66.9291 93.0856 68.0914 93.1714 69.5595C93.2571 71.0398 92.718 72.2754 91.9706 72.3244C91.2232 72.3733 90.5615 71.2111 90.4758 69.743C90.39 68.2626 90.9291 67.0148 91.6765 66.9781Z" fill="#EBEBE9"/>
<path d="M81.2246 65.9023L91.8232 66.9789L92.105 72.3253L81.7025 74.7599L81.2246 65.9023Z" fill="#EBEBE9"/>
<path d="M80.955 65.952C82.3396 65.8664 83.5771 67.7749 83.7119 70.2095C83.8467 72.6563 82.8297 74.7116 81.4329 74.7973C80.0484 74.8829 78.8108 72.9744 78.6761 70.5398C78.5413 68.093 79.5582 66.0376 80.955 65.952Z" fill="white"/>
<path d="M92.2761 76.3374C93.0235 76.2885 93.6852 77.4507 93.771 78.9188C93.8567 80.3992 93.3176 81.6348 92.5702 81.6837C91.8228 81.7327 91.1611 80.5704 91.0754 79.1023C90.9896 77.622 91.5287 76.3864 92.2761 76.3374Z" fill="#EBEBE9"/>
<path d="M81.8359 75.2734L92.4223 76.3378L92.7163 81.6841L82.3138 84.131L81.8359 75.2734Z" fill="#EBEBE9"/>
<path d="M81.5546 75.3231C82.9392 75.2374 84.1767 77.146 84.3115 79.5806C84.4463 82.0274 83.4293 84.0827 82.0325 84.1684C80.6479 84.254 79.4104 82.3455 79.2756 79.9109C79.1531 77.4641 80.1701 75.4087 81.5546 75.3231Z" fill="white"/>
<path d="M93.0847 85.5132C93.8321 85.4643 94.4938 86.6265 94.5796 88.0946C94.6653 89.5749 94.1262 90.8106 93.3788 90.8595C92.6314 90.9085 91.9697 89.7462 91.884 88.2781C91.7982 86.7978 92.3373 85.5621 93.0847 85.5132Z" fill="#EBEBE9"/>
<path d="M82.6328 84.4375L93.2314 85.5141L93.5254 90.8604L83.1107 93.295L82.6328 84.4375Z" fill="#EBEBE9"/>
<path d="M82.3632 84.4871C83.7478 84.4015 84.9853 86.31 85.1201 88.7446C85.2549 91.1915 84.2379 93.2468 82.8411 93.3324C81.4443 93.4181 80.219 91.5095 80.0842 89.0749C79.9617 86.6281 80.9787 84.5728 82.3632 84.4871Z" fill="white"/>
<path d="M93.5496 95.0327C94.297 94.9838 94.9586 96.146 95.0444 97.6141C95.1302 99.0945 94.591 100.33 93.8436 100.379C93.0962 100.428 92.4346 99.2657 92.3488 97.7977C92.263 96.3173 92.8022 95.0817 93.5496 95.0327Z" fill="#EBEBE9"/>
<path d="M83.0977 93.9688L93.6962 95.0331L93.9903 100.379L83.5755 102.814L83.0977 93.9688Z" fill="#EBEBE9"/>
<path d="M82.8281 94.0067C84.2126 93.921 85.4501 95.8296 85.5849 98.2642C85.7197 100.711 84.7027 102.766 83.3059 102.852C81.9214 102.938 80.6838 101.029 80.5491 98.5945C80.4265 96.1599 81.4435 94.1046 82.8281 94.0067Z" fill="white"/>
<path d="M99.6394 105.408C100.387 105.359 101.048 106.521 101.134 107.989C101.22 109.469 100.681 110.705 99.9335 110.754C99.1861 110.803 98.5244 109.641 98.4387 108.173C98.3529 106.692 98.892 105.457 99.6394 105.408Z" fill="#EBEBE9"/>
<path d="M89.1895 104.344L99.788 105.408L100.07 110.754L89.6673 113.189L89.1895 104.344Z" fill="#EBEBE9"/>
<path d="M88.9198 104.393C90.3043 104.308 91.5418 106.216 91.6766 108.651C91.8114 111.098 90.7944 113.153 89.3976 113.239C88.0008 113.324 86.7756 111.416 86.6408 108.981C86.506 106.534 87.5352 104.479 88.9198 104.393Z" fill="white"/>
<path d="M99.9089 114.802C100.656 114.753 101.318 115.916 101.404 117.384C101.49 118.864 100.95 120.1 100.203 120.149C99.4556 120.198 98.794 119.035 98.7082 117.567C98.6224 116.087 99.1615 114.851 99.9089 114.802Z" fill="#EBEBE9"/>
<path d="M89.457 113.727L100.056 114.803L100.35 120.149L89.9349 122.584L89.457 113.727Z" fill="#EBEBE9"/>
<path d="M89.1874 113.776C90.572 113.691 91.8095 115.599 91.9443 118.034C92.0791 120.481 91.0621 122.536 89.6653 122.621C88.2807 122.707 87.0432 120.799 86.9084 118.364C86.7859 115.917 87.8029 113.862 89.1874 113.776Z" fill="white"/>
<path d="M95.0086 40.2124C95.756 40.1635 96.4176 41.3257 96.5034 42.7938C96.5892 44.2742 96.05 45.5098 95.3026 45.5587C94.5552 45.6077 93.8936 44.4454 93.8078 42.9773C93.722 41.497 94.2611 40.2614 95.0086 40.2124Z" fill="#EBEBE9"/>
<path d="M84.5566 39.1484L95.1552 40.2128L95.437 45.5591L85.0345 47.9937L84.5566 39.1484Z" fill="#EBEBE9"/>
<path d="M84.2871 39.1864C85.6716 39.1007 86.9092 41.0093 87.0439 43.4438C87.1787 45.8907 86.1617 47.946 84.7649 48.0316C83.3804 48.1173 82.1429 46.2088 82.0081 43.7742C81.8733 41.3396 82.8903 39.2842 84.2871 39.1864Z" fill="white"/>
<path d="M95.7312 49.7066C96.4786 49.6576 97.1403 50.8199 97.226 52.288C97.3118 53.7683 96.7727 55.004 96.0253 55.0529C95.2779 55.1018 94.6162 53.9396 94.5305 52.4715C94.4447 50.9912 94.9838 49.7555 95.7312 49.7066Z" fill="#EBEBE9"/>
<path d="M85.2793 48.6426L95.8779 49.707L96.1597 55.0533L85.7572 57.4879L85.2793 48.6426Z" fill="#EBEBE9"/>
<path d="M85.0097 48.6786C86.3943 48.5929 87.6318 50.5014 87.7666 52.936C87.9014 55.3829 86.8844 57.4382 85.4876 57.5238C84.103 57.6095 82.8655 55.7009 82.7307 53.2664C82.596 50.8318 83.6129 48.7764 85.0097 48.6786Z" fill="white"/>
<path d="M96.366 59.0054C97.1134 58.9565 97.775 60.1187 97.8608 61.5868C97.9466 63.0671 97.4075 64.3028 96.66 64.3517C95.9126 64.4006 95.251 63.2384 95.1652 61.7703C95.0795 60.29 95.6186 59.0543 96.366 59.0054Z" fill="#EBEBE9"/>
<path d="M85.916 57.9414L96.5146 59.0058L96.7964 64.3521L86.3939 66.7867L85.916 57.9414Z" fill="#EBEBE9"/>
<path d="M85.6463 57.9793C87.0309 57.8937 88.2684 59.8022 88.4032 62.2368C88.538 64.6836 87.521 66.739 86.1242 66.8246C84.7274 66.9103 83.5021 65.0017 83.3673 62.5671C83.2326 60.1325 84.2618 58.0772 85.6463 57.9793Z" fill="white"/>
<path d="M97.1157 68.0445C97.8631 67.9955 98.5247 69.1578 98.6105 70.6259C98.684 72.1062 98.1571 73.3418 97.4097 73.3908C96.6623 73.4397 96.0007 72.2775 95.9149 70.8094C95.8414 69.329 96.3805 68.0934 97.1157 68.0445Z" fill="#EBEBE9"/>
<path d="M86.6758 66.9805L97.2621 68.0448L97.5562 73.3912L87.1536 75.838L86.6758 66.9805Z" fill="#EBEBE9"/>
<path d="M86.3945 67.0301C87.779 66.9445 89.0165 68.853 89.1513 71.2876C89.2861 73.7344 88.2691 75.7898 86.8723 75.8754C85.4878 75.961 84.2503 74.0525 84.1155 71.6179C83.9929 69.1711 85.0099 67.1158 86.3945 67.0301Z" fill="white"/>
<path d="M97.7273 77.4156C98.4747 77.3666 99.1364 78.5289 99.2221 79.997C99.3079 81.4773 98.7688 82.7129 98.0214 82.7619C97.274 82.8108 96.6123 81.6486 96.5265 80.1805C96.4408 78.7001 96.9799 77.4645 97.7273 77.4156Z" fill="#EBEBE9"/>
<path d="M87.2754 76.3516L97.874 77.4159L98.1558 82.7622L87.7532 85.2091L87.2754 76.3516Z" fill="#EBEBE9"/>
<path d="M87.0058 76.4012C88.3904 76.3156 89.6279 78.2241 89.7627 80.6587C89.8975 83.1055 88.8805 85.1608 87.4837 85.2465C86.0991 85.3321 84.8616 83.4236 84.7268 80.989C84.5921 78.5422 85.609 76.4868 87.0058 76.4012Z" fill="white"/>
<path d="M98.5359 86.5913C99.2833 86.5424 99.945 87.7046 100.031 89.1727C100.116 90.6531 99.5774 91.8887 98.83 91.9376C98.0825 91.9866 97.4209 90.8243 97.3351 89.3562C97.2494 87.8759 97.7885 86.628 98.5359 86.5913Z" fill="#EBEBE9"/>
<path d="M88.084 85.5156L98.6825 86.5922L98.9644 91.9263L88.5618 94.3731L88.084 85.5156Z" fill="#EBEBE9"/>
<path d="M87.8144 85.5653C89.199 85.4796 90.4365 87.3882 90.5713 89.8227C90.7061 92.2696 89.6891 94.3249 88.2923 94.4105C86.9077 94.4962 85.6702 92.5877 85.5354 90.1531C85.4006 87.7062 86.4176 85.6509 87.8144 85.5653Z" fill="white"/>
<path d="M99.0027 96.1109C99.7501 96.0619 100.412 97.2242 100.498 98.6923C100.571 100.173 100.044 101.408 99.2968 101.457C98.5494 101.506 97.8877 100.344 97.8019 98.8758C97.7162 97.3955 98.2553 96.1598 99.0027 96.1109Z" fill="#EBEBE9"/>
<path d="M88.5508 95.0469L99.1494 96.1112L99.4312 101.458L89.0286 103.892L88.5508 95.0469Z" fill="#EBEBE9"/>
<path d="M88.2812 95.0848C89.6658 94.9992 90.9033 96.9077 91.0381 99.3423C91.1729 101.789 90.1559 103.844 88.7591 103.93C87.3745 104.016 86.137 102.107 86.0022 99.6726C85.8674 97.238 86.8844 95.1827 88.2812 95.0848Z" fill="white"/>
<path d="M103.819 102.017C104.566 101.968 105.228 103.13 105.314 104.599C105.387 106.079 104.86 107.314 104.113 107.363C103.365 107.412 102.704 106.25 102.618 104.782C102.545 103.302 103.084 102.066 103.819 102.017Z" fill="#EBEBE9"/>
<path d="M93.3789 100.953L103.977 102.017L104.259 107.364L93.8568 109.798L93.3789 100.953Z" fill="#EBEBE9"/>
<path d="M93.0976 101.003C94.4821 100.917 95.7197 102.826 95.8544 105.26C95.9892 107.707 94.9723 109.762 93.5755 109.848C92.1909 109.934 90.9534 108.025 90.8186 105.591C90.6961 103.144 91.713 101.088 93.0976 101.003Z" fill="white"/>
<path d="M104.098 111.4C104.846 111.351 105.507 112.513 105.593 113.981C105.679 115.462 105.14 116.697 104.392 116.746C103.645 116.795 102.983 115.633 102.898 114.165C102.812 112.697 103.351 111.449 104.098 111.4Z" fill="#EBEBE9"/>
<path d="M93.6465 110.336L104.245 111.413L104.527 116.747L94.1243 119.193L93.6465 110.336Z" fill="#EBEBE9"/>
<path d="M93.3769 110.386C94.7615 110.3 95.999 112.208 96.1338 114.643C96.2686 117.09 95.2516 119.145 93.8548 119.231C92.4702 119.317 91.2327 117.408 91.0979 114.973C90.9631 112.527 91.9801 110.471 93.3769 110.386Z" fill="white"/>
<path d="M99.1861 36.8218C99.9335 36.7729 100.595 37.9351 100.681 39.4032C100.767 40.8835 100.228 42.1192 99.4802 42.1681C98.7328 42.2171 98.0711 41.0548 97.9854 39.5867C97.9118 38.1064 98.4387 36.8707 99.1861 36.8218Z" fill="#EBEBE9"/>
<path d="M88.7461 35.7578L99.3324 36.8222L99.6265 42.1685L89.2239 44.6031L88.7461 35.7578Z" fill="#EBEBE9"/>
<path d="M88.4648 35.7957C89.8493 35.7101 91.0869 37.6186 91.2216 40.0532C91.3564 42.5001 90.3394 44.5554 88.9426 44.641C87.5581 44.7267 86.3206 42.8181 86.1858 40.3835C86.0633 37.9489 87.0802 35.8936 88.4648 35.7957Z" fill="white"/>
<path d="M99.9089 46.314C100.656 46.2651 101.318 47.4273 101.404 48.8954C101.49 50.3757 100.95 51.6114 100.203 51.6603C99.4556 51.7092 98.794 50.547 98.7082 49.0789C98.6224 47.5986 99.1615 46.3629 99.9089 46.314Z" fill="#EBEBE9"/>
<path d="M89.4688 45.2383L100.055 46.3149L100.349 51.6612L89.9466 54.0958L89.4688 45.2383Z" fill="#EBEBE9"/>
<path d="M89.1874 45.2879C90.572 45.2023 91.8095 47.1108 91.9443 49.5454C92.0791 51.9922 91.0621 54.0476 89.6653 54.1332C88.2807 54.2188 87.0432 52.3103 86.9084 49.8757C86.7859 47.4289 87.8029 45.3858 89.1874 45.2879Z" fill="white"/>
<path d="M100.545 55.6148C101.293 55.5658 101.954 56.7281 102.04 58.1962C102.126 59.6765 101.587 60.9122 100.839 60.9611C100.092 61.01 99.4304 59.8478 99.3446 58.3797C99.2711 56.8994 99.8102 55.6637 100.545 55.6148Z" fill="#EBEBE9"/>
<path d="M90.1055 54.5508L100.704 55.6152L100.986 60.9615L90.5833 63.3961L90.1055 54.5508Z" fill="#EBEBE9"/>
<path d="M89.8242 54.5887C91.2087 54.5031 92.4462 56.4116 92.581 58.8462C92.7158 61.293 91.6988 63.3484 90.302 63.434C88.9175 63.5196 87.6799 61.6111 87.5452 59.1765C87.4226 56.7419 88.4396 54.6866 89.8242 54.5887Z" fill="white"/>
<path d="M101.307 64.6538C102.055 64.6049 102.716 65.7671 102.802 67.2352C102.888 68.7156 102.349 69.9512 101.601 70.0001C100.854 70.0491 100.192 68.8868 100.107 67.4187C100.021 65.9384 100.56 64.7028 101.307 64.6538Z" fill="#EBEBE9"/>
<path d="M90.8555 63.5898L101.454 64.6542L101.748 70.0005L91.3333 72.4474L90.8555 63.5898Z" fill="#EBEBE9"/>
<path d="M90.5859 63.6395C91.9704 63.5539 93.2079 65.4624 93.3427 67.897C93.4775 70.3438 92.4605 72.3991 91.0637 72.4848C89.6792 72.5704 88.4417 70.6619 88.3069 68.2273C88.1844 65.7805 89.2013 63.7251 90.5859 63.6395Z" fill="white"/>
<path d="M101.905 74.0249C102.652 73.976 103.314 75.1382 103.4 76.6063C103.485 78.0867 102.946 79.3223 102.199 79.3713C101.451 79.4202 100.79 78.2579 100.704 76.7898C100.63 75.3095 101.17 74.0739 101.905 74.0249Z" fill="#EBEBE9"/>
<path d="M91.4648 72.9609L102.051 74.0253L102.345 79.3716L91.9427 81.8184L91.4648 72.9609Z" fill="#EBEBE9"/>
<path d="M91.1835 73.0095C92.5803 72.9116 93.8056 74.8201 93.9404 77.2669C94.0752 79.7138 93.0582 81.7691 91.6614 81.8547C90.2768 81.9404 89.0393 80.0319 88.9045 77.5973C88.782 75.1504 89.799 73.0951 91.1835 73.0095Z" fill="white"/>
<path d="M102.713 83.189C103.461 83.1401 104.123 84.3023 104.208 85.7704C104.294 87.2507 103.755 88.4864 103.008 88.5353C102.26 88.5843 101.598 87.422 101.513 85.9539C101.439 84.4736 101.966 83.2379 102.713 83.189Z" fill="#EBEBE9"/>
<path d="M92.2734 82.125L102.86 83.1894L103.154 88.5357L92.7513 90.9825L92.2734 82.125Z" fill="#EBEBE9"/>
<path d="M91.9921 82.1746C93.3767 82.089 94.6142 83.9975 94.749 86.4321C94.8838 88.879 93.8668 90.9343 92.47 91.0199C91.0732 91.1056 89.8479 89.197 89.7131 86.7625C89.5906 84.3156 90.6076 82.2603 91.9921 82.1746Z" fill="white"/>
<path d="M103.18 92.7202C103.928 92.6713 104.589 93.8335 104.675 95.3016C104.761 96.782 104.222 98.0176 103.474 98.0666C102.727 98.1155 102.065 96.9533 101.979 95.4852C101.906 94.0048 102.433 92.7692 103.18 92.7202Z" fill="#EBEBE9"/>
<path d="M92.7422 91.6562L103.328 92.7206L103.623 98.0669L93.22 100.502L92.7422 91.6562Z" fill="#EBEBE9"/>
<path d="M92.4589 91.6942C93.8435 91.6085 95.081 93.5171 95.2158 95.9517C95.3506 98.3985 94.3336 100.454 92.9368 100.539C91.5522 100.625 90.3147 98.7166 90.1799 96.282C90.0574 93.8474 91.0744 91.7921 92.4589 91.6942Z" fill="white"/>
<path d="M69.0083 121.803C69.0083 121.803 67.3542 110.376 69.4984 99.8184C71.6426 89.2604 82.9151 58.4181 77.5362 45.9393C72.1573 33.4727 57.8339 27.7593 48.1298 35.1121C48.1298 35.1121 57.0865 40.2993 53.3004 47.6521C49.5266 55.0048 34.6273 76.1821 35.0071 94.9737C35.3747 113.765 50.225 137.683 69.0083 121.803Z" fill="white"/>
<path d="M46.0341 91.0586C45.6543 74.6771 59.9409 54.9556 60.9456 47.6641C61.8156 41.4492 54.4762 36.8736 48.4724 34.8672C48.3621 34.9406 48.2518 35.0018 48.1416 35.0874C48.1416 35.0874 57.0983 40.2747 53.3122 47.6274C49.5261 54.9923 34.6391 76.1574 35.0067 94.949C35.3743 113.741 50.2245 137.658 69.0079 121.779C52.5648 125.326 46.4262 107.44 46.0341 91.0586Z" fill="#00AB78"/>
<path d="M77.6084 45.8901C72.3888 33.7661 58.7025 28.0649 49.0352 34.5246C53.3358 34.9528 66.0419 36.9102 69.9015 45.4007C74.582 55.6652 63.7751 75.8393 60.8835 94.7043C58.0041 113.569 69.0683 121.766 69.0683 121.766C69.0683 121.766 67.4142 110.34 69.5584 99.7815C71.7271 89.1989 82.9873 58.3567 77.6084 45.8901Z" fill="#00AB78"/>
<path d="M108.278 165.93C109.148 167.667 108.841 169.771 107.506 171.19C108.915 171.998 110.005 173.27 110.569 174.787C111.451 177.491 107.592 180.06 107.592 180.06C108.878 181.186 109.797 182.678 110.226 184.33C110.814 187.009 107.298 190.153 107.298 190.153C107.91 191.842 107.886 193.689 107.249 195.365C105.362 199.782 98.0958 200.895 93.5133 201.653C88.9308 202.424 75.1466 200.234 72.4877 200.1L67.3906 170.603C67.3906 170.603 87.0562 161.366 92.5944 161.232C97.2504 161.146 106.526 162.737 108.278 165.93Z" fill="#FFC4C0"/>
<path d="M104.515 169.637C99.5406 168.561 94.5047 169.013 89.4566 169.172C89.3586 169.136 89.3954 169.356 89.4076 169.319C94.4312 169.099 99.4303 169.87 104.454 169.845C104.638 169.882 104.65 169.662 104.515 169.637Z" fill="#263238"/>
<path d="M104.736 178.545C103.584 178.41 102.42 178.422 101.269 178.593C100.031 178.691 98.8059 178.814 97.5806 178.96C95.1301 179.242 92.6918 179.597 90.2535 180C90.1555 179.964 90.1922 180.196 90.2045 180.147C92.655 179.866 95.0933 179.621 97.5438 179.45C98.7814 179.352 99.9944 179.291 101.232 179.205C102.396 179.23 103.56 179.107 104.699 178.85C104.785 178.826 104.846 178.728 104.81 178.63C104.797 178.593 104.773 178.569 104.736 178.545Z" fill="#263238"/>
<path d="M104.504 189.004C103.451 188.906 102.397 188.992 101.368 189.249L98.0226 189.677C95.7927 189.971 93.5627 190.24 91.3082 190.448C91.2102 190.411 91.2469 190.644 91.2592 190.595C93.5504 190.399 95.8294 190.24 98.0962 190.02L101.453 189.677C102.483 189.665 103.5 189.481 104.455 189.114C104.492 189.114 104.529 189.078 104.529 189.041C104.529 189.041 104.517 189.016 104.504 189.004Z" fill="#263238"/>
<path d="M419.411 467.99C416.593 469.018 335.1 471.367 331.927 469.532C330.738 468.834 329.697 456.992 328.851 442.702C328.667 439.607 326.977 389.692 326.977 389.692L380.018 388.016L381.378 441.051C381.378 441.051 412.978 454.104 416.188 456.527C419.423 458.925 422.253 466.987 419.411 467.99Z" fill="#F7A9A0"/>
<path d="M329.256 448.904C330.016 460.27 330.922 468.907 331.939 469.507C335.088 471.366 416.568 469.017 419.411 467.965C422.241 466.913 419.46 458.826 416.238 456.428C414.437 455.095 404.083 450.544 395.09 446.727C398.238 448.537 402.257 451.131 401.951 452.758C401.412 455.951 360.905 459.279 329.256 448.904Z" fill="#00AB78"/>
<path opacity="0.4" d="M329.256 448.904C330.016 460.27 330.922 468.907 331.939 469.507C335.088 471.366 416.568 469.017 419.411 467.965C422.241 466.913 419.46 458.826 416.238 456.428C414.437 455.095 404.083 450.544 395.09 446.727C398.238 448.537 402.257 451.131 401.951 452.758C401.412 455.951 360.905 459.279 329.256 448.904Z" fill="black"/>
<path d="M300.34 164.548C300.34 164.548 319.172 305.657 319.589 307.431C319.601 307.675 319.834 310.391 320.103 314.832C321.635 339.203 325.225 422.322 325.225 422.322L383.646 420.474C383.646 420.474 377.777 323.421 374.922 302.5C371.283 275.793 349.975 163.031 349.975 163.031L300.34 164.548Z" fill="#37474F"/>
<path d="M326.696 312.202C323.914 281.592 320.238 251.08 315.656 220.666C313.058 203.526 310.032 186.472 307.042 169.393C307.042 169.246 306.785 169.27 306.797 169.405C312.299 199.77 316.477 230.429 320.214 261.063C321.537 271.89 323.976 290.523 325.654 312.3C328.717 352.048 330.984 399.627 331.719 410.882C331.756 411.066 331.94 411.176 332.111 411.127C332.246 411.103 332.344 410.993 332.369 410.858C330.531 379.771 329.514 343.203 326.696 312.202Z" fill="#263238"/>
<path d="M379.307 410.822C352.632 410.834 329.573 412.155 327.6 412.376C325.946 412.547 326.877 412.706 327.698 412.73C350.378 413.354 378.437 411.201 379.331 411.091C379.405 411.091 379.466 411.018 379.454 410.944C379.441 410.871 379.38 410.81 379.307 410.822Z" fill="#263238"/>
<path d="M300.34 164.547C300.34 164.547 319.172 305.655 319.589 307.429C319.601 307.674 319.834 310.39 320.103 314.831L342.881 163.201L300.34 164.547Z" fill="#263238"/>
<path d="M327.209 477.962C324.269 478.573 241.747 468.541 238.892 466.229C237.814 465.361 249.944 387.258 249.944 387.258L303.782 393.46L295.671 446.899C295.671 446.899 322.97 463.171 325.825 466.058C328.68 468.945 330.15 477.362 327.209 477.962Z" fill="#F7A9A0"/>
<path d="M238.893 466.217C241.748 468.578 324.27 478.573 327.223 477.962C330.176 477.35 328.62 468.921 325.765 466.058C324.111 464.394 314.284 458.252 306.295 453.359C309.15 455.72 313.181 459.256 312.581 460.87C311.454 463.917 270.824 460.418 241.356 444.844C239.677 456.858 238.538 465.935 238.893 466.217Z" fill="#00AB78"/>
<path opacity="0.4" d="M238.893 466.217C241.748 468.578 324.27 478.573 327.223 477.962C330.176 477.35 328.62 468.921 325.765 466.058C324.111 464.394 314.284 458.252 306.295 453.359C309.15 455.72 313.181 459.256 312.581 460.87C311.454 463.917 270.824 460.418 241.356 444.844C239.677 456.858 238.538 465.935 238.893 466.217Z" fill="black"/>
<path d="M349.964 162.98C349.964 162.98 348.677 177.441 340.737 188.097C338.826 190.605 332.822 193.162 329.747 195.56C329.747 195.56 321.403 303.857 318.217 316.213C314.664 329.915 302.068 423.213 302.068 423.213L241.527 416.814C241.527 416.814 256.304 329.132 259.931 306.426C260.752 301.361 270.811 205.947 270.456 203.757C266.106 177.71 278.469 165.207 278.469 165.207L349.964 162.98Z" fill="#37474F"/>
<path d="M303.929 165.466C302.974 170.42 300.597 174.996 297.068 178.617C293.6 182.324 289.03 184.808 284.043 185.713C283.259 185.823 283.382 186.361 284.215 186.325C293.76 186.019 303.219 177.957 304.334 165.527C304.346 165.417 304.272 165.319 304.162 165.294C304.052 165.282 303.954 165.355 303.929 165.466Z" fill="#263238"/>
<path d="M341.852 187.632C338.458 189.125 335.223 190.984 332.221 193.162C329.011 195.278 326.07 197.75 322.97 200.038C322.848 200.111 322.983 200.319 323.093 200.233C326.352 198.215 329.758 196.465 332.956 194.398C336.179 192.501 339.218 190.311 342.048 187.877C342.109 187.779 341.987 187.571 341.852 187.632Z" fill="#263238"/>
<path d="M342.562 167.728C342.121 169.93 341.558 172.108 341.055 174.286C340.553 176.463 340.222 178.421 339.646 180.452C339.181 182.409 338.151 184.195 336.693 185.59C335.872 186.324 334.978 186.985 334.096 187.658C333.63 188.012 333.128 188.379 332.638 188.734C332.699 188.453 332.772 188.159 332.822 187.853C332.981 187.021 333.14 186.177 333.287 185.394C333.63 183.547 333.949 181.7 334.267 179.84C334.868 176.145 335.444 172.463 336.265 168.891C336.277 168.829 336.228 168.756 336.166 168.744C336.105 168.731 336.044 168.768 336.032 168.817C335.076 172.402 334.01 175.937 333.177 179.534C332.772 181.308 331.253 190.031 331.192 190.618C331.118 191.193 331.045 191.842 331.02 192.539C330.935 193.188 330.922 193.86 330.984 194.509C331.033 194.594 331.131 194.619 331.216 194.582C331.253 194.57 331.278 194.533 331.29 194.509C331.572 193.909 331.768 193.261 331.878 192.6C332.037 191.989 332.197 191.365 332.319 190.716C332.307 190.496 332.405 190.264 332.429 190.031C333.299 189.517 334.12 188.832 334.941 188.257C335.762 187.694 336.718 187.034 337.539 186.349C339.083 185.089 340.198 183.4 340.761 181.479C341.325 179.424 341.705 177.32 341.889 175.203C342.207 172.744 342.44 170.212 342.881 167.74C342.869 167.643 342.587 167.581 342.562 167.728Z" fill="#263238"/>
<path d="M298.881 411.469C272.465 407.762 249.454 405.866 247.457 405.756C245.803 405.707 246.697 405.976 247.469 406.123C269.843 409.891 297.901 411.665 298.82 411.653C298.881 411.628 298.918 411.555 298.894 411.494C298.894 411.481 298.894 411.481 298.881 411.469Z" fill="#263238"/>
<path d="M257.7 353.1C260.677 337.893 263.312 322.649 265.395 307.295C267.465 291.941 269.046 276.661 270.516 261.319C271.987 245.978 273.494 230.355 274.988 214.879C275.344 211.123 275.969 207.244 275.711 203.464C275.454 199.684 274.033 196.258 273.567 192.588C272.795 185.443 273.604 178.225 275.92 171.423C276.471 169.698 277.035 167.997 277.77 166.309C277.856 166.101 278.211 166.174 278.125 166.419C276.042 173.466 274.131 180.696 274.253 188.11C274.437 191.878 275.037 195.61 276.054 199.243C276.851 202.803 277.022 206.461 276.594 210.083C275.16 225.486 273.677 240.901 272.134 256.316C270.663 271.657 269.132 287.011 267.196 302.316C265.26 317.621 262.883 332.73 259.918 347.839C256.953 362.936 253.889 378.253 250.581 393.424C250.177 395.308 249.772 397.179 249.331 399.064C249.344 399.271 248.964 399.186 249.001 398.966C251.586 383.587 254.723 368.344 257.7 353.1Z" fill="#263238"/>
<path d="M331.129 32.3934C326.363 26.9737 318.509 25.8604 310.974 27.671C303.438 29.4817 294.494 33.7025 294.114 46.8297C293.795 57.4979 297.336 67.799 297.692 79.6661C298.047 91.5455 286.076 120.871 307.347 134.438C326.449 146.575 363.918 133.876 364.187 107.67C364.395 86.9454 340.037 68.5086 337.256 60.3851C334.474 52.2616 336.312 38.327 331.129 32.3934Z" fill="#263238"/>
<path d="M334.93 43.9805C335.126 49.9752 336.474 55.8843 338.875 61.3896C339.524 62.7843 340.358 64.0812 341.362 65.2556C342.318 66.4546 343.335 67.519 344.34 68.6078C346.386 70.7732 348.408 72.9142 350.319 75.1531C354.24 79.5329 357.499 84.4632 360.011 89.7728C362.437 95.1436 363.871 100.894 364.226 106.778C364.361 103.793 364.165 100.808 363.662 97.8718C363.123 94.9112 362.278 92.0239 361.163 89.2345C358.835 83.6802 355.612 78.5541 351.618 74.052C349.657 71.7887 347.574 69.6232 345.528 67.4945C343.396 65.5248 341.558 63.2492 340.064 60.7657C338.716 58.1721 337.65 55.4316 336.915 52.6055C336.094 49.755 335.42 46.88 334.93 43.9805Z" fill="#263238"/>
<path d="M294.962 55.7617C295.305 61.7931 295.868 67.8246 295.93 73.8193C295.966 76.8044 295.819 79.8018 295.501 82.7625C295.182 85.6864 294.459 88.6226 293.834 91.5955C293.21 94.5684 292.695 97.5658 292.34 100.588C291.984 103.634 291.898 106.692 292.082 109.751C292.315 112.822 292.977 115.844 294.03 118.731C295.219 121.545 296.971 124.102 299.177 126.23C297.228 123.943 295.734 121.324 294.741 118.486C293.871 115.636 293.393 112.687 293.308 109.714C293.332 103.732 294.03 97.7737 295.39 91.9503C295.954 88.9896 296.702 86.0534 297.008 82.946C297.277 79.8997 297.326 76.8411 297.143 73.7948C296.775 67.7634 296.04 61.7442 294.962 55.7617Z" fill="#263238"/>
<path d="M322.443 105.628C328.46 119.293 352.046 163.287 366.7 165.979C376.318 167.74 414.816 162.786 421.163 153.463C423.945 149.401 418.161 121.838 413.052 123.122C407.943 124.407 377.115 129.447 373.28 128.469C369.445 127.49 339.916 95.6323 329.011 87.8392C310.215 74.3816 319.209 98.2749 322.443 105.628Z" fill="#F7A9A0"/>
<path d="M401.302 121.483L403.446 163.03C403.446 163.03 373.011 169.575 359.778 164.939C343.665 159.323 320.361 109.42 317.151 101.223C311.919 87.7657 313.413 79.6422 320.912 81.6486C323.828 82.4071 327.651 84.7316 332.332 88.879C337.233 93.1976 365.365 121.287 374.248 126.597C379.235 129.631 401.302 121.483 401.302 121.483Z" fill="#EBEBEB"/>
<path d="M395.641 161.563C395.139 155.458 394.012 130.231 394.134 124.762C394.122 124.395 394.392 124.297 394.428 124.689C396.389 143.052 395.715 155.482 395.886 161.538C395.886 161.611 395.837 161.66 395.776 161.673C395.703 161.685 395.641 161.636 395.641 161.563Z" fill="#263238"/>
<path d="M390.604 165.281C380.679 166.639 367.385 167.654 359.837 165.036C343.725 159.421 320.421 109.53 317.223 101.321C311.978 87.8633 313.473 79.7398 320.972 81.7462C321.205 81.8074 321.438 81.8808 321.683 81.9665L390.604 165.281Z" fill="#A6A6A6"/>
<path d="M346.802 139.896L353.884 179.681C353.884 179.681 288.687 182.703 272.465 182.079C272.465 182.079 283.308 106.949 300.107 87.5339C308.512 77.82 318.768 78.187 325.482 84.5855C327.185 86.2126 347.684 111.55 350.073 121.398C352.169 130.158 346.802 139.896 346.802 139.896Z" fill="#00AB78"/>
<path d="M307.164 81.7578C307.164 81.7578 319.637 296.198 314.54 305.581C311.428 311.307 256.658 299.55 256.658 299.55C256.658 299.55 266.669 171.936 281.372 126.18C294.997 83.752 307.164 81.7578 307.164 81.7578Z" fill="#EBEBEB"/>
<path d="M270.737 224.324C270.737 233.231 271.472 243.3 273.432 245.049C277.096 248.413 286.555 247.814 289.459 247.704C292.362 247.581 303.022 247.276 305.338 241.709C306.367 239.226 306.269 226.832 306.085 222.428C306.024 220.642 305.338 211.87 305.179 210.879C305.167 210.647 304.505 210.708 304.493 210.904C304.37 211.907 304.578 215.565 304.554 216.262C287.559 218.99 276.936 217.485 271.472 216.617C271.423 214.965 271.374 213.693 271.325 212.041C276.691 212.849 282.119 213.191 287.535 213.057C293.453 212.873 302.324 211.711 305.216 211.271C305.35 211.271 305.191 210.598 305.02 210.598C302.802 210.671 295.107 211.699 287.351 211.943C281.788 212.005 276.226 211.735 270.7 211.136C270.455 211.222 270.737 220.055 270.737 224.324ZM274.425 244.034C272.464 241.942 272.048 235.727 271.937 232.007C271.778 226.881 271.643 222.795 271.484 217.681C284.705 220.312 299.126 218.354 304.566 217.07C304.578 217.29 305.02 228.068 305.02 231.53C305.02 235.935 305.02 239.911 303.402 242.26C302.005 244.266 297.974 246.358 288.589 246.639C281.837 246.835 276.066 245.783 274.437 243.985L274.425 244.034Z" fill="#A6A6A6"/>
<path d="M356.75 300.235C359.066 302.853 376.698 293.482 376.698 293.482L347.12 139.16C350.158 133.826 351.212 127.599 350.097 121.568C348.1 111.842 326.743 84.2413 323.398 82.8711C327.283 97.3563 330.125 112.098 331.902 126.987C339.523 187.913 353.479 296.491 356.75 300.235Z" fill="#EBEBEB"/>
<path d="M343.235 108.563C341.336 105.725 339.375 102.923 337.488 100.061C337.488 99.975 337.562 99.8771 337.623 99.9628C339.522 102.348 341.372 104.661 343.223 107.046C342.61 105.762 341.985 104.465 341.421 103.156C341.36 103.009 341.568 102.875 341.654 103.021C342.512 104.71 343.308 106.422 344.068 108.147C345.71 110.276 347.18 112.539 348.467 114.901C351.248 119.807 352.216 125.532 351.187 131.086C350.868 132.64 350.366 134.157 349.704 135.589C349.263 136.567 347.756 138.696 347.768 138.757C348.969 144.422 349.925 150.159 350.893 155.873C351.873 161.586 352.902 167.422 353.76 173.209C354.262 176.5 354.605 179.803 355.193 183.069C355.193 183.192 355.022 183.241 355.01 183.069C354.507 180.231 353.784 177.417 353.196 174.554C352.608 171.692 352.02 168.89 351.469 166.039C350.354 160.302 349.349 154.527 348.332 148.765C347.756 145.498 347.131 142.256 346.653 139.026C347.168 137.778 347.756 136.555 348.418 135.368C348.969 134.145 349.41 132.873 349.729 131.564C350.403 128.909 350.55 126.156 350.17 123.452C349.337 117.996 346.298 113.114 343.235 108.563Z" fill="#263238"/>
<path d="M323.582 83.5078C325.591 86.3584 327.638 89.1722 329.708 91.9738C331.791 94.7632 333.85 97.5893 335.969 100.342L335.945 99.6569L331.203 104.93L330.811 105.358L331.252 105.762C333.372 107.695 335.528 109.579 337.673 111.475L337.489 110.961C336.901 116.295 336.264 121.605 335.749 126.927C335.234 132.249 334.707 137.583 334.279 142.88C335.112 137.595 335.884 132.285 336.594 126.976C337.342 121.678 337.979 116.356 338.641 110.998L338.628 110.704L338.396 110.509C336.264 108.588 334.144 106.667 331.987 104.783L332.012 105.615L336.643 100.269L337.023 100.024L336.754 99.6936C334.609 96.9409 332.392 94.2616 330.211 91.5579C328.054 88.8419 325.837 86.1626 323.582 83.5078Z" fill="#A6A6A6"/>
<path d="M289.876 95.1419C264.917 120.002 236.099 162.625 247.077 172.498C254.367 179.044 288.393 132.652 287.781 132.774C286.47 133.055 293.674 117.775 302.533 99.2526C312.396 78.5646 304.101 80.9503 289.876 95.1419Z" fill="#F7A9A0"/>
<path d="M302.055 84.2665C284.472 93.6746 237.116 152.423 244.1 169.857C251.084 187.302 289.998 132.909 289.557 132.2C289.116 131.49 298.771 110.986 302.717 102.679C306.662 94.3719 311.416 79.2505 302.055 84.2665Z" fill="#EBEBEB"/>
<path d="M300.499 112.307C299.555 113.371 298.612 114.46 297.717 115.573L297.24 116.222L298.024 114.46C299.028 112.441 299.911 110.374 300.683 108.257C300.683 108.159 300.585 108.11 300.523 108.184C299.322 110.215 298.232 112.319 297.252 114.472C296.223 116.527 295.181 118.595 294.189 120.687C293.196 122.791 292.191 124.834 291.236 126.902C290.219 128.933 289.361 131.037 288.65 133.19C288.65 133.264 288.699 133.313 288.761 133.325C288.797 133.325 288.834 133.313 288.859 133.288C290.121 131.294 291.248 129.214 292.216 127.061C293.233 124.993 294.189 122.901 295.169 120.846C295.585 119.977 295.978 119.097 296.37 118.216L296.86 117.641C297.313 117.115 297.717 116.552 298.134 115.989C298.979 114.839 299.776 113.652 300.572 112.453C300.658 112.319 300.536 112.27 300.499 112.307Z" fill="#263238"/>
<path d="M307.128 84.2188C305.878 87.3752 304.616 90.5316 303.305 93.6635C301.994 96.7954 300.72 99.8662 299.359 103.035L299.2 102.374L304.506 106.632L304.947 106.986L304.628 107.464C303.109 109.751 301.553 112.015 299.997 114.266L300.07 113.74C301.663 118.841 303.329 123.931 304.849 129.057C306.368 134.183 307.949 139.297 309.394 144.447C307.606 139.431 305.841 134.379 304.114 129.314C302.361 124.261 300.744 119.172 299.053 114.095L298.955 113.801L299.114 113.568C300.646 111.281 302.165 108.993 303.734 106.742L303.856 107.574L298.612 103.206L298.281 102.937L298.453 102.558C299.825 99.4625 301.283 96.4162 302.704 93.3577C304.163 90.2869 305.645 87.2406 307.128 84.2188Z" fill="#A6A6A6"/>
<path d="M308.451 137.694L308.414 137.633C308.034 136.984 308.242 136.152 308.892 135.773L310.448 134.843C311.097 134.464 311.93 134.672 312.31 135.32L312.347 135.382C312.727 136.03 312.519 136.862 311.869 137.241L310.313 138.171C309.664 138.55 308.83 138.342 308.451 137.694Z" fill="#263238"/>
<path d="M299.763 135.895C300.106 135.234 300.927 134.965 301.601 135.307L303.206 136.127C303.88 136.47 304.149 137.301 303.794 137.974C303.451 138.635 302.63 138.904 301.956 138.562L300.351 137.742C299.689 137.399 299.42 136.58 299.763 135.907V135.895Z" fill="#263238"/>
<path d="M358.846 162.418L358.993 165.036L356.738 163.666L358.846 162.418Z" fill="#37474F"/>
<path d="M247.065 172.5C257.039 181.577 295.426 175.326 319.772 167.19C324.404 165.648 307.973 124.591 303.231 126.744C298.232 129.081 293.086 131.087 287.83 132.775C286.457 133.069 236.148 162.553 247.065 172.5Z" fill="#F7A9A0"/>
<path d="M416.959 50.928C415.587 96.647 402.893 290.778 394.672 365.358C375.19 369.468 345.673 356.023 336.018 355.668C326.388 355.313 305.95 356.659 294.592 352.573C306.367 305.276 339.951 133.875 357.522 43.3428C377.224 37.0178 402.513 42.9636 416.959 50.928Z" fill="#00AB78"/>
<path d="M402.22 3.85197C401.876 14.1653 402.158 36.4804 401.999 44.347C395.664 44.4571 379.148 43.4416 372.396 41.3374C373.744 33.0059 377.677 13.0887 380.643 0.781199C385.054 -0.503385 394.831 -0.650195 402.22 3.85197Z" fill="#AFE7FC"/>
<path d="M394.623 8.43867C394.623 8.26739 394.77 8.13281 394.953 8.13281C395.113 8.15728 395.272 8.27962 395.26 8.46313C395.137 13.0876 394.206 35.8309 393.679 41.6421C393.667 41.8134 393.508 41.948 393.336 41.9235C393.324 41.9235 393.299 41.9235 393.287 41.9113C393.14 41.8746 393.03 41.7278 393.054 41.5687C393.581 35.7697 394.5 13.0632 394.623 8.43867Z" fill="black"/>
<path d="M386.671 7.53299C386.708 7.36171 386.867 7.25161 387.039 7.28831C387.21 7.30054 387.32 7.48405 387.284 7.66757C386.107 13.6623 383.743 33.396 383.093 41.0178C383.081 41.1891 382.922 41.3237 382.75 41.3114C382.738 41.3114 382.713 41.3114 382.701 41.2992C382.554 41.2625 382.444 41.1279 382.468 40.9689C383.118 33.3226 385.482 13.5522 386.671 7.53299Z" fill="black"/>
<path d="M300.608 328.522C317.259 332.193 386.291 341.784 399.977 343.167C401.374 343.313 402.391 344.549 402.244 345.944C402.097 347.338 400.859 348.354 399.462 348.207C385.702 346.812 316.291 337.16 299.517 333.465C299.493 333.465 299.456 333.453 299.431 333.44C298.108 333.098 297.287 331.777 297.581 330.443C297.887 329.085 299.235 328.216 300.608 328.522Z" fill="white"/>
<path d="M370.681 116.686L350.918 265.943L326.363 260.45L353.625 114.117L370.681 116.686Z" fill="white"/>
<path d="M361.395 126.646C361.187 131.308 349.718 129.815 349.718 129.815C351.348 131.002 352.5 132.727 352.99 134.684C353.688 138.159 348.53 140.789 348.53 140.789C349.963 142.367 350.882 144.349 351.164 146.466C351.507 149.855 346.667 153.243 346.667 153.243C347.17 155.421 346.876 157.709 345.834 159.691C342.82 164.878 333.606 164.523 327.86 165.441C321.415 166.591 315.08 168.267 308.905 170.445L300.426 127.992C300.426 127.992 325.826 114.596 332.712 115.269C338.495 115.893 361.726 119.502 361.395 126.646Z" fill="#F7A9A0"/>
<path d="M349.619 129.668C343.591 127.588 337.085 126.952 330.811 126.426C330.676 126.426 330.664 126.622 330.823 126.634C337.072 127.111 343.358 129.264 349.582 129.974C349.668 129.949 349.717 129.864 349.705 129.778C349.693 129.729 349.668 129.692 349.619 129.668Z" fill="#263238"/>
<path d="M348.383 140.298C346.973 139.956 345.515 139.809 344.07 139.845C342.526 139.784 340.994 139.76 339.463 139.748C336.375 139.735 333.336 139.797 330.224 139.956C330.089 139.956 330.065 140.164 330.236 140.164C333.299 140.176 336.363 140.249 339.438 140.384C340.982 140.457 342.513 140.543 344.045 140.641C345.491 140.824 346.937 140.849 348.383 140.714C348.493 140.677 348.566 140.555 348.53 140.433C348.493 140.372 348.444 140.323 348.383 140.298Z" fill="#263238"/>
<path d="M346.519 153.243C345.245 152.95 343.922 152.876 342.611 153.035L338.396 153.084C335.59 153.096 332.784 153.121 329.99 153.035C329.843 153.035 329.831 153.243 330.003 153.255C332.845 153.353 335.7 153.488 338.592 153.561L342.794 153.635C344.069 153.782 345.355 153.696 346.593 153.378C346.629 153.353 346.642 153.304 346.617 153.268C346.605 153.231 346.556 153.219 346.519 153.243Z" fill="#263238"/>
<path d="M244.1 169.869C251.084 187.217 306.895 171.986 306.895 171.986L304.861 125.777C304.861 125.777 289.999 132.971 289.558 132.213C289.117 131.454 237.116 152.46 244.1 169.869Z" fill="#EBEBEB"/>
<path d="M300.132 168.952C299.482 162.847 297.779 137.669 297.743 132.213C297.73 131.834 297.988 131.736 298.037 132.127C300.401 150.417 300.022 162.884 300.34 168.928C300.377 169.074 300.144 169.111 300.132 168.952Z" fill="#263238"/>
<path d="M304.529 125.802C302.9 126.291 301.319 126.903 299.787 127.637C298.391 128.237 297.006 128.812 295.609 129.436C292.607 130.757 289.63 132.176 286.665 133.595C283.7 135.014 280.747 136.47 277.818 137.975C274.89 139.48 272.072 141.131 269.144 142.636C269.009 142.636 269.156 142.905 269.278 142.844C272.231 141.388 275.319 140.128 278.309 138.758L287.118 134.696C290.059 133.375 292.999 132.066 295.94 130.659C297.374 129.998 298.807 129.35 300.241 128.653C301.809 128.004 303.328 127.246 304.787 126.377C304.934 126.291 304.995 126.096 304.897 125.937C304.811 125.814 304.664 125.753 304.529 125.802Z" fill="#263238"/>
<path d="M307.066 170.97C307.054 170.664 306.894 170.591 306.821 170.921L306.71 171.606C304.811 171.986 297.876 173.65 296.185 174.041C292.632 174.849 289.14 175.827 285.55 176.402C280.551 177.197 275.503 177.724 270.443 177.968C270.381 177.993 270.344 178.066 270.369 178.127C270.381 178.164 270.418 178.188 270.455 178.201C275.515 178.176 280.575 177.883 285.599 177.295C289.263 176.769 292.914 176.06 296.565 175.203C298.366 174.763 300.155 174.298 301.932 173.809C303.672 173.417 305.363 172.854 306.98 172.12C307.09 172.047 307.164 171.925 307.164 171.802L307.066 170.97Z" fill="#263238"/>
<path d="M416.53 118.387C418.993 123.672 425.23 130.254 425.708 134.548C426.051 136.713 424.911 138.842 422.914 139.76C422.914 139.76 427.19 141.937 426.982 145.914C426.872 147.957 423.502 149.584 423.502 149.584C423.502 149.584 426.847 151.468 426.443 155.003C426.124 157.805 422.804 159.029 422.804 159.029C422.804 159.029 425.168 162.332 423.931 165.109C421.395 170.7 397.134 170.516 393.446 161.549C391.719 157.365 397.649 157.744 397.649 157.744C397.649 157.744 389.256 155.163 389.158 150.159C389.06 145.155 396.754 146.097 396.754 146.097C396.754 146.097 388.631 143.528 389.072 138.328C389.513 132.933 397.036 135.184 397.036 135.184C397.036 135.184 391.657 131.489 392.907 127.575C394.953 121.127 405.111 129.336 410.465 128.113L413.467 119.353L416.53 118.387Z" fill="#F7A9A0"/>
<path d="M421.336 126.072C419.449 120.873 425.93 114.523 424.84 109.275C423.394 102.191 415.344 109.067 413.494 119.319L413.457 127.516L421.336 126.072Z" fill="#F7A9A0"/>
<path d="M422.29 159.274C422.327 159.286 422.351 159.335 422.327 159.372C422.314 159.384 422.302 159.409 422.29 159.409C413.982 161.403 405.259 160.828 397.282 157.757C397.037 157.659 397.098 157.194 397.405 157.268C405.553 159.139 413.946 159.825 422.29 159.274Z" fill="#263238"/>
<path d="M423.626 149.646C423.724 149.646 423.736 149.793 423.626 149.817C415.367 151.701 404.818 150.992 396.461 146.281C396.18 146.122 396.069 145.694 396.449 145.853C402.232 148.557 415.796 150.245 423.626 149.646Z" fill="#263238"/>
<path d="M396.534 134.61C404.731 138.807 413.455 139.957 422.583 139.908C422.706 139.908 422.681 140.079 422.595 140.103C418.148 141.376 412.315 140.837 407.819 140.018C403.628 139.333 399.683 137.559 396.387 134.867C396.264 134.794 396.362 134.512 396.534 134.61Z" fill="#263238"/>
<path d="M309.553 83.4584C310.08 84.6696 315.03 92.7197 320.875 92.5362C324.55 92.4138 323.264 79.8249 323.264 79.8249L323.301 79.0297L323.803 67.9945L309.884 62.1955L307.887 61.4492C307.887 61.4492 307.985 64.4833 308.107 68.2514L308.12 68.7897C308.132 69.0099 308.132 69.2057 308.144 69.4014C308.156 69.9764 308.181 70.5514 308.193 71.1142C308.205 71.677 308.218 71.9828 308.23 72.4355L308.279 73.8057C308.499 77.0477 308.916 80.2653 309.553 83.4584Z" fill="#F7A9A0"/>
<path d="M308.047 68.2411C311.282 73.8933 316.857 77.8449 323.277 79.0316L323.78 67.9964L309.86 62.1975L307.863 61.4512C307.863 61.4512 307.925 64.473 308.047 68.2411Z" fill="#263238"/>
<path d="M338.543 53.4737C338.665 72.8649 327.038 75.1404 322.859 75.1526C319.049 75.1649 306.098 74.7367 303.978 55.4557C301.858 36.1747 310.852 29.9842 319.539 29.4948C328.226 29.0055 338.42 34.0092 338.543 53.4737Z" fill="#F7A9A0"/>
<path d="M333.752 48.7282C333.299 48.6426 332.883 48.4957 332.454 48.3734C331.988 48.3245 331.547 48.1043 331.204 47.7739C331.02 47.517 331.045 47.1622 331.253 46.9298C331.719 46.5261 332.38 46.4037 332.956 46.6239C333.569 46.7463 334.108 47.0888 334.488 47.5904C334.72 47.9207 334.635 48.3856 334.292 48.6059C334.145 48.716 333.949 48.7649 333.752 48.7282Z" fill="#263238"/>
<path d="M321.069 48.0904C321.51 48.0414 321.952 47.968 322.393 47.8824C322.871 47.8702 323.336 47.7111 323.716 47.4175C323.9 47.1606 323.887 46.818 323.691 46.5733C323.263 46.1207 322.625 45.9494 322.025 46.0962C321.4 46.1574 320.824 46.4388 320.408 46.8914C320.138 47.1973 320.175 47.6622 320.481 47.9313C320.641 48.0537 320.861 48.1148 321.069 48.0904Z" fill="#263238"/>
<path d="M323.594 53.1191C323.594 53.1191 323.484 53.1191 323.484 53.2292C323.521 54.5505 323.276 56.0676 322.062 56.4713C322.062 56.4713 322.062 56.5569 322.062 56.5447C323.557 56.3979 323.815 54.3793 323.594 53.1191Z" fill="#263238"/>
<path d="M322.444 51.7123C320.324 51.4799 320.043 55.7373 322.015 55.9453C323.988 56.1533 324.233 51.8958 322.444 51.7123Z" fill="#263238"/>
<path d="M321.609 51.8707C321.217 52.0909 320.825 52.4947 320.409 52.5069C319.992 52.5191 319.526 52.042 319.22 51.6016H319.147C319.073 52.4213 319.33 53.2776 320.213 53.4489C321.095 53.6324 321.622 52.9229 321.879 52.1766C321.867 52.0298 321.756 51.7973 321.609 51.8707Z" fill="#263238"/>
<path d="M330.946 53.375C330.946 53.375 331.044 53.4484 331.032 53.4973C330.897 54.8064 330.959 56.3357 332.123 56.8617C332.123 56.8617 332.123 56.9474 332.123 56.9351C330.665 56.6293 330.603 54.5984 330.946 53.375Z" fill="#263238"/>
<path d="M332.233 52.0899C334.365 52.0776 334.218 56.3351 332.245 56.3473C330.273 56.3596 330.444 52.0899 332.233 52.0899Z" fill="#263238"/>
<path d="M333.091 52.4217C333.421 52.6541 333.74 53.0823 334.144 53.119C334.549 53.1557 334.965 52.7153 335.284 52.2871H335.345C335.37 53.1068 335.039 53.9387 334.255 54.0733C333.458 54.2079 333.005 53.4738 332.87 52.6664C332.858 52.5196 332.968 52.2993 333.091 52.4217Z" fill="#263238"/>
<path d="M323.117 63.6285C323.399 63.9588 323.656 64.4359 324.134 64.5093C324.624 64.5582 325.126 64.4971 325.592 64.338L323.117 63.6285ZM325.592 64.4237C325.151 64.913 324.477 65.121 323.84 64.962C323.313 64.754 322.958 64.2524 322.945 63.6774C322.97 63.604 323.08 63.5918 323.117 63.6407L325.592 64.4237Z" fill="#263238"/>
<path d="M328.899 59.1509C328.899 59.1509 329.059 61.1451 328.997 62.0749C328.997 62.1605 328.764 62.1972 328.446 62.185C326.792 62.3929 325.174 61.6711 324.231 60.3009C324.206 60.252 324.219 60.1908 324.268 60.1663C324.305 60.1419 324.354 60.1541 324.378 60.1786C325.518 61.0594 326.914 61.5366 328.36 61.5488C328.434 61.3041 327.956 58.1599 328.103 58.1599C328.826 58.27 329.524 58.4658 330.198 58.7594C329.965 54.612 329.083 50.5503 328.912 46.4152C328.912 46.2684 329.132 46.2317 329.157 46.4029C330.247 50.746 330.909 55.1748 331.105 59.6403C331.142 60.1296 329.255 59.3344 328.899 59.1509Z" fill="#263238"/>
<path d="M327.871 61.6586C327.368 62.2948 326.695 62.7964 325.947 63.1144C325.53 63.2735 325.065 63.2857 324.636 63.1511C323.693 62.8942 323.68 62.0256 323.864 61.2916C323.962 60.9001 324.109 60.5208 324.293 60.166C325.298 61.0346 326.56 61.5485 327.871 61.6586Z" fill="#263238"/>
<path d="M325.947 63.1139C325.531 63.2729 325.065 63.2852 324.636 63.1506C323.693 62.8937 323.68 62.0251 323.864 61.291C324.893 61.34 325.763 62.0985 325.947 63.1139Z" fill="#FF9CBD"/>
<path d="M303.672 52.6304C305.817 52.8384 312.261 47.9692 314.124 37.8271C314.124 37.8271 311.82 46.807 310.901 48.0426C309.982 49.266 314.491 45.3022 316.133 37.1298C318.425 39.4176 321.034 41.375 323.877 42.9165C327.614 44.6415 329.967 44.9963 330.285 44.7761C330.604 44.5437 325.2 41.791 324 39.7601C324 39.7601 333.52 46.2687 338.213 47.4187C338.752 47.5533 341.288 36.3101 334.745 30.3888C328.19 24.4797 315.68 27.6116 312.041 30.1196C312.041 30.1196 308.279 30.034 303.378 34.8053C298.477 39.5766 301.43 52.3858 303.672 52.6304Z" fill="#263238"/>
<path d="M307.262 54.562C307.262 54.562 303.525 48.1758 300.658 49.4726C297.791 50.7694 300.278 59.7615 303.402 61.2174C304.983 62.0982 306.98 61.5355 307.875 59.9573C307.899 59.9206 307.911 59.8839 307.936 59.8472L307.262 54.562Z" fill="#F7A9A0"/>
<path d="M301.442 52.1169C303.623 53.2057 304.64 55.4079 305.289 57.6345C304.86 56.7414 303.794 56.3499 302.888 56.7781C302.802 56.827 302.704 56.876 302.63 56.9249C302.594 56.9249 302.569 56.9494 302.569 56.9861C302.569 57.0228 302.594 57.0472 302.63 57.0472C303.464 56.8637 304.334 57.2185 304.787 57.9281C305.155 58.5153 305.461 59.1393 305.694 59.7999C305.792 60.0201 306.159 59.9345 306.11 59.7021C306.404 56.7781 304.493 52.5696 301.43 52.0312L301.442 52.1169Z" fill="#263238"/>
</svg>
