<svg width="165" height="29" viewBox="0 0 165 29" fill="none" xmlns="http://www.w3.org/2000/svg">
<path d="M46.4859 4.25388C43.6432 1.41114 40.2278 0 36.2398 0C31.8836 0 28.2637 1.63611 25.3597 4.92877C22.476 1.63611 18.8357 0 14.5 0C10.4915 0 7.07616 1.41114 4.25388 4.25388C1.41114 7.09661 0 10.512 0 14.5V29H7.23977V14.5C7.23977 12.4958 7.95557 10.7983 9.36671 9.38716C10.7779 7.97602 12.4958 7.26022 14.4795 7.26022C16.4633 7.26022 18.1812 7.97602 19.5924 9.38716C21.0035 10.7983 21.7193 12.5162 21.7193 14.5V29H28.9591V14.5C28.9591 12.4958 29.6544 10.7983 31.086 9.38716C32.4972 7.97602 34.2151 7.26022 36.1989 7.26022C38.2031 7.26022 39.9006 7.97602 41.3117 9.38716C42.7228 10.7983 43.4386 12.5162 43.4386 14.5V29H50.6784V14.5C50.7398 10.512 49.3082 7.09661 46.4859 4.25388Z" fill="#00AB78"/>
<path d="M77.2656 4.25388C74.4229 1.41114 71.0075 0 67.0195 0C63.0315 0 59.6161 1.41114 56.7734 4.25388C53.9307 7.09661 52.5195 10.4915 52.5195 14.5C52.5195 18.5085 53.9307 21.9034 56.7734 24.7461C59.6161 27.5889 63.0111 29 67.0195 29C71.028 29 74.4229 27.5889 77.2656 24.7461C80.1084 21.9034 81.5195 18.5085 81.5195 14.5C81.5195 10.4915 80.0879 7.09661 77.2656 4.25388ZM72.1324 19.6333C70.7212 21.0444 69.0033 21.7602 67.0195 21.7602C65.0358 21.7602 63.3178 21.0444 61.9067 19.6333C60.4956 18.2221 59.7798 16.5042 59.7798 14.5204C59.7798 12.5367 60.4956 10.8188 61.9067 9.40762C63.3178 7.99647 65.0358 7.28068 67.0195 7.28068C69.0033 7.28068 70.7212 7.99647 72.1324 9.40762C73.5435 10.8188 74.2593 12.5367 74.2593 14.5204C74.2593 16.5042 73.564 18.2017 72.1324 19.6333Z" fill="#00AB78"/>
<path d="M97.7979 0C93.8098 0 90.3945 1.41114 87.5517 4.25388C84.709 7.09661 83.2979 10.4915 83.2979 14.5V29H90.5376V14.5C90.5376 12.4958 91.2534 10.7983 92.6646 9.38716C94.0757 7.97602 95.7936 7.26022 97.7774 7.26022H102.358V0H97.7979Z" fill="#00AB78"/>
<path d="M157.311 0C157.311 5.99224 155.184 11.1255 150.93 15.3794C146.676 19.6333 141.543 21.7602 135.551 21.7602C129.559 21.7602 124.425 19.6333 120.171 15.3794C115.917 11.1255 113.791 5.99224 113.791 0H106.551C106.551 7.99647 109.394 14.8272 115.059 20.4922C120.724 26.1573 127.554 29 135.551 29C143.547 29 150.378 26.1573 156.043 20.4922C161.708 14.8272 164.571 7.99647 164.571 0H157.311Z" fill="#00AB78"/>
</svg>
