<svg width="316" height="179" viewBox="0 0 316 179" fill="none" xmlns="http://www.w3.org/2000/svg">
<g clip-path="url(#clip0_543_10778)">
<rect x="0.830078" width="314.915" height="178.254" rx="8" fill="white"/>
<path d="M38.7737 176.582H249.355C263.034 167.562 273.004 156.723 279.971 140.751C288.407 121.261 290.218 99.5463 285.134 78.9279C280.995 62.3609 272.086 46.6399 258.466 36.3327C244.847 26.0255 226.294 21.7516 210.08 27.1654C181.375 36.7656 167.278 72.2074 138.386 81.2277C108.72 90.4903 75.6295 68.0289 46.3442 78.4989C27.398 85.2751 15.081 105.552 14.9102 125.67C14.7474 144.974 24.5303 163.503 38.7737 176.582Z" fill="#D6EDEF" fill-opacity="0.5"/>
<path d="M288.885 177.404C288.885 177.459 227.367 177.507 151.507 177.507C75.6468 177.507 14.1133 177.471 14.1133 177.404C14.1133 177.336 75.6349 177.312 151.499 177.312C227.364 177.312 288.885 177.36 288.885 177.404Z" fill="#263238"/>
<path d="M57.8213 44.2607H244.11C247.307 44.2607 249.897 46.8505 249.897 50.0479V169.318C249.897 172.515 247.307 175.105 244.11 175.105H57.8213C54.6239 175.105 52.0342 172.515 52.0342 169.318V50.0479C52.0342 46.8505 54.6239 44.2607 57.8213 44.2607Z" fill="#455A64"/>
<path d="M44.3008 166.656H258.671V171.025C258.671 174.93 255.505 178.095 251.601 178.095H51.3709C47.4664 178.095 44.3008 174.93 44.3008 171.025C44.3008 171.025 44.3008 166.656 44.3008 166.656Z" fill="#455A64"/>
<path d="M244.034 49.46H57.3447V159.956H244.034V49.46Z" fill="#263238"/>
<path d="M131.461 165.429L134.122 169.659H171.554L174.024 165.429H131.461Z" fill="#263238"/>
<path d="M62.4883 53.2021H239.272C239.991 53.2021 240.571 53.7821 240.571 54.501V158.308C240.571 159.027 239.991 159.607 239.272 159.607H62.4883C61.7694 159.607 61.1895 159.027 61.1895 158.308V54.501C61.1895 53.786 61.7694 53.2021 62.4883 53.2021Z" fill="#EBEBEB"/>
<path d="M240.575 160.143H61.1143L61.4439 61.5352H240.575V160.143Z" fill="white"/>
<path d="M76.2193 57.3089C76.2193 58.0993 75.5759 58.7428 74.7854 58.7428C73.995 58.7428 73.3516 58.0993 73.3516 57.3089C73.3516 56.5185 73.995 55.875 74.7854 55.875C75.5759 55.875 76.2193 56.5185 76.2193 57.3089Z" fill="#263238"/>
<path d="M67.5367 57.3089C67.5367 58.0993 66.8932 58.7428 66.1028 58.7428C65.3124 58.7428 64.6689 58.0993 64.6689 57.3089C64.6689 56.5185 65.3124 55.875 66.1028 55.875C66.8932 55.875 67.5367 56.5185 67.5367 57.3089Z" fill="#263238"/>
<path d="M71.8775 57.3089C71.8775 58.0993 71.2341 58.7428 70.4436 58.7428C69.6532 58.7428 69.0098 58.0993 69.0098 57.3089C69.0098 56.5185 69.6532 55.875 70.4436 55.875H70.4476C71.238 55.879 71.8775 56.5185 71.8775 57.3089Z" fill="#263238"/>
<path d="M241.786 165.461C241.786 165.533 200.875 165.588 150.431 165.588C99.9873 165.588 59.0762 165.533 59.0762 165.461C59.0762 165.39 99.9873 165.33 150.451 165.33C200.915 165.33 241.786 165.39 241.786 165.461Z" fill="#263238"/>
<path d="M104.436 160.118L61.1895 159.912V61.5107H104.436V160.118Z" fill="#FAFAFA"/>
<path d="M104.436 159.32C104.377 159.32 104.333 137.423 104.333 110.417C104.333 83.4121 104.377 61.5107 104.436 61.5107C104.496 61.5107 104.54 83.4041 104.54 110.417C104.54 137.431 104.492 159.32 104.436 159.32Z" fill="#263238"/>
<path d="M103.114 141.196C103.114 141.252 93.9106 141.299 82.5627 141.299C71.2149 141.299 62.0039 141.252 62.0039 141.196C62.0039 141.141 71.2069 141.089 82.5627 141.089C93.9186 141.089 103.114 141.137 103.114 141.196Z" fill="#E0E0E0"/>
<path d="M93.5806 87.0782V88.0354H93.4813V87.1616H93.2549V87.0742L93.5806 87.0782Z" fill="#E0E0E0"/>
<path d="M94.0846 87.0782V88.0354H93.9774V87.1616H93.751V87.0742L94.0846 87.0782Z" fill="#E0E0E0"/>
<path d="M94.3154 87.3843C94.3154 87.3446 94.3472 87.3128 94.3869 87.3128H94.3909C94.4266 87.3089 94.4584 87.3406 94.4624 87.3764C94.4624 87.3804 94.4624 87.3804 94.4624 87.3843C94.4664 87.424 94.4346 87.4558 94.3949 87.4598H94.3909C94.3512 87.4598 94.3154 87.428 94.3154 87.3843ZM94.3154 87.9722C94.3154 87.9325 94.3512 87.8967 94.3909 87.8967C94.4306 87.8967 94.4664 87.9325 94.4664 87.9722C94.4664 88.0119 94.4306 88.0476 94.3909 88.0476C94.3512 88.0476 94.3154 88.0159 94.3154 87.9722Z" fill="#E0E0E0"/>
<path d="M95.2646 87.9521V88.0355H94.5894V87.968L94.9866 87.5708C95.0938 87.4636 95.1177 87.396 95.1177 87.3325C95.1177 87.2689 95.0382 87.1498 94.8913 87.1498C94.792 87.1458 94.6927 87.1815 94.6251 87.257L94.5576 87.1974C94.645 87.1021 94.7721 87.0505 94.8992 87.0584C95.0938 87.0584 95.217 87.1577 95.217 87.3206C95.213 87.4397 95.1534 87.5509 95.0581 87.6224L94.7324 87.9442L95.2646 87.9521Z" fill="#E0E0E0"/>
<path d="M96.0437 87.7573C96.0437 87.9202 95.9285 88.0473 95.6942 88.0473C95.5671 88.0513 95.444 88.0076 95.3486 87.9242L95.3963 87.8447C95.4757 87.9242 95.583 87.9639 95.6942 87.9599C95.857 87.9599 95.9444 87.8765 95.9444 87.7613C95.9444 87.6461 95.865 87.5587 95.6227 87.5587H95.4162L95.4638 87.0781H95.9921V87.1655H95.5671L95.5353 87.4714H95.6584C95.9325 87.4714 96.0437 87.5865 96.0437 87.7573Z" fill="#E0E0E0"/>
<path d="M94.5698 132.009V132.974H94.4705V132.096H94.2441V132.009H94.5698Z" fill="#E0E0E0"/>
<path d="M95.0659 132.009V132.974H94.9666V132.096H94.7402V132.009H95.0659Z" fill="#E0E0E0"/>
<path d="M95.3011 132.319C95.2971 132.279 95.3289 132.247 95.3686 132.243H95.3726C95.4123 132.243 95.4481 132.279 95.4481 132.319C95.4441 132.358 95.4123 132.39 95.3726 132.394C95.3329 132.394 95.3011 132.358 95.3011 132.319ZM95.3011 132.903C95.3011 132.863 95.3329 132.831 95.3726 132.831C95.4123 132.831 95.4441 132.863 95.4481 132.903C95.4481 132.946 95.4163 132.978 95.3726 132.982C95.3369 132.982 95.3051 132.954 95.3011 132.918V132.903Z" fill="#E0E0E0"/>
<path d="M96.4085 132.72H96.2178V132.974H96.1185V132.72H95.5664V132.648L96.0748 132.009H96.186L95.6935 132.632H96.0907V132.41H96.19V132.632H96.3807L96.4085 132.72Z" fill="#E0E0E0"/>
<path d="M97.156 132.688C97.156 132.855 97.0408 132.982 96.8065 132.982C96.6794 132.986 96.5563 132.942 96.4609 132.859L96.5086 132.779C96.592 132.855 96.6953 132.895 96.8065 132.891C96.9693 132.891 97.0567 132.811 97.0567 132.692C97.0567 132.573 96.9773 132.493 96.735 132.493H96.5285L96.5801 132.009H97.1044V132.096H96.6635L96.6317 132.402H96.7588C97.0369 132.402 97.156 132.521 97.156 132.688Z" fill="#E0E0E0"/>
<path d="M97.4731 155.726H66.889C64.8236 155.722 63.1514 154.05 63.1475 151.985V151.822C63.1514 149.756 64.8236 148.084 66.889 148.08H97.4731C99.5385 148.084 101.211 149.756 101.215 151.822V151.985C101.211 154.05 99.5385 155.726 97.4731 155.726ZM66.889 148.314C64.9547 148.318 63.3858 149.887 63.3818 151.822V151.985C63.3858 153.919 64.9547 155.488 66.889 155.492H97.4731C99.4074 155.488 100.976 153.919 100.98 151.985V151.822C100.976 149.887 99.4074 148.318 97.4731 148.314H66.889Z" fill="#E0E0E0"/>
<path d="M99.5591 151.786C99.563 152.839 98.713 153.689 97.6605 153.693C96.6079 153.697 95.7579 152.847 95.7539 151.794C95.7499 150.742 96.5999 149.892 97.6525 149.888H97.6565C98.7051 149.884 99.5551 150.734 99.5591 151.782V151.786Z" fill="#00AB78"/>
<path d="M97.6084 152.961C97.5845 152.957 97.5647 152.941 97.5567 152.917L97.3105 152.016L96.4684 151.718C96.4446 151.71 96.4287 151.686 96.4287 151.662C96.4287 151.638 96.4446 151.618 96.4684 151.611L98.4544 150.9C98.4743 150.888 98.4981 150.888 98.518 150.9C98.5339 150.919 98.5339 150.943 98.518 150.963L97.656 152.909C97.656 152.937 97.6362 152.957 97.6084 152.961ZM96.6591 151.662L97.378 151.916C97.3939 151.924 97.4058 151.94 97.4138 151.956L97.6203 152.727L98.3591 151.054L96.6591 151.662Z" fill="white"/>
<path d="M97.3575 152.032C97.3416 152.032 97.3257 152.024 97.3138 152.012C97.2899 151.988 97.2899 151.952 97.3138 151.928L98.4259 150.911C98.4537 150.892 98.4895 150.9 98.5093 150.927C98.5252 150.951 98.5212 150.979 98.5054 150.999L97.3932 152.016C97.3853 152.028 97.3694 152.032 97.3575 152.032Z" fill="white"/>
<path d="M71.9103 151.269H71.5449V151.189H72.3909V151.285H72.0216V152.234H71.9103V151.269Z" fill="#263238"/>
<path d="M73.1527 151.436L72.7555 152.314C72.7277 152.433 72.6165 152.516 72.4934 152.516C72.4219 152.516 72.3544 152.492 72.3027 152.445L72.3544 152.365C72.3901 152.405 72.4417 152.429 72.4974 152.425C72.5649 152.425 72.6125 152.393 72.6602 152.294L72.692 152.218L72.3425 151.424H72.4537L72.7476 152.091L73.0455 151.424L73.1527 151.436Z" fill="#263238"/>
<path d="M74.1186 151.825C74.1186 152.044 73.9399 152.222 73.7214 152.222C73.6023 152.226 73.4871 152.167 73.4235 152.067V152.504H73.3242V151.432H73.4235V151.587C73.4871 151.484 73.6023 151.42 73.7254 151.424C73.9438 151.428 74.1226 151.607 74.1186 151.825ZM74.0114 151.825C74.0034 151.662 73.8644 151.539 73.7016 151.547C73.5387 151.555 73.4156 151.694 73.4235 151.857C73.4315 152.016 73.5625 152.135 73.7214 152.135C73.8803 152.123 74.0034 151.988 73.9915 151.825H74.0114Z" fill="#263238"/>
<path d="M75.0004 151.861H74.341C74.353 152.02 74.488 152.143 74.6508 152.135C74.7422 152.139 74.8296 152.1 74.8931 152.032L74.9527 152.1C74.8216 152.274 74.5754 152.314 74.3966 152.183C74.2854 152.1 74.2219 151.965 74.2378 151.826C74.2378 151.607 74.4165 151.428 74.635 151.428C74.8415 151.416 75.0202 151.571 75.0322 151.778C75.0322 151.794 75.0322 151.81 75.0322 151.826L75.0004 151.861ZM74.341 151.782H74.913C74.8931 151.627 74.7541 151.516 74.5992 151.536C74.4681 151.552 74.3688 151.655 74.353 151.782H74.341Z" fill="#263238"/>
<path d="M76.2032 151.734V152.219H76.1039V152.095C76.0443 152.187 75.9411 152.238 75.8338 152.226C75.6551 152.226 75.5479 152.135 75.5479 152C75.5479 151.865 75.6233 151.778 75.8497 151.778H76.1039V151.73C76.1158 151.623 76.0364 151.527 75.9292 151.519C75.9133 151.519 75.8974 151.519 75.8815 151.519C75.7862 151.519 75.6908 151.551 75.6193 151.615L75.5717 151.535C75.663 151.464 75.7743 151.424 75.8894 151.428C76.0443 151.408 76.1834 151.519 76.2032 151.674C76.2032 151.694 76.2032 151.714 76.2032 151.734ZM76.1039 151.984V151.857H75.8577C75.7028 151.857 75.6551 151.917 75.6551 151.996C75.6551 152.076 75.7266 152.143 75.8537 152.143C75.9609 152.151 76.0642 152.087 76.1039 151.984Z" fill="#263238"/>
<path d="M78.1774 151.766V152.219H78.09V151.774C78.09 151.611 78.0066 151.524 77.8676 151.524C77.7286 151.516 77.6094 151.623 77.6015 151.762C77.6015 151.778 77.6015 151.794 77.6015 151.81V152.207H77.4982V151.762C77.4982 151.599 77.4148 151.512 77.2718 151.512C77.1328 151.504 77.0136 151.611 77.0057 151.75C77.0057 151.766 77.0057 151.782 77.0057 151.798V152.195H76.8984V151.4H76.9977V151.587C77.0613 151.488 77.1725 151.428 77.2877 151.436C77.4068 151.428 77.5181 151.492 77.5657 151.603C77.6293 151.496 77.7484 151.432 77.8755 151.436C78.0384 151.432 78.1774 151.563 78.1774 151.73C78.1774 151.742 78.1774 151.754 78.1774 151.766Z" fill="#263238"/>
<path d="M79.1548 151.861H78.4875C78.4994 152.02 78.6345 152.143 78.7973 152.135C78.8887 152.139 78.9761 152.1 79.0396 152.032L79.0992 152.1C78.9681 152.274 78.7219 152.314 78.5431 152.183C78.4319 152.1 78.3684 151.965 78.3843 151.826C78.3843 151.607 78.563 151.428 78.7814 151.428C78.988 151.416 79.1667 151.571 79.1786 151.778C79.1786 151.794 79.1786 151.81 79.1786 151.826L79.1548 151.861ZM78.4955 151.782H79.0515C79.0476 151.631 78.9244 151.516 78.7735 151.52C78.6226 151.512 78.4955 151.631 78.4875 151.782H78.4955Z" fill="#263238"/>
<path d="M79.2812 152.131L79.3289 152.047C79.4123 152.103 79.5116 152.135 79.6109 152.135C79.7579 152.135 79.8214 152.083 79.8214 152.008C79.8214 151.801 79.3091 151.964 79.3091 151.65C79.3091 151.523 79.4203 151.428 79.6228 151.428C79.7182 151.428 79.8135 151.452 79.8969 151.499L79.8532 151.587C79.7857 151.539 79.7062 151.519 79.6228 151.519C79.4798 151.519 79.4163 151.575 79.4163 151.65C79.4163 151.861 79.9247 151.702 79.9247 152.004C79.9247 152.139 79.8055 152.226 79.603 152.226C79.4878 152.23 79.3766 152.198 79.2812 152.131Z" fill="#263238"/>
<path d="M79.9922 152.131L80.0399 152.048C80.1233 152.103 80.2186 152.135 80.3179 152.135C80.4688 152.135 80.5284 152.083 80.5284 152.008C80.5284 151.801 80.02 151.964 80.02 151.651C80.02 151.523 80.1312 151.428 80.3298 151.428C80.4291 151.424 80.5244 151.452 80.6078 151.5L80.5641 151.587C80.4966 151.539 80.4132 151.515 80.3298 151.519C80.1908 151.519 80.1272 151.575 80.1272 151.651C80.1272 151.861 80.6356 151.702 80.6356 152.004C80.6356 152.139 80.5165 152.226 80.3139 152.226C80.1987 152.23 80.0875 152.199 79.9922 152.131Z" fill="#263238"/>
<path d="M81.4269 151.734V152.219H81.3236V152.095C81.2641 152.187 81.1608 152.238 81.0536 152.227C80.8748 152.227 80.7676 152.135 80.7676 152C80.7676 151.865 80.843 151.778 81.0694 151.778H81.3197V151.73C81.3316 151.623 81.2522 151.527 81.1449 151.52C81.129 151.52 81.1131 151.52 81.0973 151.52C81.0019 151.52 80.9066 151.551 80.8351 151.615L80.7874 151.535C80.8788 151.464 80.994 151.424 81.1092 151.428C81.2641 151.408 81.4071 151.516 81.4269 151.67C81.4269 151.69 81.4269 151.714 81.4269 151.734ZM81.3197 151.984V151.857H81.0734C80.9225 151.857 80.8708 151.917 80.8708 151.996C80.8708 152.076 80.9463 152.143 81.0694 152.143C81.1767 152.151 81.28 152.088 81.3197 151.984Z" fill="#263238"/>
<path d="M82.4591 151.436V152.123C82.4909 152.31 82.3638 152.488 82.1731 152.52C82.1374 152.528 82.0976 152.528 82.0619 152.52C81.9308 152.524 81.7997 152.484 81.6965 152.401L81.7521 152.318C81.8395 152.389 81.9507 152.429 82.0619 152.425C82.2605 152.425 82.3518 152.337 82.3518 152.143V152.04C82.2843 152.143 82.1652 152.202 82.042 152.195C81.8315 152.254 81.6091 152.135 81.5495 151.924C81.4899 151.714 81.6091 151.491 81.8196 151.432C81.8911 151.412 81.9705 151.412 82.042 151.432C82.1691 151.428 82.2883 151.487 82.3558 151.591V151.44L82.4591 151.436ZM82.3558 151.809C82.3638 151.646 82.2327 151.507 82.0698 151.499C81.907 151.491 81.768 151.623 81.76 151.785C81.7521 151.948 81.8832 152.087 82.046 152.095C82.05 152.095 82.0539 152.095 82.0579 152.095C82.2128 152.095 82.3399 151.968 82.3399 151.813V151.809H82.3558Z" fill="#263238"/>
<path d="M83.4241 151.861H82.7688C82.7767 152.02 82.9117 152.143 83.0746 152.135H83.0786C83.1699 152.139 83.2573 152.099 83.3169 152.032L83.3765 152.099C83.297 152.183 83.1898 152.23 83.0746 152.226C82.8561 152.226 82.6774 152.048 82.6774 151.829C82.6218 151.619 82.7449 151.4 82.9554 151.34C83.166 151.285 83.3844 151.408 83.444 151.619C83.4638 151.686 83.4638 151.758 83.444 151.825C83.444 151.829 83.4241 151.849 83.4241 151.861ZM82.7688 151.781H83.3248C83.3248 151.626 83.1977 151.503 83.0468 151.503C82.8919 151.503 82.7688 151.63 82.7688 151.781Z" fill="#263238"/>
<path d="M83.5752 152.147C83.5752 152.103 83.6109 152.067 83.6546 152.067C83.6983 152.067 83.7341 152.103 83.7341 152.147C83.7341 152.191 83.6983 152.226 83.6546 152.226C83.6109 152.226 83.5752 152.191 83.5752 152.147Z" fill="#263238"/>
<path d="M83.8936 152.147C83.8936 152.103 83.9293 152.067 83.973 152.067C84.0167 152.067 84.0524 152.103 84.0524 152.147C84.0524 152.191 84.0167 152.226 83.973 152.226C83.9293 152.226 83.8936 152.191 83.8936 152.147Z" fill="#263238"/>
<path d="M84.2064 152.147C84.2024 152.104 84.2381 152.068 84.2818 152.064H84.2858C84.3295 152.052 84.3772 152.084 84.3851 152.128C84.397 152.171 84.3652 152.219 84.3215 152.227C84.3096 152.231 84.2977 152.231 84.2858 152.227C84.2421 152.227 84.2064 152.191 84.2064 152.147Z" fill="#263238"/>
<path d="M66.8616 152.556C66.7146 152.731 66.4525 152.755 66.2777 152.608C66.1029 152.461 66.0791 152.199 66.2261 152.024L67.084 150.999C67.1714 150.88 67.3382 150.856 67.4574 150.944C67.4653 150.952 67.4733 150.956 67.4812 150.963C67.5924 151.059 67.6083 151.226 67.513 151.341L66.7861 152.211C66.7305 152.254 66.6511 152.254 66.5955 152.211C66.5399 152.163 66.528 152.084 66.5597 152.02L67.1158 151.349L67.0403 151.285L66.5041 151.929L66.4803 151.956C66.4167 152.064 66.4366 152.199 66.5319 152.278C66.6233 152.358 66.7623 152.358 66.8537 152.278L67.5646 151.428C67.6878 151.273 67.6639 151.047 67.513 150.92C67.3621 150.793 67.1357 150.809 67.0006 150.956L66.1069 152.028C65.9282 152.246 65.96 152.572 66.1784 152.751C66.3969 152.93 66.7226 152.898 66.9013 152.679L67.6202 151.813L67.5448 151.75L66.8616 152.556Z" fill="#E0E0E0"/>
<path d="M88.4491 85.0373H69.1613L69.1057 76.6485C69.0739 71.9854 72.8274 68.1763 77.4905 68.1445C77.5103 68.1445 77.5302 68.1445 77.55 68.1445H88.4491C93.1161 68.1445 96.8974 71.9258 96.8974 76.5929C96.8935 81.256 93.1122 85.0373 88.4491 85.0373Z" fill="#EBEBEB"/>
<path d="M90.8446 72.7803C90.8446 72.8161 87.1983 72.8439 82.7021 72.8439C78.2058 72.8439 74.5596 72.8161 74.5596 72.7803C74.5596 72.7446 78.2019 72.7168 82.7021 72.7168C87.2023 72.7168 90.8446 72.7446 90.8446 72.7803Z" fill="#263238"/>
<path d="M90.8446 74.794C90.8446 74.8298 87.1983 74.8576 82.7021 74.8576C78.2058 74.8576 74.5596 74.8298 74.5596 74.794C74.5596 74.7583 78.2019 74.7305 82.7021 74.7305C87.2023 74.7305 90.8446 74.7583 90.8446 74.794Z" fill="#263238"/>
<path d="M90.8446 76.8077C90.8446 76.8434 87.1983 76.8712 82.7021 76.8712C78.2058 76.8712 74.5596 76.8434 74.5596 76.8077C74.5596 76.7719 78.2019 76.7441 82.7021 76.7441C87.2023 76.7441 90.8446 76.7719 90.8446 76.8077Z" fill="#263238"/>
<path d="M90.8446 78.8214C90.8446 78.8571 87.1983 78.8849 82.7021 78.8849C78.2058 78.8849 74.5596 78.8571 74.5596 78.8214C74.5596 78.7856 78.2019 78.7578 82.7021 78.7578C87.2023 78.7578 90.8446 78.7856 90.8446 78.8214Z" fill="#263238"/>
<path d="M82.7299 80.8347C82.6226 80.8546 82.5154 80.8625 82.4081 80.8585L81.5343 80.8824C80.7916 80.8824 79.7708 80.8824 78.6427 80.8824C77.5147 80.8824 76.4939 80.8824 75.7551 80.8824L74.8773 80.8585C74.7701 80.8625 74.6628 80.8546 74.5596 80.8347C74.6628 80.8148 74.7701 80.8069 74.8773 80.8109L75.7551 80.791C76.4939 80.791 77.5147 80.791 78.6427 80.791C79.7708 80.791 80.7916 80.791 81.5343 80.791L82.4081 80.8109C82.5154 80.8109 82.6226 80.8188 82.7299 80.8347Z" fill="#263238"/>
<path d="M223.924 97.8927H200.069L200 87.5176C199.961 81.7504 204.603 77.0393 210.37 77C210.395 77 210.42 77 210.444 77H223.924C229.696 77 234.373 81.6767 234.373 87.4488C234.368 93.2161 229.691 97.8927 223.924 97.8927Z" fill="#00AB78"/>
<path d="M226.886 82.7329C226.886 82.7771 222.377 82.8115 216.816 82.8115C211.255 82.8115 206.745 82.7771 206.745 82.7329C206.745 82.6887 211.25 82.6543 216.816 82.6543C222.381 82.6543 226.886 82.6887 226.886 82.7329Z" fill="#D6EDEF"/>
<path d="M226.886 85.2241C226.886 85.2683 222.377 85.3027 216.816 85.3027C211.255 85.3027 206.745 85.2683 206.745 85.2241C206.745 85.1799 211.25 85.1455 216.816 85.1455C222.381 85.1455 226.886 85.1799 226.886 85.2241Z" fill="#D6EDEF"/>
<path d="M226.886 87.7143C226.886 87.7585 222.377 87.7929 216.816 87.7929C211.255 87.7929 206.745 87.7585 206.745 87.7143C206.745 87.6701 211.25 87.6357 216.816 87.6357C222.381 87.6357 226.886 87.6701 226.886 87.7143Z" fill="#D6EDEF"/>
<path d="M226.886 90.2046C226.886 90.2488 222.377 90.2832 216.816 90.2832C211.255 90.2832 206.745 90.2488 206.745 90.2046C206.745 90.1604 211.25 90.126 216.816 90.126C222.381 90.126 226.886 90.1604 226.886 90.2046Z" fill="#D6EDEF"/>
<path d="M216.85 92.6956C216.717 92.7202 216.585 92.73 216.452 92.7251L215.371 92.7546C214.453 92.7546 213.19 92.7546 211.795 92.7546C210.4 92.7546 209.137 92.7546 208.224 92.7546L207.138 92.7251C207.005 92.73 206.873 92.7202 206.745 92.6956C206.873 92.6711 207.005 92.6613 207.138 92.6662L208.224 92.6416C209.137 92.6416 210.4 92.6416 211.795 92.6416C213.19 92.6416 214.453 92.6416 215.371 92.6416L216.452 92.6662C216.585 92.6662 216.717 92.676 216.85 92.6956Z" fill="#D6EDEF"/>
<path d="M73.427 91.2413H85.3429C87.73 91.2294 89.6723 93.1557 89.6842 95.5429C89.6842 95.5548 89.6842 95.5707 89.6842 95.5826V96.1109C89.6842 98.498 87.7499 100.432 85.3627 100.432H69.1055V95.5826C69.0936 93.1955 71.02 91.2532 73.4072 91.2413C73.4151 91.2413 73.4191 91.2413 73.427 91.2413Z" fill="#EBEBEB"/>
<path d="M86.5549 94.7247C86.5549 94.7604 83.3495 94.7922 79.4054 94.7922C75.4612 94.7922 72.2559 94.7604 72.2559 94.7247C72.2559 94.6889 75.4612 94.6611 79.4054 94.6611C83.3495 94.6611 86.5549 94.6929 86.5549 94.7247Z" fill="#263238"/>
<path d="M80.9777 96.9612C80.8665 96.9771 80.7513 96.985 80.6361 96.985L79.6987 97.0049C78.9043 97.0049 77.812 97.0247 76.6046 97.0247C75.3971 97.0247 74.3048 97.0247 73.5144 97.0049L72.577 96.985C72.4618 96.989 72.3466 96.9771 72.2314 96.9612C72.3466 96.9413 72.4618 96.9294 72.577 96.9334H73.5144C74.3088 96.9334 75.3971 96.9334 76.6046 96.9334C77.812 96.9334 78.9083 96.9334 79.6987 96.9334H80.6361C80.7513 96.9334 80.8665 96.9413 80.9777 96.9612Z" fill="#263238"/>
<path d="M69.9673 120.01V120.975H69.868V120.097H69.6416V120.01H69.9673Z" fill="#E0E0E0"/>
<path d="M70.4642 120.01V120.975H70.3649V120.097H70.1465V120.01H70.4642Z" fill="#E0E0E0"/>
<path d="M70.6944 120.32C70.6904 120.28 70.7222 120.248 70.7619 120.244C70.7659 120.244 70.7659 120.244 70.7699 120.244C70.8096 120.244 70.8453 120.28 70.8453 120.32C70.8453 120.359 70.8096 120.395 70.7699 120.395C70.7301 120.399 70.6984 120.367 70.6944 120.328C70.6944 120.328 70.6944 120.324 70.6944 120.32ZM70.6944 120.907C70.6904 120.868 70.7222 120.836 70.7619 120.832C70.7659 120.832 70.7659 120.832 70.7699 120.832C70.8096 120.832 70.8413 120.864 70.8413 120.903V120.907C70.8493 120.947 70.8255 120.987 70.7857 120.999C70.746 121.007 70.7063 120.983 70.6944 120.943C70.6904 120.931 70.6904 120.919 70.6944 120.907Z" fill="#E0E0E0"/>
<path d="M71.6239 120.697C71.6239 120.86 71.5047 120.983 71.2743 120.983C71.1472 120.987 71.0201 120.943 70.9248 120.86L70.9764 120.78C71.0559 120.856 71.1631 120.895 71.2743 120.892C71.4332 120.892 71.5206 120.816 71.5206 120.697C71.5206 120.578 71.4412 120.506 71.2624 120.506H71.1909V120.435L71.461 120.097H70.9645V120.01H71.5881V120.081L71.3141 120.423C71.5206 120.435 71.6239 120.542 71.6239 120.697Z" fill="#E0E0E0"/>
<path d="M71.7627 120.494C71.7627 120.185 71.9216 120.002 72.1599 120.002C72.3982 120.002 72.5571 120.185 72.5571 120.494C72.5571 120.804 72.3942 120.983 72.1599 120.983C71.9255 120.983 71.7627 120.8 71.7627 120.494ZM72.43 120.494C72.43 120.236 72.3148 120.097 72.148 120.097C71.9811 120.097 71.862 120.24 71.862 120.494C71.862 120.749 71.9772 120.892 72.148 120.892C72.3188 120.892 72.43 120.749 72.43 120.494Z" fill="#E0E0E0"/>
<path d="M97.7083 117.543H72.6135C70.2263 117.543 68.292 115.609 68.292 113.222V112.694C68.292 110.306 70.2263 108.372 72.6135 108.372H93.3868C95.7739 108.372 97.7083 110.306 97.7083 112.694V117.543Z" fill="#EBEBEB"/>
<path d="M92.9415 111.76C92.9415 111.796 88.4214 111.823 82.8448 111.823C77.2682 111.823 72.7441 111.796 72.7441 111.76C72.7441 111.724 77.2682 111.696 82.8448 111.696C88.4214 111.696 92.9415 111.724 92.9415 111.76Z" fill="#263238"/>
<path d="M92.9415 113.937C92.9415 113.972 88.4214 114 82.8448 114C77.2682 114 72.7441 113.972 72.7441 113.937C72.7441 113.901 77.2682 113.873 82.8448 113.873C88.4214 113.873 92.9415 113.901 92.9415 113.937Z" fill="#263238"/>
<path d="M72.676 125.499H84.5918C86.979 125.499 88.9133 127.433 88.9133 129.821V130.349C88.9133 132.736 86.979 134.67 84.5918 134.67H68.3545V129.824C68.3505 127.437 70.2849 125.503 72.676 125.499C72.672 125.499 72.676 125.499 72.676 125.499Z" fill="#EBEBEB"/>
<path d="M86.2214 128.835C86.2214 128.871 82.8293 128.899 78.6429 128.899C74.4564 128.899 71.0684 128.871 71.0684 128.835C71.0684 128.799 74.4604 128.771 78.6429 128.771C82.8253 128.771 86.2214 128.799 86.2214 128.835Z" fill="#263238"/>
<path d="M80.8111 131.012C80.68 131.036 80.545 131.048 80.4139 131.04L79.3693 131.06C78.4875 131.06 77.2681 131.08 75.9256 131.08C74.5831 131.08 73.3597 131.08 72.4779 131.06L71.4333 131.04C71.3023 131.048 71.1672 131.036 71.0361 131.012C71.1672 130.993 71.3023 130.985 71.4333 130.989L72.4779 130.969C73.3597 130.969 74.5791 130.969 75.9256 130.969C77.2721 130.969 78.4875 130.969 79.3693 130.969L80.4139 130.989C80.545 130.985 80.68 130.993 80.8111 131.012Z" fill="#263238"/>
<path d="M174.675 0.0089369C174.786 -0.00297897 174.901 -0.00297897 175.012 0.0089369L176.001 0.0367406C176.22 0.0367406 176.462 0.0367406 176.732 0.0724882L177.606 0.191647L178.623 0.338609L179.763 0.620618C181.721 1.11711 183.584 1.93533 185.28 3.03557C187.54 4.48533 189.482 6.37598 190.992 8.5963C193.335 12.0519 194.491 16.1748 194.28 20.3453C194.249 20.7942 194.26 21.2549 194.193 21.7117C194.125 22.1685 194.054 22.6213 193.986 23.086C193.637 24.9766 193.013 26.8077 192.132 28.5156C191.19 30.307 189.999 31.9514 188.585 33.3972C187.079 34.8747 185.355 36.114 183.473 37.0673C181.526 38.0682 179.417 38.7156 177.245 38.9817C176.693 39.0652 176.136 39.1128 175.58 39.1208C175.024 39.1645 174.464 39.1724 173.904 39.1525C172.772 39.1049 171.648 38.9619 170.54 38.7275C168.149 38.2112 165.877 37.2539 163.839 35.9075H164.046L157.222 38.6481L156.825 38.811L156.916 38.386C157.607 35.8836 158.271 33.4528 158.902 31.0934L158.938 31.2722C157.083 28.8175 155.836 25.9577 155.296 22.9311C155.033 21.525 154.946 20.0911 155.03 18.6612C155.045 17.9741 155.109 17.2909 155.224 16.6117C155.276 16.2741 155.327 15.9404 155.379 15.6108C155.443 15.2851 155.542 14.9673 155.617 14.6456C156.773 10.1612 159.486 6.23299 163.271 3.56781C164.665 2.56687 166.187 1.76851 167.799 1.18464L168.832 0.811272L169.801 0.56501L170.687 0.346553C170.969 0.290946 171.247 0.263142 171.501 0.223422C172.018 0.155899 172.47 0.0685162 172.868 0.0486564L173.872 0.0129088H174.484C174.552 0.00496494 174.623 0.00496494 174.691 0.0129088C174.623 0.0287967 174.556 0.0367406 174.484 0.0407125L173.872 0.088376L172.879 0.155899C172.482 0.187675 172.033 0.286974 171.525 0.362441C163.962 1.66524 157.877 7.30939 156.011 14.7528C155.935 15.0666 155.84 15.3804 155.78 15.7021C155.721 16.0239 155.685 16.3535 155.633 16.6832C155.522 17.3505 155.462 18.0217 155.455 18.697C155.375 20.1031 155.466 21.5131 155.725 22.8953C156.261 25.8544 157.488 28.6467 159.299 31.0458L159.363 31.1292L159.335 31.2285L157.349 38.525L157.059 38.2668L163.879 35.5222L163.986 35.4785L164.082 35.542C166.076 36.8568 168.296 37.7902 170.631 38.2946C171.716 38.521 172.816 38.6521 173.92 38.6918C174.468 38.7117 175.016 38.6997 175.561 38.66C176.105 38.6521 176.649 38.6044 177.185 38.525C179.31 38.2668 181.372 37.6353 183.278 36.6621C185.121 35.7327 186.809 34.5252 188.287 33.0874C189.669 31.6734 190.845 30.0687 191.77 28.321C192.64 26.6488 193.256 24.8575 193.605 23.0065C193.673 22.5537 193.744 22.1049 193.812 21.6601C193.879 21.2152 193.871 20.7624 193.903 20.3215C194.125 16.2264 193.009 12.1711 190.725 8.76312C189.26 6.56663 187.369 4.6879 185.165 3.23813C183.5 2.13393 181.665 1.30777 179.735 0.78744L178.607 0.489543L177.57 0.314777L176.704 0.171787C176.438 0.143983 176.196 0.136039 175.978 0.120152L174.997 0.0486564C174.889 0.0446845 174.782 0.0327686 174.675 0.0089369Z" fill="#263238"/>
<path d="M161.157 148.379L163.126 150.349C163.341 150.559 163.628 150.677 163.929 150.682C164.558 150.686 165.064 150.18 165.069 149.551C165.069 149.547 165.069 149.547 165.069 149.542C165.064 149.241 164.945 148.954 164.736 148.74L162.766 146.77C162.333 146.328 161.617 146.319 161.175 146.752C161.17 146.756 161.166 146.761 161.157 146.77C160.942 146.984 160.819 147.272 160.819 147.572C160.824 147.873 160.947 148.165 161.157 148.379Z" fill="#FAFAFA"/>
<path d="M168.305 118.676C166.837 118.836 165.36 118.836 163.892 118.676C165.36 118.517 166.837 118.517 168.305 118.676Z" fill="#455A64"/>
<path d="M183.715 67.868C182.935 65.5017 184.344 57.0171 182.488 57.0034C180.118 56.9806 180.797 66.5777 180.792 67.4531C180.788 68.3285 179.548 68.3011 179.593 67.526C179.657 66.4136 180.049 55.4487 177.66 55.6402C176.343 55.745 176.511 58.1386 176.511 58.1386C176.511 58.1386 177.245 69.1081 176.124 69.1628C175.002 69.2175 174.601 62.8164 174.51 60.5641C174.419 58.4076 173.511 57.5505 172.517 58.2845C171.524 59.0185 171.724 65.5017 171.779 67.6674C171.834 69.833 172.089 75.7645 169.586 72.8785C167.083 69.9926 164.115 68.6932 163.057 68.8984C161.999 69.1035 161.963 70.6309 163.034 71.1278C163.901 71.529 165.15 72.6415 166.052 73.5168C166.75 74.2737 167.366 75.1034 167.876 75.997C168.578 77.1186 169.089 78.3542 169.385 79.6444C169.887 81.7006 171.245 83.4377 173.119 84.4225L173.001 88.4437L184.558 87.4407L184.782 79.8359C184.9 74.0229 185.917 70.1111 186.528 66.6552C187.508 61.1431 186.797 60.9745 186.136 61.0064C184.695 61.0565 184.481 70.1749 183.715 67.868Z" fill="#B78876"/>
<path d="M183.716 75.3275C183.178 75.4278 182.649 75.56 182.129 75.7241C180.898 76.18 179.845 77.0235 179.129 78.1268C178.915 78.4642 178.737 78.8198 178.596 79.1937L178.527 79.3669L178.386 79.2484C177.583 78.5827 176.681 78.0493 175.705 77.6755C174.976 77.3928 174.511 77.297 174.52 77.256C174.948 77.2742 175.368 77.3609 175.764 77.5159C176.781 77.8442 177.729 78.3639 178.555 79.0432L178.345 79.1025C178.491 78.7104 178.673 78.3365 178.897 77.9809C179.307 77.3518 179.827 76.8046 180.438 76.3624C180.934 76.0068 181.486 75.7287 182.065 75.5417C182.457 75.4187 182.858 75.3366 183.269 75.3092C183.419 75.2955 183.57 75.3001 183.716 75.3275Z" fill="#AA6550"/>
<path d="M182.106 83.4565C181.231 83.8942 180.278 84.1632 179.302 84.2407C178.335 84.4048 177.346 84.382 176.389 84.1723C176.389 84.0902 177.688 84.1723 179.266 83.9671C180.843 83.762 182.083 83.379 182.106 83.4565Z" fill="#AA6550"/>
<path d="M151.086 83.8027C151.086 83.8027 157.109 86.8802 160.277 91.3118C163.446 95.7433 173.016 109.485 173.016 109.485L171.648 88.6309L186.429 86.7161C186.429 86.7161 190.728 107.72 191.736 114.983C192.675 121.781 192.283 128.469 185.645 132.117C177.812 136.421 168.917 130.608 165.958 128.401C162.283 125.665 155.499 121.193 155.499 121.193L151.086 83.8027Z" fill="#E0E0E0"/>
<path d="M143.658 81.1992L139.441 76.4895L121.008 75.0762L118.619 78.9378L125.08 119.259L122.171 159.991H146.189L143.658 81.1992Z" fill="#00AB78"/>
<g opacity="0.3">
<path opacity="0.3" d="M123.283 150.303C123.917 149.628 124.957 148.693 125.882 148.675C132.52 148.529 139.3 147.864 145.943 147.718L146.198 159.991L142.965 158.478C142.783 157.11 142.551 155.418 141.278 154.83C140.558 154.488 139.715 154.62 138.935 154.775C136.537 155.231 134.157 155.87 131.718 156.02C129.279 156.171 126.725 155.819 124.678 154.484C123.949 154.055 123.365 153.421 122.996 152.66C122.627 151.885 122.741 150.968 123.283 150.303Z" fill="black"/>
</g>
<path d="M139.441 76.4893L151.25 84.1305L153.748 92.3279L156.137 117.887L153.502 144.043L158.052 159.991H146.189L146.166 153.699L144.899 109.411L143.659 81.1989L139.441 76.4893Z" fill="#E0E0E0"/>
<path d="M145.801 115.516C145.874 115.411 145.938 115.302 145.997 115.188C146.125 114.951 146.302 114.627 146.521 114.217C146.74 113.806 146.95 113.246 147.228 112.621C147.356 112.306 147.465 111.96 147.593 111.595C147.72 111.23 147.862 110.847 147.966 110.433C148.96 107.15 149.621 102.413 149.48 97.1835C149.48 96.7778 149.453 96.3766 149.425 95.9799V95.9115L149.362 95.8842L147.511 95.1045L147.538 95.296L149.384 93.8143L149.425 93.7824V93.7368C149.444 91.9404 149.156 90.1532 148.582 88.4481C148.126 86.9025 147.611 85.5712 147.164 84.477C146.717 83.3828 146.325 82.5257 146.047 81.9421C145.91 81.6503 145.801 81.4315 145.723 81.281C145.687 81.2035 145.646 81.126 145.596 81.0576C145.618 81.1397 145.65 81.2172 145.687 81.2947L145.983 81.974C146.239 82.5622 146.608 83.4284 147.036 84.5272C147.465 85.6259 147.948 86.9618 148.404 88.5028C148.956 90.1852 149.229 91.9496 149.207 93.7185L149.248 93.641L147.397 95.1228L147.251 95.2413L147.424 95.3143L149.27 96.0939L149.202 95.9981C149.229 96.3857 149.243 96.7869 149.257 97.1881C149.398 102.395 148.769 107.114 147.816 110.41C147.716 110.825 147.579 111.208 147.46 111.572C147.342 111.937 147.237 112.284 147.114 112.598C146.849 113.223 146.658 113.775 146.444 114.203C146.229 114.632 146.079 114.946 145.96 115.188C145.897 115.293 145.846 115.402 145.801 115.516Z" fill="#263238"/>
<path d="M154.095 132.157C154.136 132.043 154.168 131.929 154.195 131.811C154.259 131.565 154.341 131.232 154.446 130.817C154.551 130.402 154.678 129.85 154.801 129.23C154.925 128.61 155.084 127.904 155.212 127.115C155.339 126.326 155.499 125.464 155.618 124.534C155.736 123.604 155.855 122.606 155.964 121.557C156.156 119.455 156.283 117.135 156.283 114.695C156.283 112.256 156.137 109.94 155.941 107.857C155.823 106.808 155.722 105.81 155.576 104.88C155.431 103.949 155.308 103.088 155.166 102.299C155.025 101.51 154.874 100.808 154.747 100.188C154.619 99.568 154.496 99.0346 154.387 98.6015C154.277 98.1684 154.195 97.8538 154.131 97.6076C154.108 97.489 154.072 97.375 154.026 97.2656C154.04 97.3842 154.058 97.5027 154.086 97.6167C154.14 97.8674 154.209 98.2048 154.3 98.6243C154.391 99.0437 154.51 99.5908 154.624 100.215C154.738 100.84 154.888 101.542 155.007 102.331C155.125 103.12 155.276 103.977 155.39 104.907C155.504 105.837 155.622 106.826 155.732 107.875C155.914 109.972 156.046 112.284 156.055 114.714C156.064 117.144 155.932 119.455 155.754 121.553C155.649 122.601 155.563 123.595 155.426 124.525C155.289 125.455 155.18 126.317 155.052 127.101C154.925 127.885 154.788 128.597 154.678 129.217C154.569 129.837 154.455 130.375 154.359 130.812C154.263 131.25 154.204 131.565 154.149 131.815C154.118 131.929 154.099 132.043 154.095 132.157Z" fill="#263238"/>
<path d="M151.235 153.549C151.358 153.923 151.532 154.278 151.746 154.611C152.22 155.436 152.763 156.221 153.365 156.955C153.966 157.693 154.632 158.377 155.348 159.006C155.63 159.284 155.95 159.521 156.292 159.717C156.032 159.421 155.754 159.148 155.457 158.888C154.782 158.231 154.144 157.538 153.542 156.813C152.95 156.084 152.393 155.322 151.887 154.534C151.691 154.192 151.472 153.863 151.235 153.549Z" fill="#263238"/>
<g opacity="0.3">
<path opacity="0.3" d="M145.34 132.148C144.091 131.496 142.564 131.838 141.237 132.344C139.91 132.85 138.615 133.53 137.207 133.516C135.292 133.516 132.579 132.8 131.581 131.173C130.482 129.308 129.666 127.293 129.16 125.186C127.637 118.179 127.29 112.028 125.768 105.016C124.938 101.205 123.885 96.8098 122.471 93.1624C121.104 89.6381 119.827 85.9908 118.751 82.3662C118.942 90.5728 119.134 98.8432 120.401 106.986C121.222 112.215 122.48 117.367 123.169 122.61C123.757 127.101 123.921 131.638 124.081 136.165L128.353 141.39L140.129 141.627L146.279 133.694L145.34 132.148Z" fill="black"/>
</g>
<path d="M102.658 83.4518C98.1441 85.2025 94.7931 89.0778 93.7216 93.8012C90.2658 109.047 84.3479 129.322 84.2567 135.864C84.1382 144.194 87.781 149.898 92.5362 150.951C96.2976 151.781 130.378 149.916 130.378 149.916L131.992 135.691L104.367 133.152L108.147 112.029L104.404 82.7725L102.658 83.4518Z" fill="#E0E0E0"/>
<path d="M104.413 82.7722L112.049 79.6537L120.771 74.9395L120.853 75.1948C119.868 76.8817 118.82 79.9956 119.189 81.915L125.882 116.848L124.364 142.379L122.171 160.001H100.182L108.156 141.23L104.23 105.979L104.413 82.7722Z" fill="#E0E0E0"/>
<path d="M108.379 109.895C108.347 109.967 108.324 110.045 108.315 110.127C108.283 110.309 108.238 110.533 108.183 110.806C108.069 111.426 107.914 112.27 107.727 113.3C107.353 115.439 106.852 118.338 106.291 121.543C105.73 124.748 105.274 127.657 104.923 129.8C104.764 130.835 104.631 131.683 104.531 132.308L104.44 132.991C104.426 133.074 104.426 133.151 104.44 133.233C104.467 133.156 104.486 133.078 104.499 132.996C104.54 132.818 104.581 132.595 104.641 132.321C104.755 131.701 104.91 130.858 105.096 129.827C105.479 127.721 106.008 124.812 106.542 121.584C107.075 118.356 107.572 115.443 107.91 113.328C108.069 112.293 108.201 111.445 108.297 110.82C108.334 110.542 108.361 110.319 108.384 110.136C108.388 110.054 108.388 109.977 108.379 109.895Z" fill="#263238"/>
<path d="M116.586 77.4014C116.586 77.4014 116.586 77.4287 116.554 77.4834C116.522 77.5381 116.513 77.6384 116.481 77.7387C116.426 77.9667 116.326 78.295 116.239 78.7327C115.966 79.9728 115.774 81.2311 115.656 82.494C115.478 84.3998 115.428 86.3146 115.51 88.2295C115.583 90.4088 115.815 92.8206 116.144 95.3738V95.4558H116.221L118.72 95.9118L118.633 95.7567C118.492 96.1397 118.341 96.5546 118.227 96.9786C117.539 99.7734 117.639 102.705 118.515 105.45C119.212 107.675 120.197 109.795 121.446 111.764C122.486 113.451 123.429 114.75 124.077 115.653L124.834 116.679L125.034 116.943C125.08 116.998 125.107 117.03 125.112 117.025C125.093 116.994 125.075 116.962 125.052 116.93C125.007 116.852 124.943 116.766 124.87 116.652L124.15 115.598C123.525 114.687 122.604 113.374 121.583 111.677C120.361 109.712 119.399 107.602 118.715 105.39C117.863 102.682 117.771 99.7916 118.451 97.0379C118.56 96.623 118.706 96.2172 118.843 95.8434L118.893 95.7111L118.761 95.6884L116.262 95.2324L116.353 95.3282C116.021 92.7796 115.784 90.3769 115.692 88.2021C115.601 86.2964 115.633 84.3906 115.788 82.4894C115.888 81.2265 116.062 79.9728 116.303 78.7327C116.381 78.2767 116.467 77.9621 116.508 77.7296C116.508 77.6293 116.545 77.5427 116.559 77.4698C116.568 77.447 116.577 77.4242 116.586 77.4014Z" fill="#263238"/>
<path d="M116.586 113.232V107.661C116.586 107.661 116.513 106.293 117.671 106.576C118.829 106.858 118.61 109.033 118.61 109.033C118.61 109.033 118.829 117.504 118.323 117.431C117.817 117.358 117.621 116.706 117.621 116.706V113.451L116.586 113.232Z" fill="#00AB78"/>
<path d="M111.748 113.579C113.736 113.729 115.733 113.729 117.721 113.579C115.733 113.428 113.736 113.428 111.748 113.579Z" fill="#263238"/>
<path d="M100.737 86.7617C100.938 86.8529 101.148 86.9259 101.362 86.9897C101.927 87.1948 102.483 87.4365 103.021 87.7055C104.786 88.6173 106.322 89.9258 107.499 91.5261C107.831 91.9775 108.128 92.4562 108.379 92.9577C108.597 93.4318 108.775 93.9288 108.907 94.4349C109.135 95.2966 109.29 96.181 109.363 97.0701C109.427 97.8269 109.441 98.4379 109.445 98.8938C109.427 99.1172 109.427 99.336 109.445 99.5594C109.496 99.3406 109.518 99.1172 109.518 98.8938C109.55 98.2874 109.55 97.6765 109.518 97.0701C109.473 96.1674 109.341 95.2692 109.117 94.3938C108.989 93.8741 108.812 93.3634 108.588 92.8756C108.328 92.3604 108.023 91.868 107.676 91.403C106.482 89.7662 104.904 88.4486 103.085 87.5641C102.538 87.2997 101.968 87.0809 101.385 86.9076C101.175 86.8392 100.956 86.7891 100.737 86.7617Z" fill="#263238"/>
<path d="M130.386 149.915C130.382 149.824 130.382 149.737 130.386 149.646C130.386 149.455 130.427 149.19 130.459 148.871C130.527 148.178 130.628 147.189 130.755 145.949C131.034 143.428 131.421 139.876 131.877 135.677L131.973 135.8L121.715 134.929L104.39 133.402C102.639 133.238 100.879 133.584 99.3243 134.4C98.9048 134.624 98.499 134.879 98.1161 135.157L97.8197 135.385C97.7878 135.412 97.7513 135.435 97.7148 135.453C98.1799 135.002 98.7088 134.619 99.2832 134.318C100.842 133.457 102.625 133.078 104.403 133.233L121.751 134.692L132.009 135.581H132.119V135.691C131.626 139.88 131.207 143.441 130.915 145.953L130.55 148.867C130.509 149.19 130.473 149.446 130.45 149.637C130.436 149.733 130.413 149.824 130.386 149.915Z" fill="#263238"/>
<path d="M122.969 150.294C122.923 150.098 122.896 149.898 122.887 149.697C122.85 149.309 122.814 148.744 122.787 148.046C122.654 144.413 122.978 140.775 123.744 137.218C123.895 136.539 124.027 135.992 124.136 135.614C124.177 135.417 124.241 135.221 124.323 135.039C124.309 135.24 124.277 135.44 124.227 135.636C124.141 136.065 124.036 136.607 123.908 137.25C123.653 138.618 123.352 140.515 123.165 142.626C122.978 144.736 122.942 146.656 122.951 148.042C122.951 148.703 122.974 149.255 122.978 149.688C122.996 149.888 122.992 150.094 122.969 150.294Z" fill="#263238"/>
<path d="M126.88 145.835C126.88 145.835 126.994 145.775 127.217 145.775C127.536 145.789 127.846 145.898 128.102 146.095C128.503 146.386 128.731 146.856 128.708 147.353C128.676 147.968 128.293 148.506 127.728 148.748C127.149 148.949 126.501 148.798 126.073 148.356C125.717 147.996 125.594 147.471 125.745 146.988C125.827 146.678 126.009 146.4 126.269 146.209C126.356 146.131 126.465 146.081 126.583 146.063C126.583 146.085 126.483 146.136 126.328 146.277C126.114 146.478 125.968 146.742 125.909 147.029C125.804 147.444 125.922 147.886 126.228 148.187C126.597 148.557 127.149 148.684 127.646 148.511C128.124 148.301 128.448 147.845 128.489 147.326C128.521 146.897 128.339 146.482 128.001 146.213C127.773 146.022 127.5 145.898 127.208 145.857C127.099 145.857 126.989 145.848 126.88 145.835Z" fill="#263238"/>
<path d="M120.867 74.8213L120.725 74.9079L120.269 75.1587L118.587 76.1115L112.086 79.7088L101.143 84.2953C98.8775 85.2072 96.949 86.7983 95.6314 88.8545C94.9065 89.9533 94.3229 91.1341 93.8898 92.3788C93.4156 93.6782 93.0873 95.0323 92.9186 96.4046C90.8944 105.067 88.5965 115.011 86.3671 125.584C85.9111 127.863 85.4552 130.106 84.9993 132.327C84.8853 132.883 84.7941 133.439 84.6938 133.991C84.5935 134.542 84.4887 135.089 84.4203 135.641C84.2653 136.726 84.206 137.825 84.2516 138.924C84.3291 141.062 84.8215 143.164 85.7014 145.115C86.13 146.059 86.6771 146.939 87.3336 147.737C87.981 148.507 88.7515 149.168 89.6132 149.688C91.291 150.691 93.2332 151.17 95.1846 151.056L100.729 150.942C104.303 150.855 107.636 150.75 110.677 150.645L125.084 150.121L129 149.971L130.021 149.939H130.368L130.021 149.966L129.005 150.025L125.088 150.217C121.687 150.377 116.768 150.595 110.686 150.819C107.645 150.933 104.303 151.047 100.733 151.142L95.1846 151.27C93.1922 151.389 91.2135 150.901 89.4992 149.88C88.6148 149.346 87.826 148.671 87.1558 147.887C86.4902 147.071 85.9294 146.173 85.4917 145.215C84.5981 143.237 84.092 141.108 84.0145 138.937C83.9689 137.825 84.0236 136.713 84.1832 135.614C84.2516 135.053 84.361 134.506 84.4568 133.954C84.5525 133.403 84.6482 132.842 84.7622 132.29C85.1817 130.065 85.6376 127.813 86.13 125.542C88.3594 114.974 90.6664 105.026 92.7089 96.3636C92.8776 94.9821 93.2013 93.6189 93.6755 92.3104C94.1132 91.0521 94.7104 89.8576 95.449 88.7497C96.794 86.6661 98.7544 85.0567 101.057 84.1403L112.026 79.5811L118.555 76.0386L120.278 75.1268L120.734 74.8942L120.867 74.8213Z" fill="#263238"/>
<path d="M159.124 111.454H148.701V114.705H159.124V111.454Z" fill="#263238"/>
<path d="M197.667 117.431L162.994 154.415L129.174 154.625L128.371 153.089L161.708 116.971L197.667 117.431Z" fill="#263238"/>
<path d="M164.895 116.971C164.895 116.971 167.147 116.971 167.818 117.755C168.597 118.694 170.097 120.81 166.824 126.194C165.52 128.35 159.123 135.768 156.493 143.369C154.035 150.463 155.157 152.806 155.157 152.806L179.558 152.026L180.014 151.147C180.014 151.147 190.623 122.423 187.814 116.952C186.52 114.459 164.722 116.05 164.895 116.971Z" fill="#E0E0E0"/>
<path d="M183.611 151.297L157.364 151.516C157.049 144.868 159.356 140.04 162.789 134.337C164.102 132.153 165.898 130.283 167.207 128.095C168.584 125.788 169.391 123.189 169.555 120.509C169.623 119.442 169.555 118.288 168.903 117.445C168.251 116.601 165.908 116.556 164.895 116.989C166.031 116.168 167.367 115.676 168.762 115.562C170.882 115.384 188.234 115.503 191.462 115.53C192.242 115.562 193.012 115.689 193.764 115.904C196.117 117.121 196.6 120.326 196.267 122.633C195.953 124.817 194.599 126.878 192.898 129.185C192.406 129.846 191.945 130.534 191.53 131.245C189.739 134.35 184.792 143.058 183.903 146.063C183.47 147.773 183.374 149.551 183.611 151.297Z" fill="#FAFAFA"/>
<path d="M183.611 151.242L177.292 151.292L165.219 151.393L160.149 151.438H158.453C158.139 151.47 157.82 151.47 157.505 151.438C157.482 151.438 157.377 151.438 157.364 151.438C157.35 151.438 157.4 150.95 157.396 150.896C157.396 150.668 157.396 150.44 157.396 150.207C157.396 149.76 157.409 149.314 157.437 148.867C157.542 147.157 157.842 145.466 158.321 143.824C159.297 140.514 160.97 137.441 162.739 134.514C163.71 132.901 164.914 131.455 166.026 129.955C167.098 128.537 167.968 126.969 168.607 125.309C169.231 123.659 169.587 121.913 169.651 120.148C169.683 119.018 169.519 117.468 168.329 116.957C167.786 116.747 167.202 116.642 166.619 116.656C166.231 116.656 165.333 116.606 165 116.875C164.905 116.948 164.955 116.975 165.023 116.957C165.078 116.93 165.133 116.889 165.178 116.848C165.356 116.729 165.543 116.615 165.73 116.515C166.368 116.168 167.052 115.913 167.759 115.753C169.172 115.439 170.704 115.53 172.145 115.516C176.64 115.48 181.14 115.516 185.64 115.516L190.833 115.548C191.649 115.544 192.465 115.621 193.267 115.781C194.635 116.068 195.547 117.449 195.948 118.703C196.372 120.071 196.454 121.525 196.176 122.93C195.83 124.712 194.85 126.308 193.833 127.785C192.921 129.116 191.968 130.402 191.157 131.806C190.6 132.787 190.044 133.762 189.492 134.747C188.175 137.1 186.88 139.47 185.676 141.891C184.641 143.966 183.643 146.022 183.483 148.374C183.41 149.35 183.442 150.33 183.579 151.301C183.579 151.374 183.702 151.343 183.689 151.27C183.347 148.899 183.684 146.473 184.669 144.289C185.699 141.941 186.921 139.671 188.147 137.423C189.264 135.372 190.409 133.334 191.576 131.314C193.277 128.373 196.012 125.806 196.391 122.268C196.623 120.057 196.112 116.797 193.792 115.808C192.985 115.53 192.132 115.407 191.28 115.439H189.383C184.965 115.411 180.543 115.389 176.125 115.393C174.219 115.393 172.313 115.393 170.408 115.43C168.68 115.462 167.025 115.63 165.484 116.528C165.274 116.647 165.069 116.784 164.877 116.93C164.836 116.962 164.877 117.044 164.937 117.025C165.944 116.674 167.043 116.661 168.06 116.98C169.427 117.436 169.587 119.077 169.532 120.331C169.377 123.335 168.415 126.244 166.751 128.752C165.94 129.983 165 131.127 164.12 132.312C163.291 133.443 162.534 134.624 161.841 135.846C160.514 138.052 159.411 140.387 158.54 142.808C157.592 145.607 157.177 148.561 157.314 151.516C157.314 151.548 157.341 151.575 157.373 151.575L166.24 151.502L180.374 151.384L183.616 151.356C183.648 151.365 183.679 151.343 183.689 151.311C183.698 151.279 183.675 151.247 183.643 151.238C183.634 151.238 183.62 151.238 183.611 151.242Z" fill="#263238"/>
<path d="M182.06 145.817C182.06 145.885 177.433 145.935 171.72 145.935C166.007 145.935 161.38 145.885 161.38 145.817C161.38 145.748 166.012 145.698 171.72 145.698C177.428 145.698 182.06 145.753 182.06 145.817Z" fill="#263238"/>
<path d="M182.64 142.361C182.64 142.425 178.012 142.479 172.299 142.479C166.587 142.479 161.959 142.425 161.959 142.361C161.959 142.297 166.591 142.242 172.299 142.242C178.007 142.242 182.64 142.292 182.64 142.361Z" fill="#263238"/>
<path d="M185.421 138.65C185.421 138.714 180.789 138.768 175.081 138.768C169.372 138.768 164.74 138.714 164.74 138.65C164.74 138.586 169.368 138.531 175.081 138.531C180.793 138.531 185.421 138.581 185.421 138.65Z" fill="#263238"/>
<path d="M187.131 135.257C187.131 135.321 182.503 135.376 176.79 135.376C171.078 135.376 166.45 135.321 166.45 135.257C166.45 135.193 171.082 135.139 176.79 135.139C182.499 135.139 187.131 135.193 187.131 135.257Z" fill="#263238"/>
<path d="M188.271 132.158C188.271 132.221 183.643 132.276 177.935 132.276C172.227 132.276 167.595 132.221 167.595 132.158C167.595 132.094 172.222 132.039 177.935 132.039C183.648 132.039 188.271 132.089 188.271 132.158Z" fill="#263238"/>
<path d="M191.078 128.081C191.078 128.15 186.45 128.2 180.738 128.2C175.025 128.2 170.397 128.15 170.397 128.081C170.397 128.013 175.03 127.963 180.738 127.963C186.446 127.963 191.078 128.018 191.078 128.081Z" fill="#263238"/>
<path d="M193.724 124.184C193.724 124.248 189.096 124.303 183.383 124.303C177.671 124.303 173.043 124.248 173.043 124.184C173.043 124.12 177.675 124.065 183.383 124.065C189.091 124.065 193.724 124.12 193.724 124.184Z" fill="#263238"/>
<path d="M193.531 120.477C193.531 120.541 188.904 120.595 183.196 120.595C177.488 120.595 172.842 120.541 172.842 120.477C172.842 120.413 177.469 120.358 183.182 120.358C188.895 120.358 193.531 120.409 193.531 120.477Z" fill="#263238"/>
<path d="M161.708 116.971C161.759 116.998 161.809 117.03 161.85 117.071L162.26 117.395L163.828 118.671L163.869 118.708L163.833 118.749C161.011 121.835 154.892 128.433 147.794 136.042C142.897 141.408 138.178 146.008 134.763 149.323C133.054 150.982 131.663 152.309 130.697 153.226L129.575 154.274L129.279 154.539L129.174 154.625C129.174 154.625 129.201 154.589 129.26 154.525L129.543 154.238L130.633 153.157L134.649 149.204C138.032 145.853 142.724 141.248 147.62 135.878C154.719 128.268 160.874 121.708 163.755 118.676V118.753L162.214 117.436L161.822 117.094C161.781 117.057 161.74 117.016 161.708 116.971Z" fill="#455A64"/>
<path d="M131.964 137.323H136.915C136.915 137.323 140.262 134.405 141.019 134.181C142.61 133.703 146.718 133.201 146.718 133.201L143.914 136.247C143.262 136.949 142.067 137.583 142.774 137.583H147.926C147.926 137.583 153.192 135.057 153.976 135.517C154.633 135.905 154.86 136.607 154.19 137.583C153.52 138.558 148.902 140.865 148.368 141.043L146.859 141.499L148.277 141.955L154.993 139.607C155.426 139.529 156.032 139.456 156.228 139.712C156.579 140.076 156.566 140.651 156.201 141.002C156.196 141.007 156.192 141.007 156.192 141.011C155.234 141.873 154.222 142.671 153.155 143.396C153.155 143.396 154.227 144.973 153.338 145.771C152.449 146.569 149.877 148.962 149.877 148.962C149.877 148.962 149.608 150.294 148.81 150.914C148.013 151.534 139.236 151.534 138.602 151.534C137.969 151.534 134.431 149.496 134.431 149.496L130.578 149.209L131.964 137.323Z" fill="#B78876"/>
<path d="M147.274 145.913C147.584 146.013 147.908 146.058 148.236 146.045C148.597 146.049 148.952 145.985 149.285 145.858C149.686 145.698 150.069 145.493 150.429 145.251C151.191 144.754 151.87 144.299 152.358 143.957C152.636 143.792 152.891 143.596 153.124 143.373C152.828 143.496 152.545 143.647 152.28 143.829C151.77 144.134 151.077 144.577 150.315 145.069C149.969 145.306 149.604 145.507 149.217 145.671C148.902 145.799 148.569 145.871 148.232 145.89C147.648 145.922 147.274 145.881 147.274 145.913Z" fill="#AA6550"/>
<path d="M146.854 149.2C147.022 149.4 147.264 149.532 147.524 149.573C148.148 149.715 148.8 149.605 149.347 149.273C149.881 148.972 150.378 148.602 150.82 148.178C151.157 147.855 151.34 147.627 151.317 147.608C150.651 148.137 149.963 148.634 149.247 149.09C148.746 149.396 148.148 149.519 147.565 149.432C147.319 149.377 147.081 149.3 146.854 149.2Z" fill="#AA6550"/>
<path d="M144.384 141.928C144.849 141.982 145.323 141.946 145.774 141.818C146.239 141.759 146.686 141.604 147.092 141.362C146.631 141.403 146.171 141.49 145.724 141.613C145.268 141.672 144.817 141.782 144.384 141.928Z" fill="#AA6550"/>
<path d="M110.791 43.1897C108.092 38.3706 101.996 36.6473 97.1773 39.3463C97.1363 39.3691 97.0952 39.3919 97.0542 39.4147C95.0892 40.5545 93.4524 42.6061 93.5846 44.8857C93.7077 47.0286 95.3035 48.7565 96.808 50.2839C94.4099 51.2823 93.2108 54.3188 93.995 56.7898C94.7792 59.2609 97.2502 61.0071 99.8308 61.2442C102.411 61.4813 105.015 60.3597 106.879 58.5543C108.703 56.6895 109.98 54.3598 110.563 51.8157" fill="#263238"/>
<path d="M102.603 48.7141C102.188 48.8965 101.741 49.0105 101.29 49.047C100.045 49.1655 98.7914 48.9056 97.6972 48.2993C96.9358 47.8889 96.2701 47.3281 95.7321 46.6534C95.1166 45.8692 94.7063 44.9437 94.5331 43.9634C94.1319 41.6884 94.8294 39.3586 96.416 37.6809C98.0437 36.0623 100.278 35.2006 102.571 35.3101C104.44 35.3465 106.232 36.0851 107.586 37.3754C108.484 38.2599 109.009 39.4544 109.063 40.7127C109.072 41.0501 109.04 41.3875 108.968 41.7158C108.945 41.8297 108.908 41.9118 108.895 41.9665C108.881 42.0212 108.863 42.0486 108.858 42.0486C108.949 41.6109 108.986 41.1595 108.972 40.7127C108.881 39.4909 108.347 38.3465 107.468 37.4939C106.136 36.2538 104.39 35.5563 102.571 35.5289C100.341 35.4332 98.1759 36.2721 96.5938 37.845C95.0619 39.4726 94.3872 41.7249 94.7701 43.927C94.9297 44.8753 95.3218 45.7689 95.9054 46.5303C97.1911 48.1625 99.188 49.0652 101.262 48.9512C101.714 48.9056 102.161 48.8236 102.603 48.7141Z" fill="#263238"/>
<path d="M105.548 50.7026C105.452 50.7846 105.347 50.853 105.233 50.9032C104.941 51.0673 104.636 51.2086 104.321 51.3181C103.847 51.4867 103.359 51.6098 102.862 51.6828C102.251 51.7649 101.631 51.7877 101.016 51.7466C100.396 51.701 99.7848 51.5825 99.1921 51.4047C98.7134 51.2542 98.2438 51.0627 97.8015 50.8257C97.5006 50.6661 97.2179 50.4837 96.949 50.2786C96.762 50.1281 96.6663 50.0415 96.6754 50.0278C96.6845 50.0141 97.1313 50.3105 97.879 50.6752C98.3213 50.8849 98.7772 51.0582 99.2468 51.195C100.405 51.5232 101.618 51.6144 102.812 51.464C103.3 51.4001 103.779 51.2998 104.248 51.1585C105.06 50.9123 105.525 50.6615 105.548 50.7026Z" fill="#455A64"/>
<path d="M93.5752 45.2867C93.6071 45.0952 93.6709 44.9128 93.7576 44.7396C93.9673 44.2472 94.3001 43.8186 94.7241 43.4904C95.3852 43.0527 96.1512 42.7928 96.9445 42.7427C97.8973 42.6651 98.8593 42.7107 99.8031 42.8794C101.517 43.153 103.168 43.7229 104.686 44.5618C105.142 44.8171 105.584 45.0952 106.008 45.4052C106.177 45.5055 106.327 45.6286 106.464 45.77C106.286 45.6925 106.122 45.5922 105.967 45.4782C105.653 45.2867 105.197 45.0223 104.599 44.7122C103.081 43.928 101.444 43.3901 99.7575 43.112C98.8365 42.9478 97.8973 42.8977 96.9627 42.9615C96.2059 42.998 95.4673 43.2305 94.8199 43.6271C94.405 43.928 94.0676 44.3201 93.8396 44.7806C93.7621 44.9539 93.6709 45.1226 93.5752 45.2867Z" fill="#455A64"/>
<path d="M107.5 54.4319C107.5 54.4319 107.5 54.4866 107.436 54.5869C107.372 54.6872 107.299 54.8194 107.19 54.9972C106.862 55.4896 106.474 55.9364 106.041 56.3376C105.394 56.9303 104.65 57.4136 103.843 57.7601C102.849 58.1841 101.773 58.3984 100.693 58.3847C99.6124 58.3802 98.5456 58.1476 97.5608 57.6963C96.7584 57.3224 96.0517 56.7708 95.4955 56.0823C95.1216 55.6173 94.8617 55.0702 94.7341 54.4866C94.6976 54.327 94.6794 54.1675 94.6748 54.0079C94.6748 53.8985 94.6748 53.8438 94.6748 53.8438C94.6748 53.8438 94.7022 54.0717 94.8116 54.4638C94.9711 55.02 95.2447 55.5352 95.6186 55.9775C96.1748 56.6249 96.8632 57.1446 97.6429 57.5002C98.6003 57.9242 99.6398 58.1476 100.688 58.1476C101.737 58.1613 102.777 57.9607 103.748 57.5595C104.541 57.2221 105.275 56.7616 105.918 56.1917C106.506 55.6629 107.035 55.0747 107.5 54.4319Z" fill="#455A64"/>
<path d="M108.37 56.8032C108.224 57.0221 108.056 57.2227 107.869 57.4096C107.531 57.7834 107.03 58.3214 106.364 58.9278C106.031 59.2333 105.653 59.557 105.233 59.8852C103.775 61.1162 101.887 61.718 99.9858 61.5676C98.6591 61.5311 97.3779 61.0889 96.3111 60.3001C95.4722 59.6254 94.8111 58.7545 94.3825 57.7698C94.0862 57.1132 93.9175 56.4066 93.8765 55.6862C93.8628 55.4902 93.8628 55.2941 93.8765 55.0981C93.881 55.0297 93.8902 54.9613 93.9084 54.8975C93.9175 54.9658 93.9175 55.0342 93.9084 55.1026C93.9038 55.2941 93.9175 55.4856 93.9403 55.6771C94.0087 56.3792 94.2002 57.0631 94.5011 57.7014C94.9388 58.6497 95.5953 59.4795 96.416 60.1269C97.4509 60.8746 98.691 61.294 99.9676 61.3305C101.244 61.408 102.521 61.1664 103.679 60.6284C104.176 60.3731 104.65 60.0676 105.083 59.7165C105.502 59.3974 105.881 59.0828 106.218 58.8047C106.893 58.2166 107.413 57.7059 107.773 57.3503C107.96 57.1588 108.16 56.9765 108.37 56.8032Z" fill="#455A64"/>
<path d="M112.204 42.9147L112.87 43.439C112.601 42.3084 111.333 41.6154 110.175 41.7157C109.008 41.9026 107.987 42.6047 107.399 43.6305C106.824 44.6472 106.446 45.7642 106.282 46.9223C105.926 48.8371 105.748 50.8797 106.51 52.6669C107.271 54.4541 109.245 55.8583 111.124 55.4024C113.002 54.9465 114.055 52.8903 114.338 50.9754C114.739 48.1122 113.973 45.2035 112.204 42.9147Z" fill="#00AB78"/>
<path d="M109.592 51.5874C109.044 51.9156 108.402 52.0524 107.768 51.9794C107.326 51.9612 106.888 51.8609 106.478 51.6922C106.145 51.56 106.022 51.3092 106.086 51.3047C106.222 51.405 106.377 51.4871 106.541 51.5372C106.947 51.6512 107.367 51.7196 107.786 51.7424C108.393 51.7333 108.994 51.6831 109.592 51.5874Z" fill="#263238"/>
<path d="M110.518 48.2039C109.793 48.3042 109.059 48.3179 108.33 48.2541C107.6 48.2723 106.866 48.2085 106.15 48.0671C106.875 47.9714 107.609 47.9577 108.339 48.017C109.068 48.0033 109.802 48.0671 110.518 48.2039Z" fill="#263238"/>
<path d="M109.788 44.5882C109.788 44.6657 109.113 44.5882 108.32 44.497C107.982 44.4696 107.645 44.4879 107.317 44.5562C107.066 44.611 106.915 44.6748 106.897 44.6429C106.879 44.611 107.007 44.497 107.267 44.3921C107.608 44.2736 107.973 44.228 108.333 44.2599C108.835 44.2781 109.327 44.3876 109.788 44.5882Z" fill="#263238"/>
<path d="M114.42 35.4429C114.365 33.5371 116.134 32.0599 117.912 31.3396C119.69 30.6192 121.664 30.3776 123.251 29.3107C124.655 28.367 125.599 26.8943 126.784 25.6862C131.348 21.0631 138.793 21.013 143.421 25.5722C144.957 27.0858 146.043 28.9916 146.567 31.0843C147.251 33.8198 146.786 37.0112 144.643 38.8349C142.154 40.9322 138.461 40.4671 135.274 39.8151C132.087 39.1632 128.476 38.5158 125.813 40.3896C124.208 41.5203 123.288 43.3577 122.303 45.0582C121.318 46.7588 120.092 48.4913 118.236 49.1296C116.38 49.7679 113.859 48.6737 113.786 46.7041" fill="#263238"/>
<path d="M114.547 36.4915C114.757 38.0964 113.599 39.528 112.446 40.6586C111.292 41.7893 109.993 42.9884 109.788 44.5887C109.551 46.4625 110.914 48.3044 110.517 50.1464C110.266 51.3181 109.359 52.2208 108.807 53.2831C108.069 54.815 107.946 56.5703 108.465 58.1888C108.921 59.8028 109.696 63.4045 110.818 64.6583C113.918 68.1233 118.851 71.1142 123.383 72.1537C127.915 73.1932 132.62 73.2023 137.261 72.915C141.059 72.6825 145.427 72.8558 148.596 67.6309C150.232 64.9228 151.048 61.3255 151.919 58.2845C152.667 55.663 153.319 52.8591 152.535 50.2467C152.079 48.7239 151.167 47.3744 150.711 45.8516C150.15 43.9504 150.355 41.9124 150.127 39.9246C149.279 32.4885 142.564 27.1497 135.128 27.9977C133.641 28.1664 132.196 28.5813 130.847 29.2241" fill="#263238"/>
<path d="M121.008 79.9912C121.008 79.9912 121.008 80.1052 121.031 80.1599L121.008 79.9912Z" fill="#B78876"/>
<path d="M148.323 43.0616C147.968 37.6134 144.339 30.9296 138.909 31.5177L121.953 35.8444C120.302 36.0222 119.067 37.431 119.103 39.0906L120.963 79.0794C120.991 79.7587 121.146 80.4289 121.419 81.049C122.678 83.821 126.863 90.874 135.945 88.02C138.17 87.3224 139.187 84.8878 139.624 82.3894C139.624 82.093 139.747 81.8286 139.752 81.5459C139.971 79.6812 139.994 77.7982 139.82 75.929C139.852 72.6281 139.848 71.274 139.848 71.3059C139.848 71.3378 146.81 70.1342 148.237 61.0431C148.962 56.525 148.715 49.1163 148.323 43.0616Z" fill="#B78876"/>
<path d="M145.591 48.9879C145.6 49.6217 145.099 50.1414 144.469 50.1642C143.858 50.2144 143.32 49.7584 143.266 49.1475C143.266 49.1384 143.266 49.1247 143.266 49.1156C143.257 48.4864 143.754 47.9621 144.383 47.9393C144.998 47.8892 145.536 48.3451 145.591 48.9606C145.591 48.9697 145.591 48.9788 145.591 48.9879Z" fill="#263238"/>
<path d="M146.722 46.9192C146.576 47.0697 145.691 46.4177 144.442 46.4223C143.193 46.4268 142.272 47.0605 142.135 46.9055C142.067 46.8371 142.217 46.5636 142.614 46.2718C143.156 45.8934 143.799 45.6928 144.46 45.6973C145.117 45.6928 145.755 45.8979 146.284 46.2809C146.662 46.5727 146.795 46.8508 146.722 46.9192Z" fill="#263238"/>
<path d="M133.177 48.9879C133.186 49.6171 132.689 50.1414 132.06 50.1642C131.449 50.2144 130.911 49.7584 130.857 49.1475C130.857 49.1384 130.857 49.1247 130.857 49.1156C130.847 48.4864 131.344 47.9621 131.974 47.9393C132.585 47.8892 133.123 48.3451 133.177 48.956C133.177 48.9651 133.177 48.9788 133.177 48.9879Z" fill="#263238"/>
<path d="M134.394 47.1653C134.248 47.3158 133.363 46.6638 132.114 46.6729C130.865 46.682 129.944 47.3066 129.807 47.1562C129.739 47.0878 129.885 46.8097 130.263 46.5179C130.806 46.1395 131.453 45.9389 132.114 45.9434C132.771 45.9389 133.409 46.144 133.938 46.527C134.335 46.837 134.467 47.1106 134.394 47.1653Z" fill="#263238"/>
<path d="M138.967 56.4697C138.967 56.3967 139.742 56.2599 141.005 56.0958C141.324 56.0639 141.625 56.0001 141.679 55.7812C141.707 55.453 141.629 55.1201 141.465 54.8329C141.16 54.0578 140.845 53.2463 140.512 52.3937C139.19 48.9242 138.233 46.0747 138.369 46.0108C138.506 45.947 139.696 48.7464 141.018 52.1977C141.337 53.0548 141.643 53.8709 141.93 54.6505C142.135 55.0335 142.195 55.4803 142.099 55.9043C142.003 56.1277 141.812 56.2964 141.575 56.3602C141.397 56.4104 141.214 56.4377 141.032 56.4377C139.76 56.5335 138.971 56.5381 138.967 56.4697Z" fill="#263238"/>
<path d="M139.864 71.3285C135.588 71.3923 131.38 70.2708 127.705 68.0869C127.705 68.0869 130.778 74.3741 139.874 73.5033L139.864 71.3285Z" fill="#AA6550"/>
<path d="M138.443 59.4745C137.955 58.8681 137.189 58.5535 136.414 58.6401C135.858 58.6949 135.343 58.9684 134.992 59.4061C134.65 59.8347 134.613 60.4319 134.896 60.9015C135.311 61.362 135.958 61.5216 136.542 61.3164C137.135 61.1021 137.677 60.7784 138.142 60.3544C138.284 60.2541 138.407 60.1264 138.498 59.9806C138.589 59.8438 138.589 59.6614 138.498 59.5246" fill="#AA6550"/>
<path d="M135.278 57.3449C135.484 57.3449 135.488 58.7127 136.646 59.6564C137.804 60.6002 139.263 60.468 139.272 60.6595C139.272 60.7415 138.949 60.9239 138.338 60.9421C137.54 60.9558 136.765 60.6868 136.145 60.1807C135.552 59.6975 135.169 59.0045 135.078 58.2431C135.032 57.6732 135.183 57.3358 135.278 57.3449Z" fill="#263238"/>
<path d="M134.954 44.9805C134.831 45.3225 133.587 45.1629 132.109 45.3453C130.632 45.5276 129.447 45.9288 129.251 45.6234C129.164 45.4775 129.369 45.1674 129.848 44.8255C131.143 44.0003 132.748 43.8179 134.193 44.3331C134.736 44.552 135 44.8164 134.954 44.9805Z" fill="#263238"/>
<path d="M146.253 43.2899C146.034 43.5726 145.168 43.2899 144.128 43.2899C143.089 43.2899 142.213 43.4859 142.008 43.1896C141.917 43.0437 142.058 42.761 142.441 42.4875C143.494 41.8264 144.849 41.8629 145.861 42.5878C146.23 42.8568 146.349 43.1486 146.253 43.2899Z" fill="#263238"/>
<path d="M115.609 65.7346C119.977 66.6054 124.222 63.765 125.093 59.3973C125.261 58.5448 125.293 57.6739 125.184 56.8123C124.901 54.5828 123.697 52.3078 124.472 50.1968C125.494 47.4066 129.41 46.5495 130.45 43.7592C131.056 42.1362 130.513 40.2441 131.197 38.6575C131.84 37.1621 133.409 36.3049 134.94 35.7487C136.472 35.1925 138.109 34.8369 139.39 33.8202C140.671 32.8035 141.474 30.9387 140.649 29.5391C133.86 30.3506 127.194 31.9737 120.789 34.3627C119.307 34.9189 117.748 35.5846 116.872 36.9022C115.96 38.2973 115.988 40.0936 116.065 41.7714C116.444 49.9324 116.827 58.0934 117.205 66.2544" fill="#263238"/>
<path d="M116.18 68.8617C116.125 68.8389 116.075 68.8025 116.029 68.766L115.628 68.4605C115.277 68.1824 114.757 67.7766 114.124 67.2113C113.34 66.532 112.624 65.7797 111.985 64.9636C111.115 63.8785 110.531 62.5883 110.285 61.2205C109.929 59.5336 110.362 57.7737 111.457 56.4424C112.113 55.7814 112.824 55.1704 113.577 54.6188C114.333 54.0443 114.903 53.2601 115.227 52.3665C115.897 50.5109 115.601 48.3681 115.861 46.1751C116.116 43.8864 117.01 41.7162 118.437 39.9108C119.171 38.9989 120.092 38.2466 121.131 37.7087C122.157 37.2436 123.224 36.888 124.323 36.6372C125.339 36.3865 126.292 35.9169 127.113 35.2695C127.888 34.6221 128.572 33.8698 129.142 33.0355C130.282 31.4169 131.125 29.689 132.215 28.2483C132.73 27.5416 133.332 26.9033 134.006 26.3471C134.64 25.8365 135.356 25.4444 136.126 25.1891C137.462 24.683 138.958 24.8334 140.166 25.5903C141.018 26.2514 141.538 27.2498 141.597 28.3258C141.652 28.996 141.456 29.6616 141.05 30.1996C140.946 30.3319 140.822 30.4504 140.681 30.5507C140.59 30.6236 140.54 30.6556 140.535 30.6464C140.531 30.6373 140.572 30.6008 140.654 30.5233C140.781 30.4139 140.891 30.2863 140.987 30.1495C141.351 29.6161 141.515 28.9686 141.442 28.3258C141.351 27.3137 140.832 26.3881 140.015 25.7818C138.862 25.0842 137.449 24.9702 136.199 25.4672C135.465 25.7225 134.781 26.1009 134.18 26.5933C133.532 27.145 132.958 27.7787 132.465 28.4717C131.412 29.8896 130.582 31.613 129.429 33.2771C128.841 34.1434 128.139 34.923 127.341 35.5932C126.484 36.2771 125.485 36.774 124.423 37.0476C123.356 37.2938 122.312 37.6494 121.314 38.1007C120.32 38.6159 119.444 39.3317 118.742 40.2025C117.365 41.9487 116.504 44.046 116.248 46.2526C115.984 48.3726 116.289 50.5519 115.574 52.5215C115.222 53.4698 114.607 54.2996 113.8 54.9151C113.057 55.4485 112.359 56.0321 111.703 56.6704C110.663 57.9287 110.244 59.5837 110.563 61.184C110.791 62.5107 111.343 63.7645 112.163 64.8314C112.779 65.652 113.472 66.4134 114.224 67.111C114.844 67.6855 115.346 68.114 115.678 68.4104C115.856 68.5471 116.025 68.6976 116.18 68.8617Z" fill="#455A64"/>
<path d="M153.064 54.6511C153.306 54.4094 153.488 54.1085 153.593 53.7803C153.803 52.8593 153.616 51.8882 153.074 51.1131C152.759 50.6071 152.335 50.1055 151.906 49.5356C151.419 48.9384 151.058 48.2454 150.858 47.5022C150.675 46.6725 150.644 45.8199 150.758 44.981C150.853 44.1102 151.027 43.2257 151.14 42.323C151.364 40.6178 151.159 38.8853 150.548 37.2805C150.051 35.9674 149.312 34.7638 148.373 33.7197C147.739 33.0176 147.014 32.4021 146.217 31.8961C145.651 31.5359 145.305 31.3718 145.305 31.3535C145.391 31.3763 145.478 31.4082 145.555 31.4538C145.793 31.5632 146.02 31.6818 146.244 31.8186C147.074 32.3018 147.826 32.9082 148.478 33.6103C149.454 34.6544 150.22 35.8763 150.735 37.2075C151.373 38.8443 151.587 40.6133 151.359 42.3549C151.245 43.2667 151.068 44.1558 150.972 45.0083C150.853 45.8244 150.881 46.6497 151.054 47.4566C151.245 48.1724 151.578 48.8426 152.043 49.4217C152.463 49.9916 152.887 50.5068 153.201 51.0311C153.753 51.8472 153.917 52.8639 153.657 53.8167C153.575 54.0675 153.434 54.2955 153.251 54.4869C153.197 54.5508 153.133 54.6055 153.064 54.6511Z" fill="#263238"/>
<rect x="188.999" y="102" width="49.875" height="57" fill="#DADADA"/>
<path d="M238.54 158.891C238.54 158.891 238.54 158.793 238.54 158.619C238.54 158.446 238.54 158.168 238.54 157.827C238.54 157.127 238.54 156.092 238.54 154.762C238.54 152.079 238.54 148.164 238.506 143.197C238.506 133.262 238.465 119.111 238.442 102.226L238.575 102.359H189.115L189.265 102.208C189.265 123.107 189.265 142.59 189.265 158.88L189.138 158.752L224.991 158.816L235.024 158.851H237.673H238.592H237.702H235.076L225.072 158.88L189.126 158.949H188.999V158.822C188.999 142.532 188.999 123.049 188.999 102.15V102H189.155H238.616H238.748V102.133C238.72 119.053 238.696 133.233 238.679 143.191C238.679 148.153 238.65 152.056 238.644 154.757C238.644 156.081 238.644 157.099 238.644 157.792C238.644 158.128 238.644 158.371 238.644 158.567C238.644 158.764 238.54 158.891 238.54 158.891Z" fill="#263238"/>
<mask id="mask0_543_10778" style="mask-type:alpha" maskUnits="userSpaceOnUse" x="188" y="102" width="51" height="57">
<path d="M238.459 102H188.999V158.671H238.459V102Z" fill="#EBEBEB"/>
</mask>
<g mask="url(#mask0_543_10778)">
<path d="M207.733 138.658C192.703 151.901 178.752 166.427 177.603 173.91C175.991 184.274 182.34 187.224 185.198 187.28C192.983 187.448 207.488 156.049 212.526 144.06C217.431 132.414 211.033 135.75 207.733 138.658Z" fill="#00AB78"/>
<path d="M206.367 152.216C205.687 152.216 205.134 151.662 205.134 150.983C205.127 150.142 204.447 149.462 203.606 149.455H202.646V149.749H203.606C204.286 149.756 204.832 150.303 204.832 150.983C204.832 151.83 205.519 152.517 206.367 152.517H207.271V152.216H206.367ZM194.861 176.271C194.182 176.271 193.628 175.717 193.628 175.038C193.621 174.19 192.941 173.51 192.093 173.51H191.14V173.812H192.093C192.773 173.805 193.32 174.351 193.327 175.031V175.038C193.327 175.886 194.013 176.572 194.861 176.572H195.765V176.271H194.861ZM183.356 170.56C182.872 170.077 182.872 169.299 183.356 168.816C183.951 168.22 183.958 167.253 183.363 166.657C183.363 166.657 183.363 166.657 183.356 166.65L182.655 165.95L182.445 166.167L183.145 166.868C183.622 167.351 183.622 168.129 183.145 168.612C182.55 169.201 182.543 170.168 183.131 170.764C183.138 170.771 183.138 170.771 183.145 170.778L183.783 171.415L183.993 171.205L183.356 170.56ZM187.076 182.276L186.376 182.977C185.892 183.46 185.114 183.46 184.631 182.977C184.035 182.381 183.061 182.381 182.466 182.977L181.828 183.614L182.038 183.825L182.676 183.187C183.159 182.711 183.937 182.711 184.421 183.187C185.016 183.783 185.983 183.79 186.579 183.194C186.579 183.194 186.579 183.194 186.586 183.187L187.287 182.486L187.076 182.276ZM196.487 160.316L195.786 161.017C195.303 161.5 194.525 161.5 194.041 161.017C193.446 160.421 192.472 160.421 191.876 161.017L191.239 161.654L191.449 161.872L192.086 161.227C192.57 160.75 193.348 160.75 193.831 161.227C194.427 161.823 195.394 161.83 195.989 161.234C195.989 161.234 195.989 161.234 195.996 161.227L196.697 160.526L196.487 160.316Z" fill="white"/>
<path opacity="0.1" d="M212.527 144.039C207.475 156.028 192.971 187.427 185.2 187.259C184.618 187.238 184.051 187.14 183.497 186.958L213.704 136.107C214.657 136.78 214.65 139.015 212.527 144.039Z" fill="black"/>
<path d="M243.932 185.983C243.834 186.102 200.776 185.387 200.363 184.974C200.208 184.812 204.413 146.827 210.256 137.396C212.66 133.507 219.366 131.51 223.934 137.312C238.053 155.194 244.051 185.836 243.932 185.983Z" fill="#00AB78"/>
<path d="M219.457 171.822C218.777 171.822 218.224 171.268 218.224 170.588C218.224 169.74 217.537 169.054 216.689 169.054H215.736V169.355H216.689C217.369 169.355 217.922 169.909 217.922 170.588C217.929 171.436 218.609 172.116 219.457 172.116H220.361V171.822H219.457ZM206.368 152.202C206.038 152.202 205.73 152.069 205.499 151.837C205.499 151.95 205.45 152.062 205.422 152.174C205.688 152.391 206.024 152.51 206.368 152.503H207.272V152.202H206.368ZM208.295 180.23C207.818 179.761 207.811 178.983 208.281 178.506C208.288 178.499 208.288 178.499 208.295 178.492C208.582 178.205 208.743 177.813 208.743 177.406C208.743 177 208.582 176.614 208.295 176.327L207.594 175.626L207.384 175.837L208.084 176.537C208.561 177.007 208.568 177.785 208.098 178.261C208.091 178.268 208.091 178.268 208.084 178.275C207.489 178.878 207.489 179.845 208.084 180.447L208.729 181.085L208.939 180.875L208.295 180.23ZM217.207 158.375C216.731 157.892 216.731 157.121 217.207 156.637C217.803 156.042 217.803 155.068 217.207 154.472L216.507 153.771L216.297 153.989L216.997 154.689C217.481 155.173 217.481 155.951 216.997 156.434C216.402 157.03 216.402 158.004 216.997 158.599L217.635 159.237L217.852 159.027L217.207 158.375ZM240.331 178.114C239.847 177.63 239.847 176.853 240.331 176.369C240.926 175.774 240.926 174.8 240.331 174.204L239.63 173.503L239.42 173.713L240.121 174.414C240.604 174.898 240.604 175.675 240.121 176.159C239.525 176.755 239.525 177.729 240.121 178.324L240.765 178.962L240.975 178.752L240.331 178.114ZM218.798 185.121L218.343 185.576H218.763L219.008 185.331L218.798 185.121ZM214.657 185.492H216.002C215.561 185.282 215.056 185.289 214.622 185.513L214.657 185.492ZM233.842 154.094L233.345 154.591L233.555 154.801L233.968 154.388L233.842 154.094ZM228.167 176.972V177.876C228.167 178.555 227.613 179.109 226.933 179.109C226.085 179.109 225.406 179.789 225.399 180.636V181.596H225.7V180.615C225.7 179.936 226.247 179.389 226.926 179.389H226.933C227.781 179.382 228.461 178.703 228.461 177.855V176.972H228.167ZM206.192 163.084V163.988C206.192 164.667 205.639 165.221 204.959 165.221C204.111 165.228 203.432 165.908 203.432 166.755V167.708H203.726V166.755C203.726 166.076 204.279 165.522 204.959 165.522C205.807 165.522 206.494 164.836 206.494 163.988V163.084H206.192ZM216.969 138.139V139.043C216.969 139.722 216.416 140.276 215.736 140.276C214.895 140.283 214.215 140.963 214.208 141.803V142.763H214.503V141.803C214.482 141.124 215.021 140.556 215.701 140.535C215.715 140.535 215.722 140.535 215.736 140.535C216.584 140.528 217.264 139.848 217.271 139.001V138.097L216.969 138.139ZM230.521 162.159V163.063C230.521 163.742 229.967 164.296 229.288 164.296C228.44 164.296 227.753 164.983 227.753 165.831V166.784H228.054V165.831C228.054 165.151 228.608 164.597 229.288 164.597C230.135 164.59 230.815 163.911 230.815 163.063V162.159H230.521ZM227.221 150.198C226.541 150.198 225.987 149.644 225.987 148.965C225.987 148.117 225.301 147.43 224.453 147.43H223.514V147.731H224.467C225.146 147.731 225.7 148.285 225.7 148.965C225.707 149.812 226.387 150.492 227.235 150.499H228.138V150.198H227.221Z" fill="white"/>
<path d="M225.315 137.369C239.329 148.356 253.042 167.345 253.147 177.96C253.245 188.471 249.594 187.427 248.557 187.357C242.251 186.943 227.312 157.773 222.771 145.882C218.231 133.991 221.854 134.65 225.315 137.369Z" fill="#00AB78"/>
<path d="M244.212 166.958C243.533 166.958 242.979 166.405 242.979 165.725C242.979 164.877 242.3 164.198 241.452 164.191H240.492V164.492H241.452C242.131 164.499 242.678 165.045 242.678 165.725C242.685 166.573 243.365 167.253 244.212 167.253H245.116V166.958H244.212ZM240.331 178.114C239.847 177.63 239.847 176.852 240.331 176.369C240.926 175.773 240.926 174.799 240.331 174.204L239.63 173.503L239.42 173.713L240.12 174.414C240.604 174.897 240.604 175.675 240.12 176.159C239.525 176.754 239.525 177.728 240.12 178.324L240.765 178.961L240.975 178.751L240.331 178.114ZM238.565 153.302L237.864 154.002C237.381 154.479 236.603 154.479 236.119 154.002C235.524 153.407 234.55 153.407 233.954 154.002L233.317 154.64L233.527 154.85L234.164 154.213C234.648 153.736 235.426 153.736 235.909 154.213C236.505 154.808 237.479 154.808 238.074 154.213L238.775 153.512L238.565 153.302ZM252.109 172.221C251.318 172.284 250.708 172.949 250.708 173.748V174.701H251.009V173.748C251.009 173.082 251.542 172.536 252.208 172.522C252.144 172.403 252.109 172.305 252.074 172.2L252.109 172.221ZM230.521 162.158V162.719L230.801 163.259C230.801 163.196 230.801 163.125 230.801 163.062V162.158H230.521ZM250.764 182.051V182.955C250.764 183.635 250.211 184.189 249.531 184.189C248.683 184.189 248.003 184.868 247.996 185.716V186.669H248.298V185.716C248.298 185.036 248.851 184.483 249.531 184.483C250.372 184.476 251.051 183.796 251.058 182.955V182.051H250.764ZM227.22 150.197C226.541 150.197 225.987 149.644 225.987 148.964C225.987 148.116 225.3 147.43 224.453 147.43H223.514V147.731H224.467C225.146 147.731 225.7 148.285 225.7 148.964C225.707 149.812 226.387 150.492 227.234 150.499H228.138V150.197H227.22Z" fill="white"/>
<path d="M240.141 179.173C239.405 177.848 238.656 176.545 237.941 175.214L235.762 171.248C234.318 168.592 232.861 165.957 231.459 163.281C230.058 160.604 228.657 157.962 227.255 155.279C226.562 153.94 225.882 152.595 225.223 151.243C224.522 149.897 223.92 148.524 223.282 147.15C224.291 150.016 225.461 152.826 226.786 155.559C228.068 158.299 229.462 160.982 230.864 163.659C232.265 166.336 233.772 168.956 235.32 171.549C236.869 174.142 238.403 176.692 240.141 179.173Z" fill="#263238"/>
<path d="M224.754 150.668C224.495 150.184 224.208 149.715 223.885 149.266C223.731 149.056 223.584 148.832 223.416 148.622C223.248 148.412 223.093 148.194 222.904 147.991C223.03 148.531 223.269 149.035 223.605 149.477C223.913 149.939 224.299 150.346 224.754 150.668Z" fill="#263238"/>
<path d="M181.976 158.564C182.676 153.659 184.176 146.785 185.956 145.362C187.735 143.94 194.588 138.895 196.536 138.243C198.484 137.592 207.159 134.403 208.735 135.335C209.997 136.085 208.455 139.413 204.328 140.941C202.086 141.838 199.9 142.875 197.783 144.038C196.725 144.48 194.147 147.864 194.827 149.384C195.226 150.281 197.804 151.353 199.423 150.646C201.042 149.938 201.469 146.75 203.326 145.264C205.183 143.779 208.434 143.996 208.609 144.879C208.785 145.762 207.712 146.154 206.017 149.083C204.924 150.982 204.805 155.579 202.345 158.851C201.091 160.792 199.956 162.803 198.94 164.877L181.976 158.564Z" fill="#AD6359"/>
<path d="M205.064 143.955C205.66 143.878 206.221 143.632 206.683 143.254C206.865 143.079 206.991 142.848 207.054 142.602C207.082 142.462 207.082 142.329 207.054 142.189C207.054 142.042 206.998 141.902 206.9 141.797C206.9 141.797 206.9 141.734 206.935 141.797C206.97 141.86 207.04 141.923 207.082 141.993C207.117 142.056 207.145 142.119 207.174 142.182C207.223 142.308 207.244 142.448 207.237 142.581C207.223 142.883 207.11 143.17 206.907 143.394C206.424 143.892 205.737 144.13 205.05 144.046C205.05 144.046 205.036 143.962 205.064 143.955Z" fill="#263238"/>
<path d="M185.955 145.362C187.546 142.924 191.603 138.53 195.59 137.045C198.28 136.05 207.502 140.639 207.179 142.405C206.857 144.171 205.316 144.157 202.975 143.856C202.127 143.744 197.643 142.076 196.865 143.015C195.751 144.36 194.3 148.985 194.3 148.985L185.955 145.362Z" fill="#AD6359"/>
<path d="M206.963 141.713C205.842 139.814 203.34 138.777 200.853 137.957C200.818 137.957 200.797 137.999 200.853 138.013C201.491 138.223 205.534 140.115 206.956 141.741C206.949 141.762 206.97 141.734 206.963 141.713Z" fill="#263238"/>
<path d="M185.955 145.362C187.546 142.924 191.603 138.531 195.59 137.045C198.28 136.05 205.526 141.88 205.238 143.639C204.951 145.397 202.681 145.524 200.186 144.62C199.381 144.332 196.683 142.391 195.912 143.33C194.791 144.676 192.072 148.018 192.072 148.018L185.955 145.362Z" fill="#AD6359"/>
<path d="M193.643 145.945L194.245 145.041C194.512 144.662 194.778 144.291 195.065 143.927C195.296 143.59 195.577 143.303 195.906 143.065C196.242 142.876 196.628 142.806 197.013 142.855C197.875 143.044 198.688 143.415 199.396 143.941C200.208 144.417 201.911 145.202 203.214 145.076C203.572 145.062 203.929 144.971 204.251 144.81C204.497 144.697 204.714 144.529 204.875 144.319C205.45 143.366 204.756 142.259 204.041 141.474C202.619 140.052 200.958 138.896 199.136 138.062C198.709 137.845 198.267 137.641 197.833 137.438C197.349 137.165 196.81 137.011 196.256 136.969C195.345 136.969 193.846 137.859 193.383 138.132C193.383 138.132 193.32 138.132 193.383 138.076C193.944 137.732 195.345 136.611 196.81 136.674C197.342 136.759 197.854 136.941 198.323 137.207C198.835 137.431 199.339 137.669 199.83 137.908C200.811 138.391 201.75 138.952 202.633 139.589C203.516 140.171 204.279 140.907 204.896 141.769C205.422 142.546 205.471 143.555 205.029 144.382C204.63 144.901 204.02 145.216 203.369 145.244C202.99 145.3 202.598 145.3 202.219 145.244C201.365 145.048 200.531 144.796 199.711 144.48C198.919 144.158 198.211 143.611 197.399 143.359C197.006 143.219 196.579 143.24 196.207 143.422C195.871 143.646 195.577 143.913 195.317 144.221C194.764 144.754 194.266 145.335 193.818 145.959C193.657 146.141 193.538 146.141 193.643 145.945Z" fill="#263238"/>
<path d="M184.771 147.5C185.353 146.337 186.376 141.523 187.322 140.051C188.268 138.58 192.57 133.514 194.553 133.745C197.048 134.053 194.399 138.524 193.075 140.36C191.751 142.195 191.94 145.342 191.94 145.342L184.771 147.5Z" fill="#AD6359"/>
<path d="M194.924 137.312C194.454 137.894 194.041 138.538 193.628 139.169C193.207 139.751 192.829 140.36 192.492 140.991C192.212 141.643 192.044 142.329 191.988 143.037C191.953 143.387 191.939 143.738 191.932 144.081C191.925 144.424 191.932 144.845 191.932 145.223C191.932 145.265 191.995 145.272 191.995 145.223C192.051 144.529 192.149 143.836 192.289 143.156C192.422 142.448 192.64 141.762 192.934 141.103C193.529 139.807 194.398 138.651 195.036 137.354C195.036 137.312 194.959 137.277 194.924 137.312Z" fill="#263238"/>
<path d="M191.983 145.883C191.884 147.081 192.095 148.286 192.585 149.386C193.027 150.507 193.629 151.552 194.386 152.49C195.101 153.394 195.696 154.375 196.173 155.419C196.614 156.498 196.922 157.627 197.091 158.776C197.189 157.578 197.049 156.372 196.684 155.23C196.292 154.088 195.71 153.016 194.968 152.063C194.26 151.152 193.643 150.178 193.132 149.141C192.571 148.125 192.186 147.025 191.983 145.883Z" fill="#263238"/>
<path d="M185.907 186.923C190.77 186.264 193.951 178.136 199.5 163.834C200.474 161.326 187.771 145.896 186.047 148.202C183.868 151.103 178.003 167.247 177.393 171.647C176.174 180.322 180.231 187.686 185.907 186.923Z" fill="#AD6359"/>
<path d="M196.572 171.816L180.904 156.59C180.904 156.59 176.447 169.693 176.868 175.187C177.288 180.68 179.194 186.937 185.809 187.281C190.763 187.54 196.572 171.816 196.572 171.816Z" fill="#00AB78"/>
<path d="M213.374 144.04C215.91 144.293 220.129 139.584 221.39 136.333C221.474 136.108 220.857 133.95 220.234 131.294C219.862 129.676 219.491 127.868 219.267 126.193L209.106 130.152C209.989 132.17 210.62 134.286 210.984 136.459C211.005 136.69 211.005 136.928 210.984 137.159C210.977 137.194 210.977 137.236 210.984 137.271C210.963 138.561 210.9 143.788 213.374 144.04Z" fill="#AD6359"/>
<path d="M211.005 137.109C210.998 137.144 210.998 137.186 211.005 137.221C211.37 137.221 211.734 137.193 212.091 137.137C218.146 136.191 218.58 128.568 218.58 126.438L216.043 127.425L209.106 130.123C209.989 132.141 210.62 134.257 210.977 136.43C211.012 136.654 211.019 136.885 211.005 137.109Z" fill="#263238"/>
<path d="M219.799 114.132C221.264 117.769 220.241 128.749 217.795 131.391C214.243 135.224 207.985 136.114 204.587 131.741C201.315 127.537 202.898 113.215 205.68 110.762C209.772 107.153 217.627 108.751 219.799 114.132Z" fill="#AD6359"/>
<path d="M210.39 123.361C210.39 123.361 210.446 123.396 210.439 123.431C210.369 124.132 210.439 125.029 211.063 125.316C211.063 125.316 211.063 125.365 211.063 125.358C210.243 125.19 210.201 124.048 210.39 123.361Z" fill="#263238"/>
<path d="M211.097 122.633C212.295 122.633 212.232 125.015 211.097 125.029C209.962 125.043 210.095 122.64 211.097 122.633Z" fill="#263238"/>
<path d="M206.1 123.116C206.1 123.116 206.037 123.116 206.037 123.179C206.037 123.922 205.925 124.777 205.245 125.008C205.245 125.008 205.245 125.05 205.245 125.008C206.072 124.952 206.219 123.824 206.1 123.116Z" fill="#263238"/>
<path d="M205.457 122.317C204.266 122.198 204.112 124.587 205.212 124.699C206.312 124.811 206.459 122.429 205.457 122.317Z" fill="#263238"/>
<path d="M212.303 120.915C211.981 120.852 211.665 120.768 211.35 120.663C211.007 120.621 210.685 120.467 210.432 120.221C210.292 120.039 210.292 119.78 210.432 119.598C210.776 119.304 211.259 119.219 211.686 119.374C212.135 119.458 212.534 119.71 212.808 120.074C212.976 120.32 212.913 120.656 212.667 120.824C212.562 120.894 212.429 120.929 212.303 120.915Z" fill="#263238"/>
<path d="M204.491 120.299C204.813 120.243 205.135 120.173 205.451 120.082C205.801 120.047 206.123 119.9 206.382 119.668C206.523 119.486 206.523 119.227 206.382 119.045C206.046 118.736 205.577 118.631 205.142 118.779C204.687 118.863 204.273 119.108 203.993 119.479C203.839 119.731 203.916 120.068 204.175 120.222C204.266 120.278 204.378 120.306 204.491 120.299Z" fill="#263238"/>
<path d="M211.391 129.639C211.223 129.814 211.048 130.06 210.782 130.088C210.501 130.088 210.228 130.032 209.976 129.92C209.976 129.92 209.927 129.92 209.976 129.962C210.2 130.256 210.565 130.403 210.929 130.34C211.244 130.242 211.468 129.969 211.496 129.639C211.475 129.625 211.419 129.611 211.391 129.639Z" fill="#263238"/>
<path d="M210.557 127.433C210.193 128.036 209.59 128.463 208.897 128.603C208.602 128.659 208.294 128.687 207.993 128.666C207.937 128.673 207.874 128.673 207.818 128.666C207.762 128.673 207.705 128.673 207.649 128.666C207.565 128.652 207.509 128.589 207.502 128.505V128.428V128.358C207.502 127.79 207.502 126.957 207.502 126.957C207.299 127.062 206.241 127.566 206.255 127.272C206.255 124.679 206.521 122.101 207.047 119.564C207.047 119.522 207.075 119.494 207.117 119.494C207.159 119.494 207.187 119.522 207.187 119.564C207.187 121.954 206.788 124.322 206.76 126.711C207.138 126.529 207.53 126.396 207.944 126.319C208.021 126.319 207.846 128.001 207.881 128.26C208.834 128.33 209.766 128.015 210.48 127.384C210.543 127.328 210.599 127.377 210.557 127.433Z" fill="#263238"/>
<path d="M207.272 114.343C208.021 115.562 209.346 116.312 210.775 116.34C212.247 116.361 213.62 115.619 214.405 114.371L207.272 114.343ZM214.461 114.371C213.753 115.752 212.338 116.628 210.789 116.649C209.269 116.586 207.888 115.717 207.18 114.364C207.152 114.336 207.236 114.28 207.272 114.343L214.461 114.371Z" fill="#263238"/>
<path d="M212.617 106.138C214.418 105.997 216.128 106.957 216.948 108.569C217.41 109.501 217.628 110.531 217.578 111.568L212.617 106.138ZM217.515 111.568C217.487 109.844 216.668 108.226 215.287 107.189C213.998 106.243 212.253 106.222 210.936 107.133C210.228 107.63 209.71 108.359 209.464 109.193C209.464 109.284 209.303 109.249 209.324 109.151C209.682 107.553 210.992 106.348 212.617 106.138L217.515 111.568Z" fill="#263238"/>
<path d="M199.206 108.233C199.753 107.182 200.657 106.362 201.75 105.913C203.263 105.29 204.798 105.668 206.318 106.074C206.36 106.074 206.318 106.152 206.318 106.138C205.05 105.689 203.684 105.626 202.38 105.948C201.294 106.292 200.369 106.992 199.746 107.945C198.484 109.977 198.912 112.626 200.748 114.154C201.799 114.987 203.151 115.352 204.482 115.163C204.531 115.163 204.559 115.233 204.482 115.24C201.82 115.73 199.262 113.971 198.765 111.309C198.568 110.265 198.723 109.186 199.199 108.233H199.206Z" fill="#263238"/>
<path d="M220.312 116.508C220.312 116.508 220.599 113.173 219.884 112.031C219.169 110.889 217.313 110.405 217.313 110.405C217.313 110.405 216.612 107.441 213.963 106.902C211.588 106.39 209.661 108.303 209.661 108.303C209.661 108.303 206.816 104.519 202.752 105.844C198.891 107.098 198.548 112.655 201.785 114.911C204.055 116.494 207.741 114.848 207.741 114.848C208.056 114.946 211.027 117.447 213.977 114.904C213.977 114.904 215.967 117.006 217.446 115.941C217.446 115.857 219.05 116.929 220.312 116.508Z" fill="#263238"/>
<path opacity="0.2" d="M220.011 125.12C219.31 124.174 218.273 121.35 217.775 120.103C217.278 118.856 217.537 113.545 217.698 111.197C218.623 111.996 219.345 113.005 219.8 114.14C220.669 116.298 220.662 121.056 220.011 125.12Z" fill="#263238"/>
<path d="M218.265 123.144C218.265 123.144 220.472 119.472 222.119 120.243C223.766 121.014 222.273 126.206 220.451 127.026C219.526 127.523 218.377 127.173 217.88 126.248C217.866 126.227 217.859 126.199 217.845 126.178L218.265 123.144Z" fill="#AD6359"/>
<path d="M221.657 121.722C221.657 121.722 221.657 121.722 221.657 121.771C220.388 122.387 219.786 123.649 219.386 124.938C219.646 124.419 220.276 124.202 220.795 124.461C220.844 124.482 220.893 124.51 220.935 124.546C220.97 124.546 220.935 124.623 220.9 124.616C220.423 124.503 219.919 124.693 219.646 125.106C219.422 125.449 219.239 125.814 219.099 126.192C219.05 126.311 218.833 126.262 218.868 126.122C218.735 124.419 219.877 122.009 221.657 121.722Z" fill="#263238"/>
<path d="M217.964 165.964L215.925 144.074L214.587 143.002L184.562 142.819L185.255 163.637L186.594 164.709L217.964 165.964Z" fill="#37474F"/>
<path d="M216.626 164.892L214.587 143.002L183.224 141.748L185.256 163.638L216.626 164.892Z" fill="#455A64"/>
<path d="M196.783 152.188C197.302 151.277 198.416 150.885 199.39 151.27C200.28 151.495 200.819 152.399 200.595 153.289C200.574 153.359 200.553 153.429 200.525 153.499C200.006 154.41 198.899 154.795 197.925 154.41C197.035 154.192 196.496 153.296 196.713 152.413C196.727 152.336 196.755 152.258 196.783 152.188Z" fill="white"/>
<path d="M250.015 187.335C245.327 187.98 239.504 184.336 224.341 173.279C222.239 171.751 229.064 154.052 231.383 155.572C234.312 157.485 245.243 165.543 245.972 166.237C252.089 172.067 253.189 186.901 250.015 187.335Z" fill="#AD6359"/>
<path d="M236.827 160.926C236.827 160.926 232.518 154.872 229.267 152.391C225.819 149.904 221.818 148.292 217.614 147.683C213.074 146.982 201.638 148.537 201.498 151.887C201.372 154.935 212.99 152.791 212.99 152.791C212.99 152.791 200.783 153.022 201.316 156.729C201.848 160.435 215.183 157.17 215.183 157.17C215.183 157.17 202.647 157.689 203.796 161.423C204.665 164.226 216.913 161.97 216.913 161.97C216.913 161.97 206.144 162.495 206.907 165.431C207.755 168.683 219.191 167.295 219.191 167.295C222.4 174.435 226.997 176.446 230.339 177.554C231.11 177.841 236.827 160.926 236.827 160.926Z" fill="#AD6359"/>
<path d="M217.165 152.446C215.764 152.446 214.279 152.383 212.849 152.489C211.42 152.594 209.99 152.748 208.575 152.979C206.718 153.252 204.896 153.736 203.151 154.422C206.34 153.434 211.462 152.986 212.891 152.881C214.321 152.776 215.743 152.601 217.172 152.496C217.208 152.51 217.207 152.446 217.165 152.446Z" fill="#263238"/>
<path d="M217.635 157.618C215.799 157.667 213.984 157.653 212.148 157.779C210.312 157.905 208.645 158.193 206.802 158.445C206.662 158.445 206.718 158.529 206.858 158.515C208.673 158.333 210.361 158.312 212.19 158.151C214.019 157.99 215.82 157.758 217.642 157.667L217.635 157.618Z" fill="#263238"/>
<path d="M236.826 158.522L230.856 180.244C230.856 180.244 246.875 189.669 250.413 187.174C253.952 184.68 251.632 172.123 247.61 167.337C245.936 165.368 236.826 158.522 236.826 158.522Z" fill="#00AB78"/>
<path d="M236.596 159.244L236.827 158.544H236.771C238.284 159.777 239.805 161.003 241.297 162.25C242.79 163.498 244.296 164.738 245.719 166.055C246.441 166.693 247.12 167.38 247.751 168.108C248.361 168.851 248.9 169.65 249.37 170.491C250.294 172.193 250.946 174.036 251.296 175.949C251.142 173.98 250.61 172.06 249.734 170.294C249.292 169.405 248.76 168.564 248.136 167.793C247.499 167.05 246.819 166.349 246.09 165.691C244.64 164.374 243.119 163.14 241.578 161.935C240.036 160.73 238.446 159.602 236.813 158.516H236.771V158.565L236.596 159.244Z" fill="#263238"/>
</g>
<path d="M171.66 17.1797C171.629 17.549 171.527 17.9138 171.434 18.2686C171.327 18.6614 171.217 19.0669 171.194 19.4839C171.152 20.1826 171.351 20.8683 171.543 21.5289C171.711 22.1113 171.883 22.7116 171.889 23.3132C171.897 24.5407 171.143 25.7021 170.053 26.1371C170.018 26.1502 169.979 26.1642 169.935 26.1756C169.819 26.2059 169.728 26.1989 169.67 26.1527C169.559 26.0703 169.546 25.8855 169.626 25.5995C169.801 24.9812 170.035 24.1439 169.799 23.3756C169.616 22.7781 169.137 22.2808 168.553 22.0762C168.244 21.9728 167.91 21.9562 167.58 22.0271L167.562 22.0319C167.548 22.0357 167.532 22.0359 167.518 22.0397C167.503 22.0435 167.49 22.0508 167.479 22.0537L167.457 22.0594C167.138 22.1581 166.852 22.3367 166.633 22.5785C166.224 23.0428 166.053 23.7097 166.182 24.3215C166.353 25.1068 166.97 25.7214 167.422 26.1757C167.632 26.3859 167.711 26.5536 167.658 26.6787C167.626 26.7486 167.554 26.7982 167.434 26.8295C167.395 26.8399 167.354 26.8467 167.313 26.8536C166.153 27.0071 164.924 26.3642 164.333 25.2892C164.04 24.7625 163.897 24.1546 163.762 23.5636C163.601 22.891 163.44 22.1994 163.065 21.6097C162.837 21.258 162.546 20.9577 162.261 20.6673C162.002 20.4044 161.738 20.1354 161.53 19.8286C160.94 18.9647 160.854 17.8807 160.886 17.1271C160.918 16.3771 161.119 15.0261 162.105 14.3416C162.327 14.1837 162.577 14.0723 162.867 13.9965C163.443 13.8458 164.068 13.8668 164.728 13.89C164.939 13.8964 165.155 13.9054 165.363 13.9045L165.391 13.9051L165.414 13.8913C165.6 13.7888 165.78 13.6765 165.964 13.5668C166.529 13.2233 167.06 12.9 167.636 12.7493C167.926 12.6734 168.198 12.6484 168.473 12.6765C169.668 12.7904 170.504 13.8704 170.896 14.5095C171.292 15.1512 171.748 16.1386 171.66 17.1797Z" fill="#00AB78"/>
</g>
<defs>
<clipPath id="clip0_543_10778">
<rect x="0.830078" width="314.915" height="178.254" rx="8" fill="white"/>
</clipPath>
</defs>
</svg>
