<svg width="71" height="57" viewBox="0 0 71 57" fill="none" xmlns="http://www.w3.org/2000/svg">
<path d="M70.7181 29.4899L68.209 28.0719L68.1556 15.2027C69.1032 13.5311 68.0222 11.8662 66.3539 11.5158L66.2138 6.27407C66.2138 6.27407 69.0598 3.04427 67.2648 1.26588C65.4697 -0.515854 62.4935 -0.025375 60.4849 4.27213C58.4762 8.56963 54.5658 13.7113 48.6133 14.809C45.547 15.3729 40.2118 15.6632 35.7509 15.8133C31.2865 15.7032 25.9513 15.4563 22.8784 14.9191C16.9159 13.8714 12.9621 8.76316 10.9167 4.48234C8.87142 0.201514 5.89186 -0.262274 4.11013 1.5328C2.3284 3.32788 5.20453 6.53433 5.20453 6.53433L5.10777 11.7794C3.43948 12.1431 2.37512 13.8181 3.33605 15.4797L3.38943 28.3488L0.893679 29.7902L0.690148 38.0115C0.626753 40.5807 1.70447 43.0464 3.63301 44.7447L15.7281 55.3884C16.9159 56.4328 18.4474 57.0066 20.0289 57L32.8247 56.9466L39.0173 56.9199L51.8164 56.8665C53.398 56.8598 54.9228 56.2726 56.1039 55.2183L68.1089 44.4745C70.0241 42.7595 71.0818 40.2871 70.9951 37.7179L70.7181 29.4899Z" fill="#F7A312"/>
<path d="M68.9704 23.4224C69.2073 23.3624 70.4252 15.3446 67.9227 15.2045C65.0032 15.0376 64.9599 18.9114 64.5428 19.0916C64.1257 19.2717 63.7053 18.3809 62.2773 19.1016C61.2529 19.6187 60.9793 22.1445 60.8592 22.1479C60.4255 22.1512 59.6047 21.5573 58.3568 21.921C57.1056 22.2847 56.822 25.3243 56.4049 25.3843C55.9878 25.4444 55.494 24.0664 53.8991 24.2633C51.8738 24.5102 51.4067 27.0726 51.4067 27.0726L50.7528 27.2528C50.2723 26.3019 48.604 26.0116 47.5897 26.1351C46.5787 26.2585 46.4019 27.0927 45.6311 27.9301C44.8604 28.7676 44.9204 28.5874 44.9204 28.5874C44.9204 28.5874 43.4223 26.4487 40.3226 26.4621C37.2229 26.4754 35.925 29.0412 35.925 29.0412L35.865 29.138L35.8049 29.0412C35.8049 29.0412 34.4836 26.4854 31.3839 26.4988C28.2843 26.5121 26.8062 28.6642 26.8062 28.6642C26.8062 28.6642 26.8662 28.8444 26.0888 28.0102C25.3114 27.1794 25.1279 26.3453 24.1136 26.2318C23.0992 26.1184 21.4343 26.422 20.9605 27.3763L20.3032 27.1994C20.3032 27.1994 19.8161 24.6403 17.7874 24.4101C16.1892 24.2299 15.7054 25.6112 15.2883 25.5512C14.8713 25.4944 14.5609 22.4548 13.3064 22.1045C12.0552 21.7508 11.2377 22.3514 10.804 22.3547C10.6839 22.3547 10.3869 19.8289 9.36257 19.3218C7.93118 18.6111 7.51745 19.5086 7.09704 19.3318C6.67997 19.155 6.60323 15.2812 3.68373 15.4714C1.18463 15.6349 2.46588 23.6393 2.70611 23.6994C2.70611 23.6994 1.8753 24.717 1.902 30.6728C1.902 30.6728 2.68275 32.3978 3.87725 32.6914C3.87725 32.6914 4.24093 34.2396 5.43209 34.4131C5.43209 34.4131 5.32532 37.1558 8.66189 37.0223C8.66189 37.0223 9.98985 40.8293 13.5633 40.876C13.5633 40.876 14.948 44.5629 18.1077 45.0267C18.1077 45.0267 19.6692 47.7027 24.3104 46.4314C24.3104 46.4314 27.2433 49.7547 30.1494 46.4081C30.1494 46.4081 32.7886 50.6288 35.8116 46.3847L35.9284 46.0144L36.0485 46.3814C39.1048 50.5988 41.7106 46.358 41.7106 46.358C44.6435 49.6813 47.5496 46.3347 47.5496 46.3347C52.2042 47.5659 53.739 44.8799 53.739 44.8799C56.8954 44.3895 58.25 40.6892 58.25 40.6892C61.8235 40.6158 63.1214 36.7954 63.1214 36.7954C66.458 36.9022 66.3279 34.1595 66.3279 34.1595C67.519 33.976 67.8694 32.4245 67.8694 32.4245C69.0605 32.1209 69.8279 30.3892 69.8279 30.3892C69.8079 24.4301 68.9704 23.4224 68.9704 23.4224Z" fill="white"/>
<path d="M39.5817 40.2137C38.2871 40.2204 36.9291 40.0168 35.6912 39.4296C35.6111 39.3929 35.5778 39.2961 35.6145 39.2161C35.6545 39.136 35.7479 39.0993 35.828 39.1393C39.7218 40.9878 45.0703 38.799 45.127 38.7756C45.1571 38.7623 45.1871 38.759 45.2205 38.7656C51.0027 39.8934 51.967 36.4934 51.977 36.4567C51.997 36.3867 52.0604 36.3366 52.1305 36.3366C52.1338 36.3366 52.1405 36.3366 52.1439 36.3366C52.1639 36.3399 53.8855 36.4767 55.5004 35.7727C57.082 35.0887 57.7827 32.3027 57.7893 32.276C57.7993 32.2326 57.8294 32.1959 57.8694 32.1726C57.9094 32.1492 57.9562 32.1459 57.9962 32.1592C58.0162 32.1659 60.0749 32.8365 61.1292 32.0858C62.4105 31.1716 62.8009 28.6158 62.8042 28.5891C62.8175 28.509 62.8943 28.4656 62.971 28.4523C62.991 28.4556 64.9062 28.5257 65.7371 27.8384C66.401 27.2878 66.391 25.2292 66.3276 24.4818C66.3243 24.425 66.351 24.3717 66.3944 24.3383C66.4411 24.3083 66.5045 24.3016 66.5545 24.3249C66.9582 24.5118 67.3319 24.5385 67.6689 24.4017C68.3195 24.1348 68.6232 23.3507 68.6265 23.3407C68.6599 23.2572 68.75 23.2172 68.8334 23.2472C68.9168 23.2806 68.9568 23.3707 68.9268 23.4541C68.9135 23.4908 68.5698 24.3783 67.7924 24.6986C67.442 24.8421 67.065 24.8455 66.6646 24.7153C66.698 25.436 66.7147 27.448 65.9406 28.0886C65.1465 28.7426 63.5883 28.7759 63.0978 28.7793C62.9977 29.3498 62.5406 31.4752 61.3128 32.3494C60.2984 33.0734 58.5901 32.6664 58.0563 32.5129C57.8761 33.1502 57.1387 35.409 55.6239 36.0663C54.1692 36.697 52.6744 36.6803 52.2373 36.6603C51.9904 37.3042 50.579 40.1236 45.2004 39.0859C44.8201 39.2494 42.3443 40.2037 39.5817 40.2137Z" fill="#F7A312"/>
<path d="M32.1075 40.2461C29.3449 40.2561 26.8624 39.3252 26.4754 39.1718C21.0902 40.2495 19.6688 37.4467 19.4186 36.8061C18.9781 36.8295 17.4867 36.8595 16.0286 36.2389C14.5105 35.5949 13.7531 33.3428 13.5695 32.7088C13.0357 32.869 11.3307 33.286 10.3097 32.572C9.07518 31.7078 8.60139 29.5858 8.49462 29.0152C8.01415 29.0119 6.4493 28.9985 5.64852 28.3479C4.86776 27.714 4.86776 25.6987 4.89779 24.9813C4.50074 25.1148 4.12371 25.1148 3.77003 24.9746C2.98927 24.6643 2.63893 23.7768 2.62559 23.7401C2.59222 23.6567 2.6356 23.5633 2.71568 23.5332C2.79576 23.4999 2.89251 23.5399 2.92254 23.6233C2.92588 23.63 3.23952 24.4174 3.89015 24.6777C4.2238 24.8078 4.5975 24.7811 5.00123 24.5909C5.05128 24.5676 5.11134 24.5709 5.16139 24.6043C5.2081 24.6376 5.23479 24.691 5.23145 24.7478C5.17807 25.4951 5.18474 27.5538 5.85205 28.0977C6.68953 28.7783 8.60139 28.6882 8.62141 28.6882C8.70482 28.6983 8.77489 28.7416 8.78824 28.825C8.79157 28.8517 9.20531 31.4042 10.4966 32.3084C11.5609 33.0525 13.6096 32.3618 13.6296 32.3551C13.673 32.3385 13.7164 32.3418 13.7564 32.3651C13.7964 32.3852 13.8231 32.4219 13.8365 32.4652C13.8431 32.4919 14.5672 35.2713 16.1554 35.942C17.7803 36.6326 19.502 36.4758 19.5153 36.4758C19.5921 36.4591 19.6655 36.5192 19.6855 36.5926C19.7255 36.7327 20.7031 40.0226 26.4621 38.8448C26.4921 38.8381 26.5255 38.8414 26.5555 38.8548C26.6089 38.8748 31.894 40.9835 35.7644 39.1818L35.7377 32.9691C35.7377 32.879 35.8078 32.8089 35.8979 32.8089C35.9846 32.8089 36.058 32.879 36.058 32.9691L36.0847 39.2819C36.0847 39.3419 36.0514 39.3986 35.9946 39.4253C34.7601 40.0259 33.4021 40.2395 32.1075 40.2461Z" fill="#F7A312"/>
<path d="M44.9498 38.9292C44.8597 38.9292 44.7896 38.8591 44.7896 38.769L44.7529 29.7402C44.7529 29.6501 44.823 29.5801 44.9131 29.5801C45.0032 29.5801 45.0732 29.6501 45.0732 29.7402L45.1099 38.769C45.1099 38.8558 45.0365 38.9292 44.9498 38.9292Z" fill="#F7A312"/>
<path d="M52.1336 36.6633C52.0501 36.6633 51.9834 36.5999 51.9734 36.5198L51.2227 28.6122C51.2127 28.5221 51.2794 28.4453 51.3661 28.4387C51.4562 28.412 51.533 28.4954 51.5396 28.5821L52.2904 36.4898C52.3004 36.5799 52.2337 36.6566 52.1469 36.6633C52.1436 36.6633 52.1369 36.6633 52.1336 36.6633Z" fill="#F7A312"/>
<path d="M57.9488 32.4827C57.8687 32.4827 57.7986 32.4227 57.7886 32.3392L57.2081 27.1475C57.1981 27.0575 57.2615 26.9807 57.3482 26.9707C57.3549 26.9707 57.3616 26.9707 57.3649 26.9707C57.445 26.9707 57.515 27.0308 57.525 27.1142L58.1056 32.3059C58.1156 32.396 58.0522 32.4727 57.9655 32.4827C57.9588 32.4827 57.9521 32.4827 57.9488 32.4827Z" fill="#F7A312"/>
<path d="M61.5132 24.7151C61.4398 24.7151 61.3731 24.6617 61.3564 24.5883L60.9493 22.6698C60.9293 22.583 60.986 22.4996 61.0728 22.4796C61.1595 22.4629 61.243 22.5163 61.263 22.6031L61.67 24.5216C61.6901 24.6083 61.6333 24.6918 61.5466 24.7118C61.5332 24.7151 61.5232 24.7151 61.5132 24.7151Z" fill="#F7A312"/>
<path d="M62.9671 28.7856C62.897 28.7856 62.8303 28.7389 62.8102 28.6655L62.2831 26.6702C62.2597 26.5835 62.3098 26.4967 62.3965 26.4733C62.4833 26.4533 62.57 26.5 62.5934 26.5868L63.1206 28.5821C63.1439 28.6688 63.0939 28.7556 63.0071 28.7789C62.9938 28.7823 62.9804 28.7856 62.9671 28.7856Z" fill="#F7A312"/>
<path d="M66.6669 24.736C66.6636 24.736 66.6603 24.736 66.6569 24.736C66.5702 24.7327 66.5001 24.6559 66.5035 24.5692C66.5335 23.9686 65.666 20.7421 65.329 19.551C65.3056 19.4676 65.3557 19.3775 65.4391 19.3541C65.5225 19.3241 65.6126 19.3775 65.6359 19.4642C65.686 19.6411 66.8605 23.8085 66.8238 24.5859C66.8204 24.666 66.7504 24.7327 66.6669 24.736Z" fill="#F7A312"/>
<path d="M26.6123 39.0063C26.5256 39.0063 26.4521 38.9362 26.4521 38.8461L26.4121 29.8174C26.4121 29.7273 26.4822 29.6572 26.5723 29.6572C26.659 29.6572 26.7324 29.7273 26.7324 29.8174L26.7691 38.8461C26.7725 38.9329 26.6991 39.0063 26.6123 39.0063Z" fill="#F7A312"/>
<path d="M19.4077 36.8011C19.4044 36.8011 19.3977 36.8011 19.3943 36.8011C19.3076 36.7944 19.2409 36.7177 19.2475 36.6276L19.9349 28.7132C19.9415 28.6298 20.0116 28.5664 20.095 28.5664C20.0984 28.5664 20.105 28.5664 20.1084 28.5664C20.1951 28.5731 20.2618 28.6498 20.2552 28.7399L19.5678 36.6543C19.5612 36.7377 19.4911 36.7977 19.4077 36.8011Z" fill="#F7A312"/>
<path d="M13.5586 32.6705C13.5519 32.6705 13.5486 32.6705 13.5419 32.6705C13.4552 32.6605 13.3884 32.5837 13.3985 32.4937L13.9356 27.2953C13.9457 27.2085 14.0191 27.1351 14.1125 27.1518C14.1992 27.1618 14.266 27.2385 14.256 27.3286L13.7188 32.527C13.7088 32.6071 13.6387 32.6672 13.5586 32.6705Z" fill="#F7A312"/>
<path d="M9.92869 24.9334C9.91868 24.9334 9.90533 24.9334 9.89532 24.93C9.80857 24.9133 9.75185 24.8266 9.76854 24.7398L10.1589 22.818C10.1789 22.7312 10.2657 22.6712 10.3491 22.6945C10.4358 22.7112 10.4926 22.798 10.4759 22.8847L10.0855 24.8066C10.0688 24.88 10.0054 24.9334 9.92869 24.9334Z" fill="#F7A312"/>
<path d="M8.50789 29.013C8.49455 29.013 8.4812 29.0131 8.46785 29.0097C8.3811 28.9864 8.33105 28.8996 8.35107 28.8162L8.86157 26.8176C8.88159 26.7308 8.97167 26.6775 9.05509 26.7008C9.14184 26.7242 9.19189 26.8109 9.17187 26.8943L8.66137 28.8929C8.64469 28.963 8.5813 29.013 8.50789 29.013Z" fill="#F7A312"/>
<path d="M4.77464 24.9912C4.69123 24.9912 4.61783 24.9245 4.61449 24.8411C4.57111 24.0637 5.70888 19.8863 5.75893 19.7095C5.78229 19.6227 5.87237 19.566 5.95579 19.596C6.04254 19.6194 6.08925 19.7061 6.06923 19.7929C5.74225 20.9874 4.90143 24.2205 4.93813 24.8211C4.94147 24.9112 4.87474 24.9846 4.78799 24.9912C4.78132 24.9912 4.77798 24.9912 4.77464 24.9912Z" fill="#F7A312"/>
<path d="M35.8709 30.5347C35.7842 30.5347 35.7108 30.4647 35.7108 30.3746L35.7041 29.1367C35.7041 29.0466 35.7742 28.9766 35.8643 28.9766C35.951 28.9766 36.0244 29.0466 36.0244 29.1367L36.0311 30.3746C36.0311 30.4647 35.9577 30.5347 35.8709 30.5347Z" fill="#F7A312"/>
<path d="M4.02972 31.9365C4.01971 31.9365 4.01304 31.9365 4.00303 31.9332C3.91628 31.9199 3.85622 31.8364 3.87291 31.7497C4.02305 30.8655 4.5569 27.9627 5.12745 27.7325C5.20753 27.6991 5.30429 27.7391 5.33766 27.8225C5.37103 27.9026 5.33099 27.9994 5.24757 28.0294C4.97064 28.1495 4.48016 30.0814 4.18988 31.8031C4.17653 31.8798 4.10647 31.9365 4.02972 31.9365Z" fill="#F7A312"/>
<path d="M9.11078 36.3897C9.10077 36.3897 9.0941 36.3897 9.08409 36.3863C8.99734 36.373 8.93728 36.2896 8.95396 36.2028C9.10744 35.302 9.81479 32.1689 9.84482 32.0355C9.86484 31.9487 9.95493 31.902 10.035 31.9153C10.1218 31.9354 10.1751 32.0221 10.1551 32.1089C10.1484 32.1422 9.42108 35.3687 9.2676 36.2596C9.25425 36.333 9.18752 36.3897 9.11078 36.3897Z" fill="#F7A312"/>
<path d="M14.1329 39.8838C14.1262 39.8838 14.1195 39.8838 14.1129 39.8838C14.0261 39.8738 13.9627 39.7904 13.9727 39.7036L14.5399 35.2793C14.55 35.1926 14.6267 35.1225 14.7201 35.1392C14.8069 35.1492 14.8703 35.2326 14.8602 35.3194L14.293 39.7437C14.2797 39.8237 14.213 39.8838 14.1329 39.8838Z" fill="#F7A312"/>
<path d="M18.7221 41.4096C18.7188 41.4096 18.7155 41.4096 18.7121 41.4096C18.622 41.4062 18.5553 41.3295 18.562 41.2394L18.8089 36.8185C18.8156 36.7284 18.8923 36.6516 18.9791 36.6683C19.0691 36.6716 19.1359 36.7484 19.1292 36.8385L18.8823 41.2594C18.8756 41.3462 18.8056 41.4096 18.7221 41.4096Z" fill="#F7A312"/>
<path d="M18.1502 44.9804C18.0635 44.9804 17.9901 44.9103 17.9901 44.8202L17.9834 43.4355C17.9834 43.3455 18.0535 43.2754 18.1436 43.2754C18.2303 43.2754 18.3037 43.3455 18.3037 43.4355L18.3104 44.8202C18.3104 44.9103 18.237 44.9804 18.1502 44.9804Z" fill="#F7A312"/>
<path d="M24.4388 45.8636C24.3521 45.8636 24.2786 45.7935 24.2786 45.7034L24.252 39.4707C24.252 39.3806 24.322 39.3105 24.4121 39.3105C24.5022 39.3105 24.5723 39.3806 24.5723 39.4707L24.599 45.7034C24.599 45.7902 24.5289 45.8636 24.4388 45.8636Z" fill="#F7A312"/>
<path d="M30.1425 45.6755C30.0557 45.6755 29.9823 45.6054 29.9823 45.5153L29.959 40.0801C29.959 39.99 30.0291 39.9199 30.1191 39.9199C30.2059 39.9199 30.2793 39.99 30.2793 40.0801L30.3027 45.5153C30.3027 45.6054 30.2292 45.6755 30.1425 45.6755Z" fill="#F7A312"/>
<path d="M67.6956 31.6687C67.6188 31.6687 67.5521 31.6153 67.5388 31.5352C67.2318 29.8169 66.728 27.8884 66.451 27.7716C66.3709 27.7382 66.3276 27.6448 66.3609 27.5614C66.3943 27.4813 66.4811 27.4379 66.5645 27.4713C67.1384 27.6982 67.6956 30.5943 67.8524 31.4785C67.8691 31.5653 67.809 31.6487 67.7223 31.6654C67.7122 31.6687 67.7022 31.6687 67.6956 31.6687Z" fill="#F7A312"/>
<path d="M62.6532 36.1637C62.5765 36.1637 62.5097 36.1103 62.4964 36.0302C62.3362 35.1393 61.5822 31.9195 61.5755 31.8862C61.5555 31.7994 61.6089 31.7127 61.6956 31.6926C61.789 31.676 61.8691 31.726 61.8891 31.8128C61.9192 31.9462 62.6499 35.0759 62.8134 35.9735C62.83 36.0602 62.77 36.1436 62.6832 36.1603C62.6699 36.1636 62.6599 36.1637 62.6532 36.1637Z" fill="#F7A312"/>
<path d="M57.6587 39.7033C57.5786 39.7033 57.5119 39.6466 57.4986 39.5665L56.8946 35.1455C56.8846 35.0588 56.9447 34.9754 57.0314 34.9654C57.1382 34.9453 57.1983 35.0154 57.2116 35.1022L57.8155 39.5231C57.8255 39.6099 57.7655 39.6933 57.6787 39.7033C57.6721 39.7033 57.6654 39.7033 57.6587 39.7033Z" fill="#F7A312"/>
<path d="M53.0852 41.2643C53.0018 41.2643 52.9284 41.2009 52.9251 41.1142L52.6381 36.6965C52.6315 36.6064 52.7015 36.5297 52.7883 36.5264C52.7916 36.5264 52.795 36.5264 52.7983 36.5264C52.8817 36.5264 52.9551 36.5898 52.9584 36.6765L53.2421 41.0975C53.2487 41.1876 53.1787 41.2643 53.0919 41.2676C53.0919 41.2643 53.0886 41.2643 53.0852 41.2643Z" fill="#F7A312"/>
<path d="M53.6854 44.8339C53.5953 44.8339 53.5252 44.7638 53.5252 44.6737L53.5186 43.2891C53.5186 43.199 53.5886 43.1289 53.6787 43.1289C53.7688 43.1289 53.8389 43.199 53.8389 43.2891L53.8455 44.6737C53.8455 44.7605 53.7755 44.8306 53.6854 44.8339Z" fill="#F7A312"/>
<path d="M47.4027 45.7669C47.3126 45.7669 47.2425 45.6968 47.2425 45.6067L47.2158 39.374C47.2158 39.2839 47.2859 39.2139 47.376 39.2139C47.4661 39.2139 47.5361 39.2839 47.5361 39.374L47.5628 45.6067C47.5628 45.6935 47.4928 45.7669 47.4027 45.7669Z" fill="#F7A312"/>
<path d="M41.7001 45.6286C41.61 45.6286 41.5399 45.5586 41.5399 45.4685L41.5166 40.0332C41.5166 39.9431 41.5867 39.873 41.6768 39.873C41.7668 39.873 41.8369 39.9431 41.8369 40.0332L41.8603 45.4685C41.8603 45.5552 41.7902 45.6286 41.7001 45.6286Z" fill="#F7A312"/>
<path d="M35.9372 43.1496C35.8504 43.1496 35.777 43.0795 35.777 42.9894L35.7637 39.4727C35.7637 39.3826 35.8337 39.3125 35.9238 39.3125C36.0106 39.3125 36.084 39.3826 36.084 39.4727L36.0973 42.9894C36.0973 43.0762 36.0239 43.1496 35.9372 43.1496Z" fill="#F7A312"/>
</svg>
