<svg width="316" height="179" viewBox="0 0 316 179" fill="none" xmlns="http://www.w3.org/2000/svg">
<g clip-path="url(#clip0_543_10605)">
<rect x="0.914062" width="314.915" height="178.254" rx="8" fill="white"/>
<path d="M280.934 177.87H51.9199C37.0431 168.071 26.2008 156.296 18.6241 138.947C9.44922 117.774 7.47946 94.1859 13.0086 71.7883C17.5097 53.7917 27.1986 36.7141 42.0107 25.5175C56.8227 14.3208 76.9997 9.67819 94.6325 15.5591C125.85 25.9878 141.181 64.4878 172.602 74.2865C204.865 84.3484 240.852 59.9488 272.701 71.3223C293.306 78.6832 306.701 100.71 306.886 122.564C307.064 143.533 296.424 163.661 280.934 177.87Z" fill="#EAF6F7"/>
<path d="M35.8921 177.87H264.906C279.783 168.071 290.625 156.296 298.202 138.947C307.377 117.774 309.347 94.1859 303.818 71.7883C299.316 53.7917 289.628 36.7141 274.816 25.5175C260.003 14.3208 239.826 9.67819 222.194 15.5591C190.976 25.9878 175.645 64.4878 144.224 74.2865C111.961 84.3484 75.974 59.9488 44.1253 71.3223C23.5206 78.6832 10.1254 100.71 9.93968 122.564C9.76257 143.533 20.4018 163.661 35.8921 177.87Z" fill="#EAF6F7"/>
<path d="M9.00021 178.217C9.00021 178.277 75.9032 178.329 158.405 178.329C240.906 178.329 307.826 178.29 307.826 178.217C307.826 178.143 240.919 178.117 158.413 178.117C75.9075 178.117 9.00021 178.169 9.00021 178.217Z" fill="#263238"/>
<path d="M264.523 113.901L260.276 111.502L260.186 89.7212C261.79 86.8921 259.96 84.0742 257.137 83.4813L256.9 74.6099C256.9 74.6099 261.716 69.1437 258.678 66.1338C255.64 63.1183 250.603 63.9485 247.204 71.2217C243.804 78.495 237.186 87.197 227.112 89.0548C221.922 90.0092 212.893 90.5005 205.343 90.7546C197.787 90.5682 188.758 90.1504 183.557 89.2412C173.466 87.4681 166.774 78.8226 163.312 71.5775C159.851 64.3324 154.808 63.5475 151.793 66.5856C148.777 69.6236 153.645 75.0504 153.645 75.0504L153.481 83.9274C150.658 84.5429 148.856 87.3777 150.483 90.1899L150.573 111.97L146.349 114.41L146.004 128.324C145.897 132.672 147.721 136.845 150.985 139.719L171.455 157.733C173.466 159.501 176.058 160.472 178.734 160.461L200.39 160.37L210.871 160.325L232.533 160.235C235.21 160.224 237.79 159.23 239.789 157.445L260.107 139.262C263.348 136.359 265.138 132.175 264.992 127.827L264.523 113.901Z" fill="#00AB78"/>
<path d="M261.565 103.63C261.966 103.529 264.027 89.9589 259.792 89.7218C254.851 89.4394 254.778 95.9955 254.072 96.3005C253.366 96.6054 252.654 95.0977 250.238 96.3174C248.504 97.1927 248.041 101.467 247.838 101.473C247.103 101.479 245.714 100.474 243.602 101.089C241.485 101.705 241.005 106.849 240.299 106.951C239.593 107.052 238.757 104.72 236.058 105.053C232.63 105.471 231.84 109.808 231.84 109.808L230.733 110.113C229.92 108.504 227.096 108.012 225.38 108.221C223.669 108.43 223.369 109.842 222.065 111.259C220.76 112.677 220.862 112.372 220.862 112.372C220.862 112.372 218.327 108.752 213.081 108.775C207.834 108.797 205.638 113.14 205.638 113.14L205.536 113.303L205.435 113.14C205.435 113.14 203.198 108.814 197.952 108.837C192.706 108.859 190.205 112.502 190.205 112.502C190.205 112.502 190.306 112.807 188.991 111.395C187.675 109.989 187.364 108.577 185.648 108.385C183.931 108.193 181.113 108.707 180.311 110.322L179.199 110.023C179.199 110.023 178.374 105.691 174.941 105.302C172.236 104.997 171.417 107.335 170.711 107.233C170.005 107.137 169.48 101.993 167.357 101.4C165.239 100.801 163.856 101.818 163.122 101.823C162.919 101.823 162.416 97.5484 160.682 96.6901C158.26 95.4873 157.56 97.0063 156.848 96.7071C156.142 96.4078 156.012 89.8516 151.071 90.1735C146.842 90.4502 149.01 103.997 149.417 104.099C149.417 104.099 148.011 105.821 148.056 115.901C148.056 115.901 149.377 118.821 151.399 119.317C151.399 119.317 152.014 121.938 154.03 122.231C154.03 122.231 153.85 126.873 159.496 126.647C159.496 126.647 161.744 133.09 167.792 133.169C167.792 133.169 170.135 139.409 175.483 140.194C175.483 140.194 178.126 144.723 185.981 142.572C185.981 142.572 190.944 148.196 195.863 142.532C195.863 142.532 200.33 149.676 205.446 142.493L205.643 141.866L205.847 142.487C211.019 149.625 215.43 142.447 215.43 142.447C220.393 148.072 225.312 142.408 225.312 142.408C233.189 144.492 235.787 139.946 235.787 139.946C241.129 139.116 243.422 132.853 243.422 132.853C249.47 132.729 251.666 126.263 251.666 126.263C257.313 126.444 257.093 121.802 257.093 121.802C259.109 121.492 259.702 118.866 259.702 118.866C261.718 118.352 263.017 115.421 263.017 115.421C262.983 105.336 261.565 103.63 261.565 103.63Z" fill="white"/>
<path d="M211.825 132.051C209.634 132.062 207.336 131.718 205.241 130.724C205.105 130.662 205.049 130.498 205.111 130.363C205.179 130.227 205.337 130.165 205.473 130.233C212.063 133.361 221.115 129.657 221.211 129.617C221.261 129.595 221.312 129.589 221.369 129.6C231.155 131.509 232.787 125.755 232.804 125.692C232.838 125.574 232.945 125.489 233.064 125.489C233.069 125.489 233.08 125.489 233.086 125.489C233.12 125.495 236.034 125.726 238.767 124.535C241.444 123.377 242.63 118.662 242.641 118.617C242.658 118.543 242.709 118.481 242.776 118.442C242.844 118.402 242.923 118.397 242.991 118.419C243.025 118.43 246.509 119.566 248.293 118.295C250.462 116.748 251.123 112.422 251.128 112.377C251.151 112.241 251.281 112.168 251.411 112.145C251.444 112.151 254.686 112.27 256.092 111.106C257.216 110.175 257.199 106.69 257.091 105.426C257.086 105.33 257.131 105.239 257.204 105.183C257.283 105.132 257.391 105.121 257.475 105.16C258.159 105.476 258.791 105.522 259.361 105.29C260.463 104.838 260.977 103.511 260.982 103.494C261.039 103.353 261.191 103.285 261.332 103.336C261.473 103.393 261.541 103.545 261.49 103.686C261.468 103.748 260.886 105.25 259.57 105.793C258.977 106.035 258.339 106.041 257.662 105.821C257.718 107.041 257.746 110.446 256.436 111.53C255.092 112.637 252.455 112.693 251.625 112.699C251.456 113.664 250.682 117.262 248.604 118.741C246.887 119.966 243.996 119.278 243.093 119.018C242.788 120.096 241.54 123.919 238.976 125.032C236.514 126.099 233.984 126.071 233.244 126.037C232.826 127.127 230.438 131.898 221.335 130.142C220.691 130.419 216.501 132.034 211.825 132.051Z" fill="#00AB78"/>
<path d="M199.177 132.107C194.502 132.124 190.3 130.549 189.645 130.289C180.531 132.113 178.126 127.369 177.702 126.285C176.957 126.325 174.432 126.376 171.965 125.325C169.395 124.235 168.114 120.424 167.803 119.351C166.899 119.622 164.014 120.328 162.286 119.119C160.196 117.657 159.395 114.065 159.214 113.1C158.401 113.094 155.752 113.071 154.397 111.97C153.076 110.897 153.076 107.487 153.126 106.272C152.454 106.498 151.816 106.498 151.218 106.261C149.896 105.736 149.303 104.234 149.281 104.172C149.224 104.031 149.298 103.872 149.433 103.822C149.569 103.765 149.733 103.833 149.783 103.974C149.789 103.985 150.32 105.318 151.421 105.759C151.986 105.979 152.618 105.934 153.302 105.612C153.386 105.572 153.488 105.578 153.573 105.634C153.652 105.691 153.697 105.781 153.691 105.877C153.601 107.142 153.612 110.626 154.742 111.547C156.159 112.699 159.395 112.546 159.428 112.546C159.57 112.563 159.688 112.637 159.711 112.778C159.716 112.823 160.417 117.143 162.602 118.673C164.403 119.932 167.871 118.764 167.905 118.752C167.978 118.724 168.051 118.73 168.119 118.769C168.187 118.803 168.232 118.865 168.255 118.939C168.266 118.984 169.491 123.688 172.179 124.823C174.929 125.992 177.843 125.726 177.866 125.726C177.996 125.698 178.12 125.8 178.154 125.924C178.222 126.161 179.876 131.729 189.623 129.736C189.674 129.724 189.73 129.73 189.781 129.753C189.871 129.786 198.816 133.355 205.367 130.306L205.321 119.791C205.321 119.639 205.44 119.52 205.592 119.52C205.739 119.52 205.863 119.639 205.863 119.791L205.909 130.475C205.909 130.577 205.852 130.673 205.756 130.718C203.667 131.735 201.368 132.096 199.177 132.107Z" fill="#00AB78"/>
<path d="M220.911 129.877C220.759 129.877 220.64 129.758 220.64 129.605L220.578 114.325C220.578 114.172 220.697 114.054 220.849 114.054C221.002 114.054 221.12 114.172 221.12 114.325L221.182 129.605C221.182 129.752 221.058 129.877 220.911 129.877Z" fill="#00AB78"/>
<path d="M233.071 126.044C232.929 126.044 232.817 125.936 232.8 125.801L231.529 112.417C231.512 112.265 231.625 112.135 231.772 112.124C231.924 112.079 232.054 112.22 232.065 112.367L233.336 125.75C233.353 125.902 233.24 126.032 233.093 126.044C233.088 126.044 233.076 126.044 233.071 126.044Z" fill="#00AB78"/>
<path d="M242.912 118.967C242.776 118.967 242.658 118.866 242.641 118.725L241.658 109.938C241.641 109.785 241.748 109.656 241.895 109.639C241.906 109.639 241.918 109.639 241.923 109.639C242.059 109.639 242.178 109.74 242.194 109.881L243.177 118.668C243.194 118.821 243.087 118.951 242.94 118.967C242.929 118.967 242.917 118.967 242.912 118.967Z" fill="#00AB78"/>
<path d="M248.944 105.821C248.819 105.821 248.706 105.73 248.678 105.606L247.989 102.359C247.955 102.212 248.051 102.071 248.198 102.037C248.345 102.009 248.486 102.1 248.52 102.246L249.209 105.493C249.243 105.64 249.147 105.781 249 105.815C248.977 105.821 248.961 105.821 248.944 105.821Z" fill="#00AB78"/>
<path d="M251.406 112.71C251.287 112.71 251.174 112.631 251.14 112.507L250.248 109.13C250.208 108.983 250.293 108.836 250.44 108.797C250.587 108.763 250.734 108.842 250.773 108.989L251.665 112.366C251.705 112.513 251.62 112.659 251.473 112.699C251.451 112.705 251.428 112.71 251.406 112.71Z" fill="#00AB78"/>
<path d="M257.669 105.855C257.663 105.855 257.657 105.855 257.652 105.855C257.505 105.85 257.386 105.72 257.392 105.573C257.443 104.556 255.975 99.0958 255.404 97.0799C255.365 96.9387 255.449 96.7862 255.591 96.7467C255.732 96.6959 255.884 96.7862 255.924 96.933C256.008 97.2323 257.996 104.285 257.934 105.601C257.928 105.737 257.81 105.85 257.669 105.855Z" fill="#00AB78"/>
<path d="M189.876 130.006C189.729 130.006 189.605 129.888 189.605 129.735L189.537 114.455C189.537 114.302 189.656 114.184 189.808 114.184C189.955 114.184 190.079 114.302 190.079 114.455L190.141 129.735C190.147 129.882 190.023 130.006 189.876 130.006Z" fill="#00AB78"/>
<path d="M177.684 126.274C177.678 126.274 177.667 126.274 177.661 126.274C177.515 126.262 177.402 126.132 177.413 125.98L178.576 112.585C178.587 112.444 178.706 112.337 178.847 112.337C178.853 112.337 178.864 112.337 178.87 112.337C179.017 112.348 179.13 112.478 179.118 112.631L177.955 126.025C177.944 126.166 177.825 126.268 177.684 126.274Z" fill="#00AB78"/>
<path d="M167.784 119.284C167.773 119.284 167.768 119.284 167.756 119.284C167.609 119.267 167.496 119.137 167.513 118.984L168.423 110.186C168.44 110.039 168.564 109.915 168.722 109.943C168.869 109.96 168.982 110.09 168.965 110.243L168.056 119.041C168.039 119.176 167.92 119.278 167.784 119.284Z" fill="#00AB78"/>
<path d="M161.641 106.188C161.624 106.188 161.602 106.188 161.585 106.183C161.438 106.154 161.342 106.008 161.37 105.861L162.031 102.608C162.065 102.461 162.212 102.36 162.353 102.399C162.5 102.427 162.596 102.574 162.567 102.721L161.907 105.974C161.878 106.098 161.771 106.188 161.641 106.188Z" fill="#00AB78"/>
<path d="M159.236 113.095C159.213 113.095 159.191 113.095 159.168 113.089C159.021 113.049 158.936 112.903 158.97 112.761L159.834 109.379C159.868 109.232 160.021 109.142 160.162 109.181C160.309 109.221 160.393 109.368 160.359 109.509L159.495 112.891C159.467 113.01 159.36 113.095 159.236 113.095Z" fill="#00AB78"/>
<path d="M152.918 106.289C152.776 106.289 152.652 106.176 152.647 106.035C152.573 104.72 154.499 97.6496 154.583 97.3503C154.623 97.2035 154.775 97.1074 154.917 97.1583C155.063 97.1978 155.143 97.3446 155.109 97.4914C154.555 99.5131 153.132 104.985 153.194 106.001C153.2 106.154 153.087 106.278 152.94 106.289C152.929 106.289 152.923 106.289 152.918 106.289Z" fill="#00AB78"/>
<path d="M205.548 115.669C205.401 115.669 205.277 115.551 205.277 115.398L205.266 113.303C205.266 113.151 205.384 113.032 205.537 113.032C205.684 113.032 205.808 113.151 205.808 113.303L205.819 115.398C205.819 115.551 205.695 115.669 205.548 115.669Z" fill="#00AB78"/>
<path d="M151.657 118.041C151.64 118.041 151.629 118.041 151.612 118.036C151.465 118.013 151.363 117.872 151.391 117.725C151.646 116.229 152.549 111.316 153.515 110.926C153.65 110.87 153.814 110.937 153.87 111.079C153.927 111.214 153.859 111.378 153.718 111.429C153.249 111.632 152.419 114.902 151.928 117.815C151.905 117.945 151.787 118.041 151.657 118.041Z" fill="#00AB78"/>
<path d="M160.256 125.578C160.24 125.578 160.228 125.578 160.211 125.573C160.064 125.55 159.963 125.409 159.991 125.262C160.251 123.737 161.448 118.435 161.499 118.209C161.533 118.062 161.685 117.983 161.821 118.006C161.967 118.04 162.058 118.186 162.024 118.333C162.013 118.39 160.782 123.85 160.522 125.358C160.499 125.482 160.386 125.578 160.256 125.578Z" fill="#00AB78"/>
<path d="M168.755 131.491C168.744 131.491 168.733 131.491 168.721 131.491C168.575 131.474 168.467 131.333 168.484 131.186L169.444 123.698C169.461 123.552 169.591 123.433 169.749 123.461C169.896 123.478 170.003 123.619 169.986 123.766L169.026 131.254C169.004 131.39 168.891 131.491 168.755 131.491Z" fill="#00AB78"/>
<path d="M176.522 134.073C176.516 134.073 176.511 134.073 176.505 134.073C176.352 134.067 176.239 133.938 176.251 133.785L176.669 126.303C176.68 126.15 176.81 126.021 176.957 126.049C177.109 126.054 177.222 126.184 177.211 126.337L176.793 133.819C176.782 133.966 176.663 134.073 176.522 134.073Z" fill="#00AB78"/>
<path d="M175.556 140.12C175.409 140.12 175.285 140.001 175.285 139.849L175.273 137.505C175.273 137.353 175.392 137.234 175.544 137.234C175.691 137.234 175.816 137.353 175.816 137.505L175.827 139.849C175.827 140.001 175.703 140.12 175.556 140.12Z" fill="#00AB78"/>
<path d="M186.199 141.612C186.052 141.612 185.928 141.494 185.928 141.341L185.883 130.793C185.883 130.64 186.001 130.521 186.154 130.521C186.306 130.521 186.425 130.64 186.425 130.793L186.47 141.341C186.47 141.488 186.352 141.612 186.199 141.612Z" fill="#00AB78"/>
<path d="M195.85 141.295C195.703 141.295 195.579 141.176 195.579 141.024L195.539 131.825C195.539 131.672 195.658 131.554 195.81 131.554C195.957 131.554 196.081 131.672 196.081 131.825L196.121 141.024C196.121 141.176 195.996 141.295 195.85 141.295Z" fill="#00AB78"/>
<path d="M259.407 117.588C259.277 117.588 259.164 117.498 259.141 117.362C258.622 114.454 257.769 111.19 257.301 110.992C257.165 110.936 257.092 110.778 257.148 110.636C257.205 110.501 257.351 110.428 257.493 110.484C258.464 110.868 259.407 115.77 259.672 117.266C259.701 117.413 259.599 117.554 259.452 117.582C259.435 117.588 259.418 117.588 259.407 117.588Z" fill="#00AB78"/>
<path d="M250.874 125.195C250.744 125.195 250.631 125.105 250.609 124.969C250.338 123.462 249.061 118.012 249.05 117.956C249.016 117.809 249.107 117.662 249.253 117.628C249.411 117.6 249.547 117.685 249.581 117.832C249.632 118.058 250.868 123.354 251.145 124.873C251.173 125.02 251.072 125.161 250.925 125.19C250.902 125.195 250.885 125.195 250.874 125.195Z" fill="#00AB78"/>
<path d="M242.42 131.187C242.284 131.187 242.172 131.091 242.149 130.955L241.127 123.473C241.11 123.326 241.212 123.185 241.358 123.168C241.539 123.134 241.641 123.253 241.663 123.399L242.685 130.882C242.702 131.029 242.601 131.17 242.454 131.187C242.443 131.187 242.431 131.187 242.42 131.187Z" fill="#00AB78"/>
<path d="M234.679 133.829C234.538 133.829 234.414 133.722 234.408 133.575L233.923 126.099C233.911 125.946 234.03 125.816 234.177 125.811C234.182 125.811 234.188 125.811 234.194 125.811C234.335 125.811 234.459 125.918 234.465 126.065L234.945 133.547C234.956 133.699 234.837 133.829 234.691 133.835C234.691 133.829 234.685 133.829 234.679 133.829Z" fill="#00AB78"/>
<path d="M235.696 139.872C235.544 139.872 235.425 139.753 235.425 139.601L235.414 137.257C235.414 137.105 235.533 136.986 235.685 136.986C235.838 136.986 235.956 137.105 235.956 137.257L235.967 139.601C235.967 139.748 235.849 139.866 235.696 139.872Z" fill="#00AB78"/>
<path d="M225.062 141.448C224.91 141.448 224.791 141.329 224.791 141.177L224.746 130.628C224.746 130.476 224.865 130.357 225.017 130.357C225.17 130.357 225.288 130.476 225.288 130.628L225.333 141.177C225.333 141.324 225.215 141.448 225.062 141.448Z" fill="#00AB78"/>
<path d="M215.412 141.216C215.26 141.216 215.141 141.097 215.141 140.945L215.102 131.746C215.102 131.593 215.22 131.475 215.373 131.475C215.525 131.475 215.644 131.593 215.644 131.746L215.683 140.945C215.683 141.091 215.565 141.216 215.412 141.216Z" fill="#00AB78"/>
<path d="M205.659 137.021C205.512 137.021 205.388 136.903 205.388 136.75L205.365 130.798C205.365 130.646 205.484 130.527 205.636 130.527C205.783 130.527 205.907 130.646 205.907 130.798L205.93 136.75C205.93 136.897 205.806 137.021 205.659 137.021Z" fill="#00AB78"/>
<path d="M136.513 172.301C135.237 171.26 122.654 165.437 122.654 165.437V165.076L122.789 161.561L122.814 160.89L124.992 143.901L102.88 143.686L101.283 160.835C101.283 161.005 101.283 161.175 101.283 161.351C101.283 162.602 101.303 163.844 101.328 165.041V165.226C101.423 171.055 101.649 175.876 102.124 176.177C103.371 176.998 136.428 177.419 137.585 177.038C138.742 176.678 137.79 173.343 136.513 172.301Z" fill="#AD6359"/>
<path d="M136.513 172.301C135.237 171.26 122.654 165.436 122.654 165.436V165.076L122.789 161.561L122.814 160.89L101.283 160.84C101.283 161.01 101.283 161.18 101.283 161.356C101.283 162.607 101.303 163.849 101.328 165.046V165.231C101.423 171.059 101.649 175.881 102.124 176.182C103.371 177.003 136.428 177.423 137.585 177.043C138.742 176.677 137.79 173.343 136.513 172.301Z" fill="#EBEBEB"/>
<path d="M136.517 172.295C135.24 171.259 122.662 165.436 122.662 165.436V165.075L101.362 165.035H101.332C101.332 165.095 101.332 165.145 101.332 165.225C101.332 165.306 101.332 165.386 101.332 165.466C101.427 171.189 101.637 175.861 102.118 176.171C102.599 176.481 107.771 176.742 114.035 176.912C115.708 176.957 117.46 176.997 119.228 177.037C128.005 177.212 136.988 177.233 137.584 177.037C138.74 176.672 137.794 173.332 136.517 172.295Z" fill="#00AB78"/>
<path d="M137.225 175.845C131.652 175.966 109.16 175.815 103.647 175.49C103.602 175.485 103.602 175.45 103.647 175.45C109.17 175.23 131.657 175.545 137.225 175.755C137.345 175.76 137.34 175.845 137.225 175.845Z" fill="#263238"/>
<path d="M125.166 165.321C125.161 165.401 125.091 165.466 125.01 165.461C122.817 165.652 120.649 166.072 118.546 166.723C118.456 166.743 118.391 166.653 118.456 166.588C120.153 165.031 122.837 164.73 125.025 165.166C125.106 165.171 125.166 165.241 125.166 165.321Z" fill="#263238"/>
<path d="M126.734 166.292C126.729 166.372 126.664 166.437 126.584 166.432C124.391 166.622 122.223 167.043 120.12 167.694C120.049 167.719 119.959 167.624 120.024 167.559C121.722 166.002 124.411 165.701 126.594 166.137C126.674 166.147 126.739 166.212 126.734 166.292Z" fill="#263238"/>
<path d="M128.305 167.268C128.3 167.349 128.235 167.414 128.155 167.409C125.962 167.594 123.794 168.02 121.691 168.67C121.601 168.691 121.535 168.6 121.601 168.535C123.293 166.978 125.982 166.678 128.165 167.113C128.245 167.118 128.305 167.183 128.305 167.268Z" fill="#263238"/>
<path opacity="0.1" d="M101.362 165.04H101.332C101.332 165.1 101.332 165.15 101.332 165.23C101.332 165.31 101.332 165.391 101.332 165.471C101.427 171.194 101.637 175.865 102.118 176.176C102.599 176.486 107.771 176.747 114.035 176.917C115.708 176.962 117.46 177.002 119.228 177.042C114.556 173.918 104.261 167.088 101.362 165.04Z" fill="black"/>
<path d="M126.733 108.344C126.077 98.5305 109.489 51.0479 109.489 51.0479H89.2949C89.2949 51.0479 91.2928 56.1251 93.8564 65.9791C95.5588 72.5585 97.5216 80.1193 99.2942 87.0341C99.9701 89.5928 100.606 92.0563 101.192 94.3645C103.065 101.715 104.472 107.343 104.712 108.585C104.902 109.556 100.12 165.155 100.12 165.155H123.929C123.924 165.15 127.314 116.897 126.733 108.344Z" fill="#263238"/>
<path d="M122.918 161.139C122.918 161.169 122.893 161.189 122.868 161.189C119.233 161.264 120.274 161.294 116.639 161.329C114.862 161.349 103.17 161.455 101.503 161.179C101.463 161.169 101.463 161.104 101.503 161.104C103.165 160.829 114.862 160.944 116.639 160.944C120.274 160.984 119.233 161.009 122.868 161.084C122.898 161.089 122.918 161.114 122.918 161.139Z" fill="#37474F"/>
<path d="M109.77 110.117C109.77 111.92 109.575 113.717 109.409 115.505C108.744 122.65 108.083 129.755 107.412 136.93C106.741 144.106 106.14 151.296 105.359 158.466C105.324 158.751 104.863 158.776 104.883 158.466C104.953 157.545 105.033 156.633 105.113 155.712C105.769 148.467 106.43 141.216 107.106 133.971C107.442 130.356 107.772 126.691 108.113 123.071C108.453 119.45 108.869 115.81 109.099 112.17C109.239 110.362 109.169 108.54 108.884 106.747C108.558 105.035 108.133 103.342 107.597 101.68L104.442 91.2052C102.354 84.2352 94.0826 58.814 93.5769 57.0365C93.3316 56.1553 93.4367 55.7747 93.627 56.4657C94.1077 58.1731 98.9446 70.9964 99.9861 74.4263C102.074 81.281 104.152 88.1408 106.22 95.0006C107.236 98.3804 108.398 101.75 109.184 105.19C109.565 106.802 109.76 108.455 109.77 110.117Z" fill="#37474F"/>
<path d="M89.3203 51.048C89.3203 51.048 96.6457 76.5042 101.192 94.3597C103.135 79.6187 105.804 61.8784 107.201 51.043L89.3203 51.048Z" fill="#37474F"/>
<path d="M111.887 172.626C110.6 171.595 98.0024 165.816 98.0024 165.816V165.456L98.1226 161.941L98.1476 161.27L98.7485 144.281L77.1377 144.146C77.1377 144.146 76.5369 152.878 76.612 161.295C76.612 161.465 76.612 161.64 76.612 161.811C76.617 163.067 76.642 164.304 76.662 165.501C76.662 165.561 76.662 165.626 76.662 165.686C76.7822 171.514 77.0226 176.336 77.4982 176.637C78.75 177.448 111.807 177.748 112.964 177.373C114.12 176.992 113.169 173.663 111.887 172.626Z" fill="#AD6359"/>
<path d="M111.889 172.626C110.602 171.594 98.0037 165.816 98.0037 165.816V165.456L98.1239 161.941L98.149 161.27L76.6133 161.295C76.6133 161.465 76.6133 161.64 76.6133 161.81C76.6183 163.067 76.6433 164.304 76.6634 165.501C76.6634 165.561 76.6634 165.626 76.6634 165.686C76.7835 171.514 77.0239 176.336 77.4995 176.636C78.7513 177.448 111.808 177.748 112.965 177.372C114.122 176.992 113.17 173.662 111.889 172.626Z" fill="#EBEBEB"/>
<path d="M111.877 172.626C110.59 171.595 97.9925 165.817 97.9925 165.817V165.456L76.6621 165.501C76.6621 165.561 76.6621 165.626 76.6621 165.686C76.7823 171.515 77.0226 176.337 77.4983 176.637C78.7501 177.448 111.807 177.749 112.964 177.373C114.12 176.992 113.159 173.663 111.877 172.626Z" fill="#00AB78"/>
<path d="M112.604 176.171C107.031 176.291 84.5438 176.241 79.026 175.936C78.9809 175.936 78.9809 175.901 79.026 175.901C84.5438 175.665 107.036 175.891 112.604 176.081C112.719 176.086 112.719 176.166 112.604 176.171Z" fill="#263238"/>
<path d="M100.451 165.631C100.471 165.706 100.426 165.786 100.351 165.806C98.1578 166.001 95.9948 166.432 93.8968 167.093C93.8016 167.113 93.7366 167.023 93.8016 166.958C95.4941 165.42 98.1779 165.11 100.366 165.535C100.406 165.551 100.436 165.586 100.451 165.631Z" fill="#263238"/>
<path d="M101.938 166.507C102.018 166.512 102.084 166.577 102.084 166.662C102.079 166.743 102.013 166.808 101.928 166.808C99.7352 166.993 97.5722 167.413 95.4692 168.064C95.3991 168.084 95.3089 167.994 95.374 167.929C97.0614 166.387 99.7453 166.077 101.938 166.507Z" fill="#263238"/>
<path d="M103.511 167.474C103.586 167.479 103.651 167.539 103.646 167.619C103.641 167.694 103.581 167.759 103.501 167.754C101.308 167.945 99.1394 168.37 97.0414 169.026C96.9713 169.051 96.8812 168.956 96.9463 168.896C98.6387 167.354 101.323 167.043 103.511 167.474Z" fill="#263238"/>
<path d="M82.3605 51.0273C82.3605 51.0273 81.2489 57.9472 80.7782 65.4479C80.7031 66.6346 81.5243 69.6088 81.4442 70.9758C80.5179 87.2439 79.216 104.774 79.2661 109.821C79.2861 112.976 75 165.586 75 165.586L98.7989 165.48C98.7989 165.48 100.066 118.353 99.8604 109.786C99.8153 107.498 100.081 96.6924 100.336 87.0086C100.576 78.3463 100.812 70.5802 100.812 70.5802C102.529 69.5037 104.297 68.5072 106.109 67.606C106.32 67.0101 106.51 66.3892 106.685 65.7583C108.042 60.9465 108.938 56.0195 109.354 51.0374L82.3605 51.0273Z" fill="#263238"/>
<path d="M98.0079 161.38C94.3727 161.47 95.4142 161.495 91.779 161.545C90.0015 161.57 78.3098 161.725 76.6424 161.455C76.6324 161.45 76.6224 161.445 76.6224 161.435C76.6174 161.415 76.6274 161.395 76.6424 161.385C78.2998 161.099 89.9964 161.165 91.779 161.165C95.4142 161.18 94.3727 161.215 98.0079 161.275C98.0729 161.27 98.0729 161.375 98.0079 161.38Z" fill="#37474F"/>
<path d="M86.2815 63.1453C86.2564 63.1804 86.2665 63.2305 86.3015 63.2555C86.8773 63.3056 87.4532 63.3056 88.029 63.2555C88.4846 63.2305 88.9152 63.2004 89.3909 63.1403C90.9682 62.9401 92.5504 62.3893 93.4317 60.9672C93.9174 60.2012 94.9889 56.1103 94.9889 55.5646C94.9889 55.5245 95.074 55.0488 94.7886 55.5646C94.6234 55.865 93.2564 60.5416 92.0747 61.488C91.3187 62.0288 90.4474 62.3943 89.5361 62.5595C89.0604 62.6647 88.5898 62.7498 88.1141 62.8249C87.5182 62.92 86.8924 62.9651 86.3015 63.1203C86.2965 63.1303 86.2915 63.1353 86.2815 63.1453Z" fill="#37474F"/>
<path d="M112.639 62.3487C112.384 62.3987 112.123 62.3987 111.873 62.3487C111.668 62.3236 111.462 62.2836 111.262 62.2285C110.556 62.0282 109.845 61.4774 109.45 60.0554C109.124 58.2628 108.889 56.4553 108.754 54.6427C108.754 54.6026 108.709 54.1269 108.839 54.6427C108.914 54.9431 109.525 59.6198 110.055 60.5661C110.311 61.0368 110.711 61.4073 111.192 61.6376C111.402 61.7378 111.618 61.8279 111.838 61.903C112.118 61.9731 112.389 62.0733 112.649 62.1984C112.694 62.2285 112.684 62.3487 112.639 62.3487Z" fill="#37474F"/>
<path d="M106.224 67.8174C106.259 67.8925 106.224 67.9776 106.149 68.0127C103.951 69.1092 101.648 70.0556 99.3894 71.0019C99.3543 71.012 99.3193 70.9969 99.2993 70.9669C99.2792 70.9318 99.2893 70.8868 99.3243 70.8617C101.462 69.625 103.706 68.5835 106.029 67.7373C106.104 67.7072 106.194 67.7423 106.224 67.8174Z" fill="#37474F"/>
<path d="M106.335 62.1936C106.114 63.3453 104.933 67.5663 103.18 67.3009C101.428 67.0355 102.274 64.522 102.524 62.8546C102.995 59.3746 103.2 55.8646 103.14 52.3546C103.145 52.3296 103.165 52.3146 103.185 52.3096C103.22 52.2996 103.255 52.3196 103.265 52.3546C103.556 54.8832 103.581 57.4319 103.346 59.9605C103.23 61.3174 103.05 62.6693 102.83 64.0112C102.66 64.6572 102.569 65.3181 102.559 65.984C102.614 66.4898 102.785 66.8302 103.125 66.9054C105.143 67.381 106.079 60.9619 106.185 59.7952C106.44 57.2917 106.565 54.7731 106.565 52.2545C106.565 52.1594 106.705 52.1794 106.705 52.2545C107.016 55.5742 106.891 58.914 106.335 62.1936Z" fill="#37474F"/>
<path d="M103.48 66.9459C103.605 66.986 103.67 67.1212 103.625 67.2464C103.47 67.662 103.31 68.0725 103.149 68.4831C103.044 68.8587 102.889 69.2192 102.674 69.5496C102.664 69.5647 102.644 69.5797 102.624 69.5797C102.584 69.5897 102.543 69.5597 102.533 69.5196C102.528 69.1441 102.594 68.7735 102.724 68.423C102.844 67.9674 102.994 67.5268 103.174 67.0911C103.224 66.966 103.36 66.9009 103.48 66.9459Z" fill="#37474F"/>
<path d="M85.5353 52.1797C85.0997 56.0452 84.1133 61.528 84.0832 65.3735C84.5188 67.0208 84.7892 68.7032 84.8944 70.4006C84.1533 90.9599 83.3171 111.574 82.0503 132.099C81.4244 140.981 81.0189 149.899 79.7871 158.716C81.8 130.982 82.5961 98.1852 84.3236 70.3556C84.2435 68.7132 84.0081 67.0809 83.6276 65.4836C83.6276 63.1904 84.0732 60.9822 84.4137 58.7791C84.7542 56.581 85.1347 54.3828 85.5303 52.1947V52.1797H85.5353Z" fill="#37474F"/>
<path d="M102.66 26.0422C106.07 34.1538 115.879 55.394 121.147 55.2789C123.079 55.2388 127.375 53.246 126.284 46.236C125.508 41.1738 116.069 31.3498 105.9 22.387C103.672 20.4192 99.3455 18.166 102.66 26.0422Z" fill="#00AB78"/>
<path d="M106.215 31.56V31.7653H106.826C107.397 31.7653 107.862 31.2997 107.862 30.7289C107.862 30.2682 108.233 29.8977 108.693 29.8927H109.344V29.6924H108.693C108.123 29.6974 107.662 30.158 107.662 30.7239C107.662 31.1845 107.286 31.56 106.826 31.56H106.215ZM114.001 47.8332V48.0385H114.612C115.183 48.0385 115.648 47.5728 115.648 47.002V46.997C115.653 46.5414 116.024 46.1708 116.484 46.1708H117.13V45.9656H116.484C115.914 45.9656 115.448 46.4262 115.448 46.997C115.448 47.4577 115.072 47.8332 114.612 47.8332H114.001ZM121.962 44.4033L122.102 44.5435L122.533 44.1129C122.538 44.1079 122.538 44.1079 122.543 44.1029C122.944 43.6973 122.939 43.0464 122.533 42.6458C122.208 42.3204 122.208 41.7946 122.533 41.4641L123.009 40.9885L122.869 40.8433L122.393 41.3189C122.393 41.3189 122.393 41.3189 122.388 41.3239C121.987 41.7295 121.987 42.3805 122.393 42.786C122.718 43.1115 122.718 43.6422 122.393 43.9677L121.962 44.4033ZM119.734 52.0342L120.21 52.5099C120.21 52.5099 120.21 52.5099 120.215 52.5149C120.62 52.9155 121.271 52.9155 121.677 52.5099C122.002 52.1844 122.528 52.1844 122.859 52.5099L123.289 52.9405L123.429 52.8003L122.999 52.3697C122.593 51.9641 121.937 51.9641 121.532 52.3697C121.206 52.6951 120.675 52.6951 120.35 52.3697L119.874 51.894L119.734 52.0342ZM113.37 37.1831L113.846 37.6587C113.846 37.6587 113.846 37.6587 113.851 37.6637C114.256 38.0643 114.907 38.0643 115.313 37.6587C115.638 37.3333 116.164 37.3333 116.494 37.6587L116.925 38.0943L117.065 37.9491L116.635 37.5185C116.229 37.113 115.573 37.113 115.168 37.5185C114.842 37.844 114.311 37.844 113.986 37.5185L113.51 37.0429L113.37 37.1831Z" fill="white"/>
<path opacity="0.1" d="M101.862 20.6641L122.296 55.0631C121.926 55.1832 121.535 55.2533 121.145 55.2683C115.887 55.3835 106.078 34.1433 102.658 26.0317C101.226 22.6269 101.221 21.1147 101.862 20.6641Z" fill="black"/>
<path d="M94.9435 21.4756C98.0329 17.55 102.569 18.902 104.197 21.5307C108.152 27.9098 110.991 53.6064 110.891 53.7166C110.611 53.997 81.4844 54.4776 81.4193 54.3975C81.3342 54.3024 85.3949 33.5729 94.9435 21.4756Z" fill="#00AB78"/>
<path d="M97.3628 44.8234V45.0236H97.9737C98.5445 45.0236 99.0102 44.563 99.0102 43.9922C99.0102 43.5315 99.3857 43.156 99.8464 43.156H100.492V42.9507H99.8464C99.2756 42.9507 98.8099 43.4164 98.8099 43.9872C98.8099 44.4478 98.4344 44.8234 97.9737 44.8234H97.3628ZM106.215 31.5494V31.7547H106.826C107.057 31.7547 107.287 31.6796 107.467 31.5344C107.447 31.4593 107.417 31.3842 107.417 31.3091C107.262 31.4693 107.052 31.5545 106.831 31.5545H106.215V31.5494ZM105.089 50.9471L105.229 51.0873L105.665 50.6567C106.07 50.2511 106.07 49.5951 105.665 49.1896C105.66 49.1846 105.66 49.1846 105.655 49.1796C105.334 48.8541 105.339 48.3334 105.665 48.0129L106.14 47.5372L106 47.397L105.524 47.8727C105.329 48.068 105.219 48.3283 105.219 48.6037C105.219 48.8791 105.329 49.1445 105.524 49.3398C105.529 49.3448 105.529 49.3448 105.534 49.3498C105.855 49.6753 105.85 50.196 105.524 50.5165L105.089 50.9471ZM99.0602 36.166L99.2055 36.3062L99.6361 35.8756C100.042 35.47 100.042 34.8141 99.6361 34.4085C99.3106 34.0831 99.3106 33.5523 99.6361 33.2268L100.112 32.7512L99.9715 32.606L99.4959 33.0816C99.0903 33.4872 99.0903 34.1431 99.4959 34.5487C99.8163 34.8742 99.8163 35.3999 99.4959 35.7254L99.0602 36.166ZM83.418 49.51L83.5582 49.6502L83.9938 49.2196C84.3994 48.814 84.3994 48.1581 83.9938 47.7525C83.6683 47.4271 83.6683 46.8963 83.9938 46.5708L84.4695 46.0952L84.3293 45.955L83.8536 46.4306C83.448 46.8362 83.448 47.4922 83.8536 47.8977C84.1791 48.2232 84.1791 48.754 83.8536 49.0794L83.418 49.51ZM98.2791 53.9614L98.4444 54.1266H98.7298L98.4193 53.8162L98.2791 53.9614ZM101.243 54.0815C100.953 53.9313 100.607 53.9263 100.312 54.0665H101.223L101.243 54.0815ZM88.1597 33.0266L88.4401 33.307L88.5803 33.1668L88.2448 32.8313L88.1597 33.0266ZM91.885 48.3033V48.8992C91.885 49.47 92.3457 49.9356 92.9165 49.9356H92.9215C93.3772 49.9356 93.7527 50.3062 93.7527 50.7668V51.4328H93.958V50.7818C93.953 50.211 93.4923 49.7504 92.9215 49.7504C92.4608 49.7504 92.0853 49.3748 92.0853 48.9142V48.3033H91.885ZM106.741 38.9099V39.5208C106.741 40.0916 107.207 40.5573 107.778 40.5573C108.238 40.5573 108.614 40.9328 108.614 41.3935V42.0394H108.814V41.3935C108.814 40.8227 108.353 40.357 107.783 40.357C107.322 40.357 106.946 39.9815 106.946 39.5208V38.9099H106.741ZM99.4558 22.0059V22.6167C99.4608 23.1875 99.9215 23.6532 100.492 23.6532C100.502 23.6532 100.507 23.6532 100.517 23.6532C100.978 23.6682 101.338 24.0488 101.328 24.5094V25.1604H101.529V24.5094C101.524 23.9386 101.063 23.478 100.497 23.478C100.037 23.478 99.6611 23.1024 99.6611 22.6418V22.0309L99.4558 22.0059ZM90.2928 38.284V38.8949C90.2928 39.4657 90.7534 39.9314 91.3242 39.9314C91.7849 39.9314 92.1604 40.3069 92.1604 40.7676V41.4135H92.3657V40.7676C92.3657 40.1968 91.9 39.7311 91.3292 39.7311C90.8686 39.7311 90.493 39.3556 90.493 38.8949V38.284H90.2928ZM92.1003 30.1925V30.3978H92.7112C93.282 30.3928 93.7477 29.9321 93.7477 29.3613C93.7477 28.9007 94.1232 28.5251 94.5839 28.5251H95.2298V28.3199H94.5939C94.0231 28.3199 93.5574 28.7855 93.5574 29.3563C93.5574 29.817 93.1819 30.1925 92.7212 30.1925H92.1003Z" fill="white"/>
<path d="M95.7302 27.2743C92.6608 35.3157 82.5514 55.0489 78.2854 55.3293C77.5844 55.3743 75.1159 56.0853 75.181 48.9752C75.2511 41.795 84.5293 28.9467 94.0078 21.5161C96.3511 19.6785 98.8046 19.2328 95.7302 27.2743Z" fill="#00AB78"/>
<path d="M80.6171 41.5341V41.7344H81.228C81.7988 41.7344 82.2645 41.2738 82.2645 40.7029C82.2645 40.2423 82.635 39.8718 83.0957 39.8668H83.7466V39.6615H83.0957C82.5249 39.6665 82.0642 40.1271 82.0642 40.6979C82.0642 41.1586 81.6887 41.5341 81.228 41.5341H80.6171ZM83.4161 49.5105L83.5563 49.6507L83.992 49.2201C84.3975 48.8145 84.3975 48.1586 83.992 47.753C83.6665 47.4275 83.6665 46.8968 83.992 46.5713L84.4676 46.0956L84.3274 45.9554L83.8518 46.4311C83.4462 46.8367 83.4462 47.4926 83.8518 47.8982C84.1772 48.2237 84.1772 48.7544 83.8518 49.0799L83.4161 49.5105ZM84.9032 32.4362L85.3789 32.9119C85.7845 33.3174 86.4404 33.3174 86.846 32.9119C87.1715 32.5864 87.6972 32.5864 88.0277 32.9119L88.4583 33.3425L88.5985 33.2023L88.1679 32.7716C87.7623 32.3661 87.1064 32.3661 86.7008 32.7716C86.3753 33.0971 85.8496 33.0971 85.5191 32.7716L85.0434 32.296L84.9032 32.4362ZM75.9104 45.0792C75.8854 45.1493 75.8654 45.2144 75.8203 45.2995C76.271 45.3095 76.6315 45.68 76.6315 46.1307V46.7766H76.8368V46.1307C76.8368 45.5899 76.4262 45.1443 75.8904 45.0992L75.9104 45.0792ZM90.3009 38.2845V38.8954C90.3009 38.9404 90.3009 38.9855 90.3009 39.0306L90.4912 38.665V38.2845H90.3009ZM76.5964 51.7437V52.3545C76.6014 52.9254 77.0621 53.386 77.6279 53.386C78.0885 53.386 78.4641 53.7615 78.4641 54.2222V54.8681H78.6694V54.2222C78.6644 53.6514 78.2037 53.1907 77.6329 53.1907C77.1722 53.1907 76.7967 52.8152 76.7967 52.3545V51.7437H76.5964ZM92.0985 30.193V30.3983H92.7094C93.2802 30.3933 93.7458 29.9326 93.7458 29.3618C93.7458 28.9011 94.1214 28.5256 94.582 28.5256H95.228V28.3203H94.592C94.0212 28.3203 93.5556 28.786 93.5556 29.3568C93.5556 29.8174 93.18 30.193 92.7194 30.193H92.0985Z" fill="white"/>
<path d="M87.2421 44.6383C88.2886 42.8858 89.31 41.1132 90.2564 39.3007C91.2027 37.4881 92.1491 35.6755 93.0153 33.8229C93.9116 31.9702 94.7027 30.0725 95.3837 28.1348C94.953 29.0661 94.5425 29.9924 94.0718 30.9037C93.6262 31.82 93.1705 32.7313 92.6948 33.6326C91.7485 35.4502 90.7971 37.2327 89.8508 39.0453C88.9044 40.8579 87.918 42.6404 86.9416 44.433L85.4695 47.1168C84.9838 48.0181 84.4781 48.8993 83.9824 49.7956C85.1541 48.1182 86.1956 46.3908 87.2421 44.6383Z" fill="#263238"/>
<path d="M95.1695 29.7076C95.3949 29.4072 95.5551 29.0667 95.6452 28.7012C95.515 28.8364 95.4149 28.9866 95.2997 29.1268C95.1846 29.267 95.0844 29.4222 94.9843 29.5624C94.769 29.8628 94.5687 30.1833 94.3984 30.5087C94.6989 30.2934 94.9592 30.0231 95.1695 29.7076Z" fill="#263238"/>
<path d="M111.852 40.1273C111.166 38.7253 110.395 37.3634 109.549 36.0515C107.887 33.8383 107.806 30.7289 107.065 29.4421C105.919 27.4593 105.193 27.1939 105.313 26.598C105.433 26.0022 107.631 25.852 108.888 26.8584C110.145 27.8648 110.435 30.0179 111.527 30.4986C112.623 30.9793 114.366 30.2532 114.636 29.6474C115.097 28.6209 113.349 26.3276 112.638 26.0322C111.206 25.2461 109.729 24.5451 108.212 23.9392C105.418 22.9078 104.377 20.6546 105.233 20.1488C106.299 19.5179 112.168 21.676 113.485 22.1166C114.801 22.5573 119.438 25.9721 120.64 26.9335C121.841 27.8949 122.858 32.5465 123.334 35.8612L111.852 40.1273Z" fill="#AD6359"/>
<path d="M107.716 26.0316C107.251 26.0917 106.785 25.9264 106.46 25.591C106.324 25.4407 106.244 25.2455 106.239 25.0402C106.234 24.95 106.249 24.8549 106.284 24.7698C106.299 24.7247 106.319 24.6847 106.344 24.6396C106.374 24.5945 106.419 24.5495 106.445 24.5044C106.47 24.4593 106.47 24.5044 106.47 24.5044C106.404 24.5795 106.369 24.6696 106.364 24.7698C106.349 24.8599 106.349 24.955 106.364 25.0502C106.404 25.2154 106.49 25.3706 106.615 25.4908C106.93 25.7462 107.306 25.9114 107.711 25.9665C107.726 25.9765 107.716 26.0316 107.716 26.0316Z" fill="#263238"/>
<path d="M114.992 29.3768C114.992 29.3768 114.011 26.2473 113.26 25.336C112.734 24.7001 109.7 25.8267 109.129 25.9068C107.547 26.1121 106.505 26.1221 106.285 24.9254C106.065 23.7287 112.304 20.6243 114.126 21.3003C116.825 22.3067 119.569 25.2759 120.645 26.9283L114.992 29.3768Z" fill="#AD6359"/>
<path d="M106.429 24.4748C107.391 23.3732 110.125 22.0964 110.56 21.9512C110.6 21.9412 110.585 21.9111 110.56 21.9111C108.878 22.4669 107.185 23.1679 106.429 24.4497C106.419 24.4698 106.434 24.4898 106.429 24.4748Z" fill="#263238"/>
<path d="M116.499 28.7207C116.499 28.7207 114.662 26.4574 113.901 25.5511C113.38 24.9152 111.552 26.2271 111.011 26.4224C109.324 27.0333 107.787 26.9481 107.592 25.7564C107.396 24.5647 112.298 20.6241 114.121 21.2951C116.82 22.3015 119.564 25.2707 120.64 26.9231L116.499 28.7207Z" fill="#AD6359"/>
<path d="M115.317 27.3288C115.017 26.9082 114.676 26.5127 114.301 26.1522C114.125 25.9419 113.925 25.7616 113.7 25.6114C113.449 25.4862 113.159 25.4712 112.894 25.5663C112.343 25.7366 111.867 26.1071 111.331 26.3224C110.781 26.5327 110.21 26.708 109.634 26.8381C109.374 26.8732 109.113 26.8732 108.858 26.8381C108.417 26.8181 108.007 26.6028 107.736 26.2573C107.436 25.6965 107.471 25.0155 107.826 24.4898C108.242 23.909 108.763 23.4083 109.359 23.0177C109.96 22.5871 110.59 22.2065 111.256 21.8811C111.587 21.7209 111.927 21.5606 112.278 21.4054C112.593 21.2251 112.944 21.105 113.299 21.0449C114.291 20.9998 115.237 21.7609 115.618 21.9912C115.663 22.0313 115.618 22.0313 115.618 22.0313C115.307 21.846 114.291 21.2452 113.675 21.2452C113.299 21.2702 112.934 21.3804 112.608 21.5606C112.313 21.6958 112.017 21.836 111.727 21.9812C110.49 22.547 109.369 23.3281 108.407 24.2895C107.922 24.8203 107.456 25.5713 107.842 26.2122C107.952 26.3575 108.097 26.4726 108.262 26.5427C108.482 26.6479 108.718 26.713 108.963 26.723C109.844 26.8081 110.996 26.2773 111.547 25.9569C112.027 25.6014 112.573 25.351 113.159 25.2208C113.419 25.1858 113.68 25.2359 113.91 25.361C114.13 25.5213 114.326 25.7165 114.481 25.9419C114.676 26.1872 114.856 26.4376 115.037 26.6979L115.442 27.3088C115.507 27.449 115.427 27.449 115.317 27.3288Z" fill="#263238"/>
<path d="M116.59 26.9079C116.59 26.9079 116.72 24.7799 115.824 23.5381C114.927 22.2964 113.135 19.2721 114.822 19.0618C116.164 18.9065 119.073 22.3314 119.714 23.3278C120.355 24.3242 121.046 27.5789 121.442 28.365L116.59 26.9079Z" fill="#AD6359"/>
<path d="M114.492 21.5059C114.923 22.3821 115.514 23.1632 115.914 24.0395C116.115 24.4851 116.26 24.9508 116.35 25.4265C116.445 25.8871 116.515 26.3528 116.55 26.8235C116.55 26.8585 116.595 26.8535 116.595 26.8235C116.595 26.5681 116.6 26.2827 116.595 26.0524C116.59 25.822 116.58 25.5817 116.555 25.3463C116.52 24.8707 116.405 24.4 116.215 23.9644C115.989 23.5338 115.729 23.1232 115.449 22.7326C115.168 22.307 114.888 21.8714 114.572 21.4758C114.547 21.4558 114.492 21.4758 114.492 21.5059Z" fill="#263238"/>
<path d="M115.783 29.4774C115.437 30.1784 115.022 30.8394 114.541 31.4552C114.035 32.1012 113.645 32.8222 113.379 33.5983C113.134 34.3744 113.039 35.1856 113.104 35.9967C113.219 35.2156 113.424 34.4545 113.725 33.7285C114.045 33.0225 114.451 32.3565 114.932 31.7457C115.442 31.1098 115.853 30.4037 116.148 29.6477C116.484 28.9066 116.624 28.0905 116.554 27.2793C116.424 28.0454 116.158 28.7915 115.783 29.4774Z" fill="#263238"/>
<path d="M126.428 44.7039C126.017 41.7297 122.046 30.8041 120.574 28.8463C119.408 27.2891 110.815 37.724 111.471 39.4214C115.227 49.0952 117.38 54.593 120.669 55.0386C124.51 55.5544 127.254 50.5723 126.428 44.7039Z" fill="#AD6359"/>
<path d="M120.735 55.2791C125.212 55.0488 126.499 50.8127 126.784 47.0974C127.069 43.3822 124.055 34.5195 124.055 34.5195L113.455 44.8192C113.455 44.8192 117.386 55.4543 120.735 55.2791Z" fill="#00AB78"/>
<path d="M114.723 47.8333C114.753 47.8984 114.778 47.9685 114.813 48.0336C115.298 47.9385 115.654 47.5129 115.654 47.0122V47.0072C115.659 46.5515 116.03 46.181 116.49 46.181H117.136V45.9757H116.49C115.919 45.9757 115.454 46.4363 115.454 47.0072C115.449 47.4278 115.133 47.7833 114.723 47.8333ZM121.963 44.4185L122.103 44.5587L122.534 44.1281C122.539 44.123 122.539 44.123 122.544 44.118C122.944 43.7125 122.939 43.0615 122.534 42.661C122.208 42.3355 122.208 41.8098 122.534 41.4793L123.009 41.0036L122.869 40.8584L122.394 41.3341C122.394 41.3341 122.394 41.3341 122.389 41.3391C121.988 41.7447 121.988 42.3956 122.394 42.8012C122.719 43.1266 122.719 43.6574 122.394 43.9828L121.963 44.4185ZM119.735 52.0343L120.21 52.51C120.21 52.51 120.21 52.51 120.215 52.515C120.621 52.9156 121.272 52.9156 121.678 52.51C122.003 52.1845 122.529 52.1845 122.859 52.51L123.29 52.9406L123.43 52.8004L122.999 52.3698C122.594 51.9642 121.938 51.9642 121.532 52.3698C121.207 52.6953 120.676 52.6953 120.351 52.3698L119.875 51.8941L119.735 52.0343Z" fill="white"/>
<path d="M116.068 50.132C115.793 49.5312 115.497 48.9403 115.212 48.3495L114.325 46.587C114.02 46.0011 113.73 45.4153 113.449 44.8145C113.594 45.4654 113.805 46.0963 114.065 46.7122C114.305 47.328 114.571 47.9339 114.881 48.5247C115.192 49.1106 115.497 49.7064 115.828 50.2722C116.158 50.843 116.499 51.4088 116.884 51.9496C116.634 51.3287 116.338 50.7329 116.068 50.132Z" fill="#263238"/>
<path d="M115.738 46.6117C115.723 46.6267 115.723 46.6567 115.738 46.6718C115.753 46.6868 115.783 46.6868 115.798 46.6718C116.479 46.141 117.115 45.5502 117.771 44.9794C118.917 43.9729 120.039 42.9364 121.161 41.895L122.828 40.3227C123.108 40.0523 123.399 39.7719 123.664 39.5066C123.929 39.2412 124.16 38.9357 124.43 38.6754C124.44 38.6654 124.44 38.6503 124.43 38.6403C124.42 38.6303 124.405 38.6303 124.395 38.6403C124.06 38.9357 123.684 39.1861 123.344 39.4815L122.397 40.3177C121.261 41.3392 120.134 42.3756 119.018 43.4171C118.457 43.9379 117.906 44.4686 117.36 44.9994C116.814 45.5251 116.249 46.0509 115.738 46.6117Z" fill="#263238"/>
<path d="M103.706 21.4508C103.706 21.4257 103.706 21.4007 103.706 21.3756C103.691 21.2204 103.691 21.0602 103.706 20.9C103.951 19.4329 104.377 18.0008 104.978 16.6339L98.103 13.9551C97.9527 15.0867 97.7024 16.3084 97.447 17.405C97.0264 19.2025 96.6058 20.6596 96.6659 20.8148C97.5171 23.013 100.371 26.1975 102.089 26.0273C103.761 25.857 103.721 22.322 103.706 21.4508Z" fill="#AD6359"/>
<path d="M103.711 20.8796C103.956 19.4125 104.382 17.9755 104.977 16.6135L100.286 14.7909L98.5684 14.125C98.5684 15.5671 98.8638 20.7244 102.96 21.3653C103.205 21.4054 103.45 21.4254 103.696 21.4204C103.696 21.3954 103.696 21.3703 103.696 21.3453C103.681 21.1851 103.686 21.0348 103.711 20.8796Z" fill="#263238"/>
<path d="M107.291 3.52077C109.174 5.17813 110.245 14.8669 108.032 17.711C105.734 20.6702 101.503 20.0643 99.0995 17.4756C97.4472 15.6881 96.7512 8.26252 97.7426 5.79902C99.2097 2.15883 104.522 1.07729 107.291 3.52077Z" fill="#AD6359"/>
<path d="M103.65 13.389C103.65 13.394 103.65 13.359 103.65 13.359C104.071 13.1637 104.121 12.5579 104.071 12.0822C104.066 12.0571 104.106 12.0371 104.106 12.0371C104.236 12.5028 104.206 13.2789 103.65 13.389Z" fill="#263238"/>
<path d="M103.631 13.1692C102.865 13.1592 102.819 11.5469 103.631 11.5469C104.307 11.5519 104.397 13.1792 103.631 13.1692Z" fill="#263238"/>
<path d="M107.586 13.1539C107.586 13.1839 107.586 13.1539 107.586 13.1539C107.125 12.9987 107.05 12.4178 107.05 11.9171C107.05 11.8721 107.005 11.8721 107.005 11.8721C106.925 12.3528 107.025 13.1188 107.586 13.1539Z" fill="#263238"/>
<path d="M107.611 12.9433C108.357 12.8682 108.252 11.2509 107.445 11.331C106.764 11.4111 106.865 13.0234 107.611 12.9433Z" fill="#263238"/>
<path d="M102.569 10.3247C102.404 10.2095 102.359 9.98423 102.474 9.81899C102.659 9.57364 102.93 9.4034 103.23 9.34331C103.521 9.23816 103.846 9.29324 104.077 9.49353C104.172 9.6187 104.172 9.78895 104.077 9.91413C103.906 10.0794 103.691 10.1845 103.456 10.2146C103.245 10.2847 103.03 10.3397 102.81 10.3848C102.725 10.3948 102.639 10.3748 102.569 10.3247Z" fill="#263238"/>
<path d="M108.313 9.91369C108.483 9.80854 108.538 9.58322 108.433 9.41297C108.243 9.16262 107.967 8.99238 107.657 8.9373C107.366 8.84216 107.046 8.90725 106.815 9.11755C106.72 9.24273 106.72 9.41297 106.815 9.53815C106.991 9.69838 107.211 9.79352 107.446 9.81855C107.662 9.87864 107.877 9.92871 108.097 9.96376C108.172 9.97377 108.248 9.95375 108.313 9.91369Z" fill="#263238"/>
<path d="M103.359 16.2889C103.379 16.5092 103.53 16.6945 103.745 16.7646C103.99 16.8046 104.241 16.7045 104.391 16.5092C104.426 16.4792 104.391 16.4792 104.391 16.4792C104.221 16.5543 104.035 16.5943 103.845 16.5943C103.665 16.5743 103.545 16.4091 103.434 16.2889C103.409 16.2689 103.369 16.2789 103.359 16.2889Z" fill="#263238"/>
<path d="M104.047 14.7614C104.528 15.192 105.164 15.4023 105.805 15.3523C105.83 15.177 105.71 14.0404 105.76 14.0404C106.035 14.0955 106.305 14.1806 106.561 14.3058C106.541 12.6885 106.27 11.0862 106.27 9.46889C106.27 9.44386 106.29 9.42383 106.315 9.42383C106.34 9.42383 106.36 9.44386 106.36 9.46889C106.716 11.1863 106.896 12.9288 106.896 14.6813C106.906 14.8816 106.19 14.5411 106.05 14.466C106.05 14.466 106.05 15.0318 106.05 15.4124V15.4574V15.5075C106.045 15.5626 106.005 15.6076 105.95 15.6176C105.91 15.6227 105.875 15.6227 105.835 15.6176C105.795 15.6227 105.755 15.6227 105.715 15.6176C105.509 15.6277 105.304 15.6176 105.104 15.5726C104.633 15.4774 104.227 15.192 103.982 14.7815C103.967 14.7564 104.002 14.7214 104.047 14.7614Z" fill="#263238"/>
<path d="M101.393 5.95858C101.923 6.79978 102.855 7.3055 103.846 7.29048C104.813 7.27546 105.709 6.76473 106.215 5.93855L101.393 5.95858ZM106.215 5.93855C106.24 5.89349 106.295 5.93355 106.275 5.95358C105.794 6.86487 104.863 7.45571 103.831 7.50078C102.785 7.48576 101.828 6.89492 101.348 5.95858L106.215 5.93855Z" fill="#263238"/>
<path d="M99.2452 4.06033C99.2102 3.35933 99.3604 2.65833 99.6708 2.03244C100.227 0.940883 101.383 0.294964 102.6 0.390099L99.2452 4.06033ZM102.6 0.390099C103.697 0.535306 104.588 1.34646 104.828 2.428C104.843 2.49309 104.733 2.51813 104.733 2.45804C104.568 1.89224 104.217 1.40154 103.737 1.06606C102.845 0.450185 101.664 0.465206 100.792 1.10612C99.8611 1.80712 99.3053 2.90368 99.2853 4.07034L102.6 0.390099Z" fill="#263238"/>
<path d="M111.678 1.80759C111.998 2.45351 112.098 3.17954 111.968 3.88555C111.633 5.68811 109.905 6.87981 108.103 6.54433C108.053 6.53933 108.068 6.49426 108.103 6.49426C109.004 6.62445 109.915 6.37409 110.631 5.81329C111.873 4.77682 112.164 2.98927 111.307 1.61231C110.887 0.971396 110.256 0.490712 109.525 0.260384C108.644 0.0400699 107.717 0.085134 106.861 0.390569C106.861 0.400583 106.831 0.345505 106.861 0.345505C107.887 0.0701126 108.929 -0.185251 109.95 0.235348C110.691 0.540783 111.302 1.09657 111.678 1.80759Z" fill="#263238"/>
<path d="M99.3337 7.02015C100.335 7.74117 101.682 6.31915 101.682 6.31915C103.68 8.0416 105.688 6.34919 105.903 6.27909C105.903 6.27909 108.397 7.39067 109.934 6.32415C112.122 4.79698 111.892 1.03663 109.278 0.19042C106.529 -0.705856 104.606 1.85279 104.606 1.85279C104.606 1.85279 103.304 0.560948 101.697 0.90644C99.9045 1.27196 99.4339 3.27481 99.4339 3.27481C99.4339 3.27481 98.1771 3.60028 97.6964 4.37638C97.2107 5.14748 97.406 7.40569 97.406 7.40569C98.2472 7.6911 99.3337 6.96507 99.3337 7.02015Z" fill="#263238"/>
<path opacity="0.2" d="M97.7417 5.80339C98.0521 5.03729 98.5378 4.35632 99.1637 3.81055C99.2739 5.39781 99.4491 8.99293 99.1136 9.83413C98.7782 10.6803 98.0772 12.588 97.6015 13.229C97.1559 10.48 97.1508 7.26046 97.7417 5.80339Z" fill="#263238"/>
<path d="M99.0644 13.9448C99.0544 13.9598 99.0494 13.9748 99.0394 13.9949C98.7039 14.6208 97.9278 14.8561 97.3019 14.5206C96.0701 13.9648 95.0587 10.4548 96.1753 9.93408C97.2869 9.41334 98.784 11.8969 98.784 11.8969L99.0644 13.9448Z" fill="#AD6359"/>
<path d="M98.374 13.9099C98.3991 14.005 98.2488 14.0401 98.2188 13.955C98.1237 13.6996 97.9985 13.4493 97.8483 13.2189C97.663 12.9435 97.3225 12.8083 97.0021 12.8885C96.977 12.8935 96.957 12.8434 96.977 12.8434C97.0071 12.8234 97.0371 12.8033 97.0722 12.7883C97.4227 12.6131 97.8483 12.7583 98.0235 13.1088C97.7531 12.2375 97.3476 11.3813 96.4863 10.9657C96.4863 10.9307 96.4863 10.9307 96.4863 10.9307C97.688 11.1259 98.4641 12.7583 98.374 13.9099Z" fill="#263238"/>
<path d="M120.205 40.0123L121.111 39.2862L121.577 25.2012L101.268 25.3264L100.361 26.0524L98.9844 40.8585L120.205 40.0123Z" fill="#37474F"/>
<path d="M121.111 39.2866L122.483 24.4805L101.268 25.3267L99.8906 40.1328L121.111 39.2866Z" fill="#455A64"/>
<path d="M113.361 31.6898C113.506 32.2906 113.14 32.8965 112.539 33.0417C111.883 33.3021 111.132 33.0417 110.782 32.4258C110.762 32.3807 110.747 32.3307 110.737 32.2806C110.587 31.6797 110.952 31.0689 111.553 30.9187C112.214 30.6583 112.965 30.9187 113.316 31.5395C113.331 31.5896 113.351 31.6397 113.361 31.6898Z" fill="white"/>
<path d="M80.0376 41.0433C80.5283 40.5726 87.9238 35.1248 89.9067 33.828C91.4739 32.8015 96.0905 44.7736 94.6684 45.805C84.4088 53.2857 80.4732 55.7492 77.2987 55.3136C75.1557 55.0232 75.9017 44.9889 80.0376 41.0433Z" fill="#AD6359"/>
<path d="M90.612 48.6988C92.8752 47.9478 95.9846 46.5908 98.1527 41.759C98.1527 41.759 105.889 42.6953 106.46 40.4972C106.975 38.5093 99.6899 38.1538 99.6899 38.1538C99.6899 38.1538 107.977 39.681 108.563 37.7833C109.339 35.2547 100.862 34.9042 100.862 34.9042C100.862 34.9042 109.879 37.1123 110.24 34.6038C110.6 32.0952 102.344 31.94 102.344 31.94C102.344 31.94 110.205 33.392 110.12 31.3291C110.025 29.0659 102.289 28.0094 99.2192 28.4851C96.3752 28.8956 93.6713 29.9872 91.338 31.6696C89.1399 33.357 86.2207 37.4528 86.2207 37.4528C86.2207 37.4528 90.0912 48.8941 90.612 48.6988Z" fill="#AD6359"/>
<path d="M99.5201 31.7496C100.487 31.8197 101.448 31.9398 102.414 32.0099C103.381 32.08 106.846 32.3855 109.004 33.0514C107.822 32.5858 106.59 32.2603 105.333 32.075C104.377 31.9198 103.411 31.8147 102.444 31.7446C101.478 31.6745 100.472 31.7145 99.5252 31.7145C99.4951 31.7145 99.4951 31.7596 99.5201 31.7496Z" fill="#263238"/>
<path d="M99.1992 35.246C100.431 35.3061 101.648 35.4663 102.884 35.5715C104.121 35.6816 105.263 35.6966 106.49 35.8168C106.585 35.8268 106.625 35.7717 106.53 35.7717C105.283 35.6015 104.156 35.4062 102.915 35.3211C101.673 35.236 100.446 35.246 99.2042 35.2109L99.1992 35.246Z" fill="#263238"/>
<path d="M98.3936 38.2292C100.647 38.3894 102.099 38.5897 103.997 38.82C104.092 38.835 104.147 38.7649 104.052 38.7649C102.189 38.3694 100.296 38.1691 98.3936 38.1641C98.3585 38.1691 98.3635 38.2292 98.3936 38.2292Z" fill="#263238"/>
<path d="M78.9301 41.7897C76.2112 45.0293 74.639 53.5214 77.0324 55.2088C79.4258 56.8962 90.2612 50.5221 90.2612 50.5221L86.2205 35.8262C86.2205 35.8262 80.0617 40.4578 78.9301 41.7897Z" fill="#00AB78"/>
<path d="M76.5918 51.7443V52.3552C76.5968 52.926 77.0575 53.3867 77.6233 53.3867C78.0839 53.3867 78.4595 53.7622 78.4595 54.2228V54.8688H78.6647V54.2228C78.6597 53.652 78.1991 53.1914 77.6283 53.1914C77.1676 53.1914 76.7921 52.8158 76.7921 52.3552V51.7443H76.5918ZM76.6369 46.5519V46.7472H76.8422V46.1013C76.8472 46.0462 76.8472 45.9911 76.8422 45.936C76.7771 46.1514 76.712 46.3566 76.6369 46.5519ZM83.4165 49.5111L83.5567 49.6513L83.9923 49.2207C84.3979 48.8151 84.3979 48.1592 83.9923 47.7536C83.6669 47.4282 83.6669 46.8974 83.9923 46.572L84.468 46.0963L84.3278 45.9561L83.8521 46.4318C83.4466 46.8373 83.4466 47.4933 83.8521 47.8988C84.1776 48.2243 84.1776 48.7551 83.8521 49.0805L83.4165 49.5111ZM80.5925 41.5348V41.7351H81.2034C81.7742 41.7351 82.2398 41.2744 82.2398 40.7036C82.2398 40.2429 82.6104 39.8724 83.071 39.8674H83.7219V39.6621H83.071C82.5002 39.6671 82.0396 40.1278 82.0396 40.6986C82.0396 41.1592 81.664 41.5348 81.2034 41.5348H80.5925Z" fill="white"/>
<path d="M86.2606 35.8563V35.8213H86.2306C85.124 36.5573 84.0525 37.3184 83.006 38.1346C81.9645 38.9507 80.9331 39.7819 79.9517 40.6732C79.461 41.1188 79.0003 41.5895 78.5697 42.0952C78.1491 42.621 77.7886 43.1868 77.4881 43.7876C76.8973 44.9843 76.5368 46.2812 76.4316 47.6131C76.667 46.3212 77.1076 45.0745 77.7335 43.9228C78.0489 43.352 78.4145 42.8163 78.8301 42.3105C79.2557 41.8198 79.7163 41.3542 80.207 40.9236C81.1684 40.0323 82.1898 39.1911 83.1963 38.3499C84.2077 37.5037 85.2342 36.6775 86.2606 35.8413H86.2206L86.3758 36.317L86.2606 35.8563Z" fill="#263238"/>
<path d="M83.8536 39.4765C83.8485 39.4564 83.8335 39.4414 83.8085 39.4414C83.7885 39.4464 83.7734 39.4614 83.7734 39.4865C83.9086 40.3377 84.1189 41.1839 84.3042 42.0251C84.6297 43.5172 85.0052 44.9993 85.3807 46.4814C85.571 47.2275 85.7613 47.9635 85.9565 48.7046C86.0567 49.0801 86.1568 49.4657 86.267 49.8262C86.3771 50.1867 86.5224 50.5372 86.6225 50.8977C86.6325 50.9428 86.6726 50.9328 86.6726 50.8977C86.5774 50.4621 86.5374 49.9864 86.4472 49.5758C86.3571 49.1653 86.262 48.7547 86.1668 48.3491C85.8214 46.862 85.4508 45.3749 85.0753 43.8978C84.885 43.1517 84.6897 42.4156 84.4895 41.6796C84.2892 40.9435 84.0989 40.1975 83.8536 39.4765Z" fill="#263238"/>
<path d="M89.9208 49.2246C90.0911 49.6702 90.2363 50.1259 90.3965 50.5715C88.5589 51.8033 86.6011 52.8498 84.5532 53.686C83.8822 53.9664 83.1912 54.2067 82.4902 54.407C83.8071 53.7811 85.104 53.1452 86.3908 52.4843C87.5174 51.8834 89.1347 51.0672 90.2413 50.4614L90.1962 50.5665C90.1061 50.1159 90.0059 49.6753 89.9208 49.2246Z" fill="#263238"/>
<g clip-path="url(#clip1_543_10605)">
<path d="M204.509 29.3076C190.588 29.3076 179.312 40.5949 179.312 54.5004C179.312 68.4125 190.588 79.6865 204.509 79.6865C218.416 79.6865 229.698 68.4125 229.698 54.5004C229.698 40.5949 218.416 29.3076 204.509 29.3076ZM204.509 79.3859C190.768 79.3859 179.626 68.2455 179.626 54.5071C179.626 40.7686 190.768 29.6282 204.509 29.6282C218.235 29.6416 229.371 40.7686 229.384 54.5004C229.384 54.5071 229.384 54.5071 229.384 54.5071C229.384 68.2455 218.249 79.3859 204.509 79.3859Z" fill="white"/>
<path d="M204.49 29C190.409 29.0067 178.993 40.4276 179 54.5067C179 68.5925 190.422 80.0067 204.51 80C218.584 79.9733 229.987 68.5791 230 54.5C230 54.5 230 54.5 230 54.4933C229.993 40.4075 218.571 29 204.49 29ZM229.385 54.5067C229.385 68.2452 218.25 79.3855 204.51 79.3855C190.77 79.3855 179.628 68.2452 179.628 54.5067C179.628 40.7682 190.77 29.6278 204.51 29.6278C218.237 29.6412 229.372 40.7682 229.385 54.5067Z" fill="#00AB78"/>
<path d="M210.956 50.165C209.948 50.165 209.133 50.9865 209.133 51.9884C209.133 52.9969 209.948 53.8184 210.956 53.8184C211.965 53.8184 212.78 52.9969 212.78 51.9884C212.78 50.9865 211.965 50.165 210.956 50.165ZM210.956 53.2841C210.242 53.2841 209.667 52.703 209.667 51.9884C209.667 51.2804 210.242 50.6994 210.956 50.6994C211.664 50.6994 212.246 51.2804 212.246 51.9884C212.246 52.703 211.664 53.2841 210.956 53.2841Z" fill="white"/>
<path d="M204.511 29.6279C190.771 29.6279 179.629 40.7683 179.629 54.5068C179.629 68.2453 190.771 79.3857 204.511 79.3857C218.251 79.3857 229.386 68.2453 229.386 54.5068C229.386 54.5068 229.386 54.5068 229.386 54.5001C229.373 40.7683 218.238 29.6413 204.511 29.6279ZM206.502 71.3777C206.488 71.3777 206.482 71.3777 206.462 71.3576C206.134 71.017 206.188 69.2204 206.241 67.6375C206.315 65.193 206.401 62.4213 205.533 61.1924C205.293 60.8517 204.912 60.658 204.498 60.658C204.084 60.658 203.703 60.8517 203.462 61.1924C202.594 62.4213 202.681 65.193 202.761 67.6375C202.808 69.2204 202.861 71.017 202.54 71.3576C202.514 71.3777 202.507 71.3777 202.494 71.3777C201.498 71.3777 199.735 64.3314 198.98 61.3193C198.653 60.0035 198.392 58.9616 198.205 58.3739C197.951 57.5724 197.344 56.4303 196.642 55.1146C196.168 54.2062 195.62 53.1844 195.133 52.1491C194.518 50.8668 194.084 49.7648 193.803 48.7897C193.543 47.8747 193.409 47.0465 193.409 46.3252C193.409 42.5983 195.72 40.6414 198.052 40.3342L198.746 41.1089L198.406 44.4083L200.65 46.8461L199.548 48.5492L201.846 51.1406L201.191 48.9566L202.414 46.8661L200.684 44.3215L201.525 41.1624L201.458 41.0021C201.746 41.1624 202.019 41.3293 202.28 41.4896C203.001 41.9304 203.616 42.3178 204.351 42.3178H204.651C205.379 42.3178 205.994 41.9371 206.715 41.4963C207.63 40.9286 208.673 40.2874 210.249 40.2874C210.703 40.2874 211.151 40.3409 211.585 40.4544C211.572 40.4811 211.558 40.5145 211.545 40.5412C211.478 40.6615 211.425 40.7817 211.371 40.9086C211.304 41.0488 211.251 41.1891 211.204 41.3293C211.157 41.4496 211.124 41.5698 211.091 41.69C211.037 41.8503 210.997 42.0106 210.97 42.1776C210.937 42.3111 210.917 42.4447 210.897 42.5783C210.897 42.585 210.897 42.585 210.897 42.585C210.884 42.6785 210.87 42.7653 210.87 42.8588C210.843 43.0592 210.837 43.2529 210.837 43.4532C210.837 44.2948 210.997 45.1029 211.298 45.851C211.331 45.9244 211.358 45.9912 211.391 46.0647C211.438 46.1649 211.485 46.265 211.538 46.3652C211.612 46.5122 211.692 46.6524 211.772 46.7927C211.779 46.806 211.792 46.8194 211.799 46.8327C211.872 46.953 211.952 47.0665 212.032 47.18C212.206 47.4272 212.407 47.6609 212.614 47.8813C212.694 47.9615 212.774 48.0416 212.854 48.1151C212.894 48.1552 212.928 48.1886 212.968 48.222C213.028 48.2821 213.095 48.3355 213.161 48.3889C213.228 48.449 213.295 48.5025 213.368 48.5492C213.449 48.616 213.535 48.6761 213.622 48.7296C213.649 48.7563 213.682 48.7763 213.709 48.7897C213.816 48.8631 213.929 48.9299 214.043 48.9967C214.076 49.0167 214.103 49.0368 214.137 49.0501C214.25 49.1102 214.37 49.1704 214.491 49.2238C214.511 49.2438 214.537 49.2572 214.557 49.2572C214.684 49.3173 214.811 49.3707 214.945 49.4242C214.958 49.4308 214.972 49.4375 214.985 49.4375C214.337 51.3744 213.288 53.358 212.353 55.1079C211.652 56.4303 211.051 57.5724 210.79 58.3739C210.603 58.9616 210.342 60.0102 210.015 61.3326C209.26 64.3381 207.497 71.3777 206.502 71.3777ZM215.152 48.9299C215.132 48.9232 215.105 48.9099 215.085 48.9032C215.005 48.8698 214.925 48.8364 214.845 48.803C214.785 48.7763 214.718 48.7496 214.658 48.7162C214.564 48.6694 214.471 48.6227 214.384 48.5759C214.357 48.5626 214.33 48.5425 214.304 48.5292C214.183 48.4624 214.07 48.3956 213.956 48.3155C213.849 48.2487 213.749 48.1752 213.649 48.0951C213.502 47.9815 213.368 47.868 213.235 47.7411C213.141 47.6542 213.048 47.5607 212.961 47.4672C212.834 47.3403 212.72 47.2001 212.614 47.0598C212.54 46.9797 212.48 46.8929 212.427 46.806C212.413 46.7927 212.407 46.7793 212.4 46.7726C212.32 46.6591 212.246 46.5456 212.179 46.4253C212.113 46.3185 212.059 46.2183 212.006 46.1114C211.952 45.9979 211.899 45.8843 211.852 45.7708C211.779 45.6105 211.718 45.4502 211.665 45.2832C211.618 45.143 211.572 44.9961 211.538 44.8424C211.431 44.395 211.371 43.9274 211.371 43.4532C211.371 42.8989 211.451 42.3445 211.605 41.8169C211.632 41.71 211.665 41.6099 211.705 41.5097C211.752 41.3828 211.799 41.2626 211.852 41.1423C211.906 41.0154 211.959 40.9019 212.019 40.7817C212.026 40.755 212.039 40.7282 212.059 40.7015C212.079 40.6748 212.093 40.6481 212.106 40.6214C214.29 41.4496 215.586 43.5601 215.586 46.3252C215.586 47.0932 215.446 47.9481 215.152 48.9299Z" fill="white"/>
<path d="M212.352 55.1076C211.651 56.43 211.049 57.5721 210.789 58.3735C210.602 58.9613 210.341 60.0099 210.014 61.3323C209.259 64.3378 207.496 71.3773 206.501 71.3773C206.487 71.3773 206.481 71.3773 206.46 71.3573C206.133 71.0167 206.187 69.2201 206.24 67.6372C206.314 65.1927 206.4 62.4209 205.532 61.192C205.292 60.8514 204.911 60.6577 204.497 60.6577C204.082 60.6577 203.702 60.8514 203.461 61.192C202.593 62.4209 202.68 65.1927 202.76 67.6372C202.807 69.2201 202.86 71.0167 202.539 71.3573C202.513 71.3773 202.506 71.3773 202.493 71.3773C201.497 71.3773 199.734 64.3311 198.979 61.3189C198.652 60.0032 198.391 58.9613 198.204 58.3735C197.95 57.5721 197.343 56.43 196.641 55.1142C196.167 54.2059 195.619 53.184 195.132 52.1488C194.517 50.8665 194.083 49.7645 193.802 48.7893C193.542 47.8743 193.408 47.0461 193.408 46.3248C193.408 42.598 195.719 40.6411 198.051 40.3339C198.097 40.3272 198.137 40.3205 198.184 40.3138C198.358 40.2938 198.538 40.2871 198.725 40.2871C198.899 40.2871 199.073 40.3005 199.24 40.3138C199.407 40.3205 199.574 40.3472 199.741 40.3806C199.821 40.394 199.908 40.4073 199.988 40.434C200.068 40.4474 200.155 40.4674 200.235 40.5008C200.315 40.5209 200.395 40.5476 200.482 40.5743C200.556 40.601 200.636 40.6277 200.709 40.6544C200.716 40.6544 200.716 40.6611 200.723 40.6611C200.756 40.6745 200.789 40.6878 200.823 40.7012C201.05 40.7947 201.257 40.8949 201.457 41.0018C201.745 41.162 202.018 41.329 202.279 41.4893C203 41.9301 203.615 42.3175 204.35 42.3175H204.65C205.378 42.3175 205.993 41.9368 206.714 41.496C207.629 40.9283 208.671 40.2871 210.248 40.2871C210.702 40.2871 211.15 40.3405 211.584 40.4541C211.57 40.4808 211.557 40.5142 211.544 40.5409C211.477 40.6611 211.424 40.7813 211.37 40.9082C211.303 41.0485 211.25 41.1888 211.203 41.329C211.156 41.4492 211.123 41.5695 211.09 41.6897C211.036 41.85 210.996 42.0103 210.969 42.1772C210.936 42.3108 210.916 42.4444 210.896 42.578C210.896 42.5846 210.896 42.5846 210.896 42.5846C210.882 42.6782 210.869 42.765 210.869 42.8585C210.842 43.0588 210.836 43.2525 210.836 43.4529C210.836 44.2944 210.996 45.1026 211.297 45.8506C211.33 45.9241 211.357 45.9909 211.39 46.0643C211.437 46.1645 211.484 46.2647 211.537 46.3649C211.611 46.5118 211.691 46.6521 211.771 46.7923C211.778 46.8057 211.791 46.8191 211.798 46.8324C211.871 46.9526 211.951 47.0662 212.031 47.1797C212.205 47.4268 212.405 47.6606 212.613 47.881C212.693 47.9612 212.773 48.0413 212.853 48.1148C212.893 48.1548 212.926 48.1882 212.967 48.2216C213.027 48.2817 213.093 48.3352 213.16 48.3886C213.227 48.4487 213.294 48.5021 213.367 48.5489C213.448 48.6157 213.534 48.6758 213.621 48.7292C213.648 48.7559 213.681 48.776 213.708 48.7893C213.815 48.8628 213.928 48.9296 214.042 48.9964C214.075 49.0164 214.102 49.0365 214.136 49.0498C214.249 49.1099 214.369 49.17 214.49 49.2235C214.51 49.2435 214.536 49.2569 214.556 49.2569C214.683 49.317 214.81 49.3704 214.944 49.4238C214.957 49.4305 214.97 49.4372 214.984 49.4372C214.336 51.3741 213.287 53.3577 212.352 55.1076Z" fill="white"/>
<path d="M214.944 49.4238C214.81 49.3771 214.683 49.3236 214.556 49.2569C214.536 49.2569 214.51 49.2435 214.49 49.2235C214.369 49.1767 214.249 49.1166 214.136 49.0498C214.102 49.0365 214.075 49.0164 214.042 48.9964C213.928 48.9363 213.815 48.8695 213.708 48.7893C213.681 48.776 213.648 48.7559 213.621 48.7292C213.534 48.6758 213.448 48.6157 213.367 48.5489C213.294 48.5021 213.227 48.4487 213.16 48.3886C213.093 48.3352 213.027 48.2817 212.967 48.2216C212.926 48.1882 212.893 48.1548 212.853 48.1148C212.773 48.0413 212.693 47.9612 212.613 47.881C212.405 47.6606 212.205 47.4268 212.031 47.1797C211.951 47.0662 211.871 46.9526 211.798 46.8324C211.791 46.8191 211.778 46.8057 211.771 46.7923C211.691 46.6521 211.611 46.5118 211.537 46.3649C211.484 46.2647 211.437 46.1645 211.39 46.0643C211.357 45.9909 211.33 45.9241 211.297 45.8506C210.996 45.1026 210.836 44.2944 210.836 43.4529C210.836 43.2525 210.842 43.0588 210.869 42.8585C210.869 42.765 210.882 42.6782 210.896 42.5846C210.896 42.5846 210.896 42.5846 210.896 42.578C210.916 42.4444 210.936 42.3108 210.969 42.1772C210.996 42.0103 211.036 41.85 211.09 41.6897C211.116 41.5695 211.156 41.4492 211.203 41.329C211.25 41.1888 211.303 41.0485 211.37 40.9082C211.424 40.7813 211.477 40.6611 211.544 40.5409C211.557 40.5142 211.57 40.4808 211.584 40.4541C211.15 40.3405 210.702 40.2871 210.248 40.2871C208.671 40.2871 207.629 40.9283 206.714 41.496C205.993 41.9368 205.378 42.3175 204.65 42.3175H204.35C203.615 42.3175 203 41.9301 202.279 41.4893C202.018 41.329 201.745 41.162 201.457 41.0018L201.524 41.162L200.682 44.3212L202.413 46.8658L201.19 48.9563L201.845 51.1403L199.547 48.5489L200.649 46.8458L198.405 44.408L198.745 41.1086L198.051 40.3339C195.719 40.6411 193.408 42.598 193.408 46.3248C193.408 47.0461 193.542 47.8743 193.802 48.7893C194.083 49.7645 194.517 50.8665 195.132 52.1488C195.619 53.184 196.167 54.2059 196.641 55.1142C197.343 56.43 197.95 57.5721 198.204 58.3735C198.391 58.9613 198.652 60.0032 198.979 61.3189C199.734 64.3311 201.497 71.3773 202.493 71.3773C202.506 71.3773 202.513 71.3773 202.539 71.3573C202.86 71.0167 202.807 69.2201 202.76 67.6372C202.68 65.1927 202.593 62.4209 203.461 61.192C203.702 60.8514 204.082 60.6577 204.497 60.6577C204.911 60.6577 205.292 60.8514 205.532 61.192C206.4 62.4209 206.314 65.1927 206.24 67.6372C206.187 69.2201 206.133 71.0167 206.46 71.3573C206.481 71.3773 206.487 71.3773 206.501 71.3773C207.496 71.3773 209.259 64.3378 210.014 61.3323C210.341 60.0099 210.602 58.9613 210.789 58.3735C211.049 57.5721 211.651 56.43 212.352 55.1076C213.287 53.3577 214.336 51.3741 214.984 49.4372C214.97 49.4372 214.957 49.4305 214.944 49.4238Z" fill="#00AB78"/>
<path d="M215.083 48.9029C215.003 48.8695 214.923 48.8361 214.843 48.8027C214.783 48.776 214.716 48.7493 214.656 48.7159C214.562 48.6692 214.469 48.6224 214.382 48.5756C214.355 48.5623 214.328 48.5423 214.302 48.5289C214.181 48.4621 214.068 48.3953 213.954 48.3152C213.847 48.2484 213.747 48.1749 213.647 48.0948C213.5 47.9812 213.366 47.8677 213.233 47.7408C213.139 47.654 213.046 47.5605 212.959 47.467C212.832 47.3401 212.718 47.1998 212.612 47.0595C212.538 46.9794 212.478 46.8926 212.425 46.8057C212.411 46.7924 212.405 46.779 212.398 46.7723C212.318 46.6588 212.244 46.5453 212.177 46.425C212.111 46.3182 212.057 46.218 212.004 46.1111C211.95 45.9976 211.897 45.8841 211.85 45.7705C211.777 45.6102 211.716 45.4499 211.663 45.283C211.61 45.136 211.57 44.9891 211.536 44.8422C211.429 44.3947 211.369 43.9271 211.369 43.4529C211.369 42.8986 211.449 42.3442 211.603 41.8166C211.63 41.7098 211.663 41.6096 211.703 41.5094C211.743 41.3825 211.79 41.2623 211.85 41.142C211.897 41.0218 211.95 40.9016 212.017 40.7814C212.024 40.7547 212.037 40.728 212.057 40.7012C212.071 40.6745 212.084 40.6478 212.097 40.6211H212.104C214.288 41.4493 215.584 43.5598 215.584 46.3249C215.584 47.0929 215.444 47.9478 215.15 48.9296C215.13 48.923 215.103 48.9096 215.083 48.9029Z" fill="#9CAFAE"/>
<path d="M215.584 46.3249C215.584 47.0929 215.444 47.9478 215.15 48.9296C215.13 48.923 215.103 48.9096 215.083 48.9029C215.003 48.8695 214.923 48.8361 214.843 48.8027C214.783 48.776 214.716 48.7493 214.656 48.7159C214.562 48.6692 214.469 48.6224 214.382 48.5756C214.355 48.5623 214.328 48.5423 214.302 48.5289C214.181 48.4621 214.068 48.3953 213.954 48.3152C213.847 48.2484 213.747 48.1749 213.647 48.0948C213.5 47.9812 213.366 47.8677 213.233 47.7408C213.139 47.654 213.046 47.5605 212.959 47.467C212.832 47.3401 212.718 47.1998 212.612 47.0595C212.538 46.9794 212.478 46.8926 212.425 46.8057C212.411 46.7924 212.405 46.779 212.398 46.7723C212.318 46.6588 212.244 46.5453 212.177 46.425C212.111 46.3182 212.057 46.218 212.004 46.1111C211.95 45.9976 211.897 45.8841 211.85 45.7705C211.777 45.6102 211.716 45.4499 211.663 45.283C211.616 45.1427 211.57 44.9958 211.536 44.8422C211.429 44.3947 211.369 43.9271 211.369 43.4529C211.369 42.8986 211.449 42.3442 211.603 41.8166C211.63 41.7098 211.663 41.6096 211.703 41.5094C211.75 41.3825 211.797 41.2623 211.85 41.142C211.904 41.0151 211.957 40.9016 212.017 40.7814C212.024 40.7547 212.037 40.728 212.057 40.7012C212.077 40.6745 212.091 40.6478 212.104 40.6211C214.288 41.4493 215.584 43.5598 215.584 46.3249Z" fill="#00AB78"/>
<path d="M210.957 53.2839C210.242 53.2839 209.668 52.7029 209.668 51.9882C209.668 51.2803 210.242 50.6992 210.957 50.6992C211.665 50.6992 212.246 51.2803 212.246 51.9882C212.246 52.7029 211.665 53.2839 210.957 53.2839Z" fill="#9CAFAE"/>
<path d="M212.246 51.9882C212.246 52.7029 211.665 53.2839 210.957 53.2839C210.242 53.2839 209.668 52.7029 209.668 51.9882C209.668 51.2803 210.242 50.6992 210.957 50.6992C211.665 50.6992 212.246 51.2803 212.246 51.9882Z" fill="white"/>
</g>
</g>
<defs>
<clipPath id="clip0_543_10605">
<rect x="0.914062" width="314.915" height="178.254" rx="8" fill="white"/>
</clipPath>
<clipPath id="clip1_543_10605">
<rect width="51" height="51" fill="white" transform="translate(179 29)"/>
</clipPath>
</defs>
</svg>
