<svg width="42" height="59" viewBox="0 0 42 59" fill="none" xmlns="http://www.w3.org/2000/svg">
<g style="mix-blend-mode:multiply">
<path d="M40.7906 17.4588C40.5386 17.3707 40.2993 17.2699 40.0599 17.1439C40.0221 17.1439 39.9717 17.1188 39.9339 17.081C39.7072 16.9928 39.4804 16.8794 39.2662 16.7535C39.2033 16.7283 39.1529 16.6905 39.0899 16.6527C38.8757 16.5393 38.6616 16.4134 38.46 16.2622C38.4096 16.237 38.3466 16.1993 38.2962 16.1489C38.1325 16.0481 37.9687 15.9347 37.8175 15.8088C37.6789 15.7206 37.553 15.6198 37.427 15.5065C37.301 15.4057 37.175 15.3049 37.0617 15.1916C36.9861 15.1286 36.9231 15.0656 36.8475 14.99C36.6963 14.8515 36.5452 14.7003 36.394 14.5492C36.0035 14.1335 35.6255 13.6926 35.298 13.2266C35.1468 13.0125 34.9956 12.7983 34.8571 12.5716C34.8445 12.5464 34.8193 12.5212 34.8067 12.496C34.6555 12.2315 34.5043 11.967 34.3658 11.6899C34.265 11.5009 34.1768 11.312 34.0886 11.1231C34.0256 10.9845 33.9752 10.8586 33.9123 10.72C33.3454 9.30925 33.043 7.78513 33.043 6.19804C33.043 5.82016 33.0556 5.45487 33.106 5.07699C33.106 4.90065 33.1312 4.7369 33.1564 4.56056C33.1564 4.56056 33.1564 4.56056 33.1564 4.54796C33.1942 4.29604 33.232 4.04412 33.295 3.7922C33.3454 3.4773 33.4209 3.175 33.5217 2.8727C33.5721 2.64597 33.6477 2.41924 33.7359 2.19251C33.8241 1.928 33.9249 1.66348 34.0508 1.39897C34.1516 1.15964 34.2524 0.932916 34.3784 0.706188C34.4036 0.655804 34.4288 0.592823 34.4539 0.542439C33.6351 0.328307 32.7911 0.227539 31.9344 0.227539C28.9614 0.227539 26.9962 1.43675 25.2703 2.50741C23.9097 3.33875 22.7507 4.05672 21.3776 4.05672H20.8107C19.425 4.05672 18.266 3.32615 16.9054 2.49482C16.4141 2.19251 15.8976 1.87761 15.3559 1.57531L15.4819 1.87761L13.8946 7.83552L17.1574 12.6346L14.852 16.5771L16.0866 20.696L11.753 15.8088L13.8316 12.5968L9.59881 7.99926L10.2413 1.77684L8.93114 0.315711C4.53456 0.895126 0.175781 4.58575 0.175781 11.6143C0.175781 12.9747 0.427734 14.5366 0.919042 16.2622C1.44814 18.1012 2.26699 20.1796 3.42597 22.598C4.3456 24.5504 5.37861 26.4776 6.27304 28.1906C7.59579 30.672 8.74218 32.826 9.22089 34.3375C9.57362 35.4459 10.0649 37.4109 10.6822 39.8923C12.1057 45.5731 15.4315 58.8619 17.3086 58.8619C17.3338 58.8619 17.3464 58.8619 17.3968 58.8241C18.0014 58.1817 17.9007 54.7933 17.8125 51.8081C17.6613 47.198 17.4975 41.9706 19.1352 39.653C19.5887 39.0106 20.3068 38.6453 21.0879 38.6453C21.8689 38.6453 22.587 39.0106 23.0405 39.653C24.6782 41.9706 24.5144 47.198 24.3758 51.8081C24.2751 54.7933 24.1743 58.1817 24.7916 58.8241C24.8294 58.8619 24.842 58.8619 24.8671 58.8619C26.7442 58.8619 30.07 45.5857 31.4935 39.9175C32.1108 37.4235 32.6021 35.4459 32.9548 34.3375C33.4461 32.826 34.5799 30.672 35.9027 28.178C37.6664 24.8779 39.6442 21.1369 40.8661 17.484C40.841 17.484 40.8158 17.4714 40.7906 17.4588Z" fill="#72B6CD"/>
<path d="M41.0541 16.4764C40.9029 16.4135 40.7517 16.3505 40.6006 16.2875C40.4872 16.2371 40.3612 16.1867 40.2478 16.1238C40.0715 16.0356 39.8951 15.9474 39.7313 15.8592C39.6809 15.834 39.6306 15.7963 39.5802 15.7711C39.3534 15.6451 39.1393 15.5191 38.9251 15.368C38.7235 15.242 38.5346 15.1035 38.3456 14.9523C38.0684 14.7382 37.8165 14.5241 37.5645 14.2847C37.3882 14.121 37.2118 13.9446 37.048 13.7683C36.8087 13.529 36.5945 13.2645 36.393 12.9999C36.2544 12.8488 36.141 12.685 36.0402 12.5213C36.015 12.4961 36.0024 12.4709 35.9898 12.4583C35.8387 12.2442 35.7001 12.0301 35.5741 11.8033C35.4481 11.6018 35.3474 11.4129 35.2466 11.2113C35.1458 10.9972 35.045 10.7831 34.9568 10.5689C34.8183 10.2666 34.7049 9.96432 34.6041 9.64942C34.5033 9.3723 34.4277 9.09519 34.3647 8.81808C34.1632 7.97415 34.0498 7.09243 34.0498 6.19812C34.0498 5.15265 34.201 4.10719 34.4907 3.1121C34.5411 2.91057 34.6041 2.72163 34.6797 2.53269C34.7553 2.29336 34.8435 2.06664 34.9568 1.83991C35.045 1.61318 35.1458 1.38645 35.2718 1.15973C35.2844 1.10934 35.3096 1.05896 35.3474 1.00857C35.3726 0.958191 35.3978 0.907806 35.4229 0.857422H35.4355C39.555 2.41932 41.9989 6.39965 41.9989 11.6144C41.9989 13.0629 41.7344 14.6752 41.1801 16.5268C41.1423 16.5142 41.0919 16.489 41.0541 16.4764Z" fill="#9CAFAE"/>
<path d="M41.9989 11.6144C41.9989 13.0629 41.7344 14.6752 41.1801 16.5268C41.1423 16.5142 41.0919 16.489 41.0541 16.4764C40.9029 16.4135 40.7517 16.3505 40.6006 16.2875C40.4872 16.2371 40.3612 16.1867 40.2478 16.1238C40.0715 16.0356 39.8951 15.9474 39.7313 15.8592C39.6809 15.834 39.6306 15.7963 39.5802 15.7711C39.3534 15.6451 39.1393 15.5191 38.9251 15.368C38.7235 15.242 38.5346 15.1035 38.3456 14.9523C38.0684 14.7382 37.8165 14.5241 37.5645 14.2847C37.3882 14.121 37.2118 13.9446 37.048 13.7683C36.8087 13.529 36.5945 13.2645 36.393 12.9999C36.2544 12.8488 36.141 12.685 36.0402 12.5213C36.015 12.4961 36.0024 12.4709 35.9898 12.4583C35.8387 12.2442 35.7001 12.0301 35.5741 11.8033C35.4481 11.6018 35.3474 11.4129 35.2466 11.2113C35.1458 10.9972 35.045 10.7831 34.9568 10.5689C34.8183 10.2666 34.7049 9.96432 34.6041 9.64942C34.5159 9.3849 34.4277 9.10779 34.3647 8.81808C34.1632 7.97415 34.0498 7.09243 34.0498 6.19812C34.0498 5.15265 34.201 4.10719 34.4907 3.1121C34.5411 2.91057 34.6041 2.72163 34.6797 2.53269C34.7679 2.29336 34.8561 2.06664 34.9568 1.83991C35.0576 1.60059 35.1584 1.38645 35.2718 1.15973C35.2844 1.10934 35.3096 1.05896 35.3474 1.00857C35.3852 0.958191 35.4104 0.907806 35.4355 0.857422C39.555 2.41932 41.9989 6.39965 41.9989 11.6144Z" fill="#72B6CD"/>
<path d="M33.2702 24.7389C31.9223 24.7389 30.8389 23.643 30.8389 22.2953C30.8389 20.9601 31.9223 19.8643 33.2702 19.8643C34.6056 19.8643 35.7016 20.9601 35.7016 22.2953C35.7016 23.643 34.6056 24.7389 33.2702 24.7389Z" fill="#9CAFAE"/>
</g>
</svg>
